<svg width="114" height="24" viewBox="0 0 114 24" fill="none" xmlns="http://www.w3.org/2000/svg">
<g clip-path="url(#clip0_1_1100)">
<path d="M23.6912 12.1305V23.5493C23.6912 23.918 23.5684 23.9999 23.2407 23.9999H8.26515C8.13528 24.0054 8.00578 23.9825 7.88558 23.933C7.76539 23.8835 7.65737 23.8085 7.56898 23.7132C5.11442 21.2579 2.70594 18.8026 0.24627 16.3473C0.16444 16.2761 0.0991261 16.1879 0.0549172 16.0888C0.0107082 15.9898 -0.0113288 15.8822 -0.00967942 15.7738V0.547829C-0.00967942 0.220114 0.11317 0.138184 0.399833 0.138184H23.2715C23.64 0.138184 23.681 0.261075 23.681 0.58879L23.6912 12.1305Z" fill="#0099FD"/>
<path d="M68.9851 8.48982V0.629779C68.9851 0.343028 69.026 0.220134 69.3537 0.261099C69.7887 0.302063 70.2265 0.302063 70.6616 0.261099C70.9482 0.261099 70.9892 0.343027 70.9892 0.588813V14.0149C70.9892 14.3426 70.9073 14.4245 70.5797 14.4245C70.0908 14.3836 69.5559 14.4245 69.026 14.4245C68.7701 14.4245 68.6575 14.3836 68.6165 14.0968C67.7975 10.9861 66.9401 7.87535 66.121 4.80558C66.1017 4.66985 66.045 4.54217 65.9572 4.4369V14.0149C65.9572 14.3426 65.8753 14.4655 65.5477 14.4245C65.1392 14.3836 64.7276 14.3836 64.3191 14.4245C63.9941 14.4655 63.9531 14.3426 63.9531 14.0559V0.670744C63.9531 0.383993 63.9941 0.302064 64.3191 0.302064C65.0147 0.343028 65.7121 0.343028 66.4077 0.302064C66.6636 0.302064 66.7762 0.383993 66.8172 0.629779C67.4699 3.16701 68.166 5.66328 68.8213 8.20307C68.8648 8.285 68.8648 8.40277 68.9851 8.48982Z" fill="white"/>
<path d="M32.6932 9.59356C32.6523 8.44911 32.3247 7.42501 31.0987 6.89247C31.8665 6.48283 32.2428 5.82739 32.4475 4.9697C32.5635 4.29285 32.5773 3.60243 32.4885 2.92148C32.2837 1.16258 31.5875 0.466183 29.8292 0.261361C28.6416 0.138468 27.4565 0.26136 26.2689 0.220396C25.9413 0.220396 25.9004 0.302325 25.9004 0.589076V14.0561C25.9004 14.22 25.8594 14.3838 26.1563 14.3838C27.436 14.3429 28.6928 14.3838 29.9623 14.3429C31.393 14.3019 32.3349 13.4416 32.6216 12.0386C32.7475 11.2298 32.7716 10.4084 32.6932 9.59356ZM28.0708 2.59377C28.0708 2.39151 28.1118 2.26862 28.3549 2.30958C28.6412 2.33006 28.9286 2.33006 29.2149 2.30958C29.3334 2.29653 29.4534 2.30749 29.5676 2.3418C29.6818 2.37611 29.7879 2.43307 29.8796 2.50929C29.9713 2.58551 30.0468 2.67942 30.1014 2.78542C30.1561 2.89143 30.1888 3.00736 30.1977 3.12631C30.3206 3.77598 30.3206 4.44293 30.1977 5.0926C30.1669 5.35281 30.0412 5.59251 29.8448 5.76586C29.6484 5.93921 29.3949 6.03404 29.133 6.03222C28.0708 6.11415 28.0708 6.11415 28.0708 5.05163V2.59377ZM30.4742 11.4754C30.3923 12.0873 30.1056 12.374 29.4913 12.415C29.1094 12.4355 28.7266 12.4355 28.3447 12.415C28.1834 12.415 28.0887 12.374 28.0887 12.2102V8.32622C28.0887 8.16236 28.1297 8.07019 28.2909 8.1214H29.2738C29.9699 8.16236 30.3385 8.49008 30.4204 9.18391C30.4614 9.55259 30.4614 9.952 30.5023 10.3719C30.5133 10.7399 30.5039 11.1083 30.4742 11.4754Z" fill="white"/>
<path d="M58.8836 3.45381C58.8427 1.53105 57.8598 0.381487 56.0682 0.179226C54.105 -0.0255963 52.3441 0.752727 52.2622 3.25155C52.1829 5.99361 52.2238 8.73566 52.2622 11.4803C52.3032 12.7604 52.8355 13.8536 54.146 14.3452C55.0835 14.6909 56.1135 14.6909 57.051 14.3452C57.3971 14.2307 57.7148 14.0435 57.9827 13.7963C58.2506 13.549 58.4627 13.2473 58.6046 12.9115C58.8473 12.3857 58.973 11.8136 58.9732 11.2345V7.37871C58.9604 6.07297 59.0014 4.76467 58.8836 3.45381ZM56.7516 7.37871V11.0629C56.7584 11.2678 56.7446 11.4728 56.7106 11.6749C56.6773 11.9275 56.5482 12.1576 56.35 12.3178C56.1519 12.4779 55.8998 12.5557 55.6459 12.5351C55.0341 12.5351 54.7065 12.2484 54.5427 11.6749C54.5086 11.4866 54.4949 11.2951 54.5018 11.1039V3.5383C54.4886 3.33009 54.5164 3.12132 54.5837 2.92384C54.7475 2.3529 55.0751 2.10711 55.6868 2.10711C55.9328 2.09223 56.176 2.16664 56.3716 2.31668C56.5672 2.46671 56.7021 2.6823 56.7516 2.92384C56.799 3.13933 56.8264 3.35874 56.8335 3.57927C56.7516 4.88757 56.7516 6.11394 56.7516 7.37871Z" fill="white"/>
<path d="M44.6813 6.8104C44.7223 5.95015 44.5994 4.51895 44.7223 3.12617C44.927 0.752792 46.5626 -0.0255292 48.4463 0.179293C50.2047 0.384115 51.1057 1.40822 51.2285 3.33099C51.2695 3.82256 51.2285 4.31413 51.2285 4.84667C51.2285 5.05149 51.1466 5.1027 50.9726 5.1027H49.3754C49.1732 5.1027 49.1323 5.02077 49.1323 4.84667V3.28234C49.0913 2.46562 48.559 2.01501 47.699 2.17887C47.5012 2.21664 47.3205 2.31597 47.1826 2.46265C47.0447 2.60933 46.9567 2.79587 46.9311 2.99559C46.8971 3.21232 46.8834 3.43175 46.8902 3.65102V11.0195C46.8833 11.1836 46.8971 11.3479 46.9311 11.5085C47.013 12.2049 47.4225 12.5326 48.1187 12.4916C48.2599 12.4974 48.4007 12.4739 48.5323 12.4226C48.6639 12.3712 48.7835 12.2932 48.8835 12.1934C48.9835 12.0936 49.0618 11.9742 49.1134 11.8427C49.165 11.7111 49.1889 11.5703 49.1835 11.4291C49.2244 10.7743 49.2244 10.1176 49.1835 9.46284C49.1835 9.20681 49.2244 9.09416 49.5085 9.13513C50 9.17609 50.5323 9.13513 51.0647 9.13513C51.1876 9.13513 51.3207 9.13513 51.3207 9.33995C51.2797 10.3231 51.4026 11.3062 51.1978 12.2459C50.8702 13.6386 49.9181 14.4579 48.4975 14.5783C48.0712 14.6271 47.6401 14.6133 47.2178 14.5373C46.5657 14.4385 45.9683 14.1156 45.5283 13.6241C45.0883 13.1326 44.8332 12.5031 44.8067 11.8439C44.8067 11.6391 44.7658 11.4368 44.7658 11.273C44.6404 9.92113 44.6813 8.65892 44.6813 6.8104Z" fill="white"/>
<path d="M81.2623 4.10913C80.9347 4.10913 80.5251 4.23203 80.2794 4.06817C80.0337 3.90432 80.1975 3.45371 80.1566 3.12599C80.0747 2.47312 79.7061 2.10188 79.0944 2.10188C78.4392 2.10188 78.1115 2.4296 78.0296 3.08247C77.9725 3.47665 78.0015 3.87853 78.1146 4.26042C78.2277 4.64231 78.4223 4.99513 78.6849 5.29454C79.0534 5.74259 79.5013 6.15223 79.9109 6.56188C80.4916 7.06088 81.0137 7.62435 81.467 8.24142C81.8949 8.86108 82.1731 9.57165 82.2797 10.3172C82.3863 11.0627 82.3184 11.8228 82.0813 12.5376C81.9573 13.0224 81.6929 13.4599 81.3214 13.7951C80.9498 14.1303 80.4877 14.3483 79.9928 14.4219C79.3166 14.57 78.6149 14.556 77.9452 14.381C76.7166 14.0942 75.9411 13.1008 75.7773 11.6363C75.7363 11.1883 75.7773 10.7377 75.7363 10.2871C75.7363 10.0823 75.8182 10.031 75.9923 10.031H77.5689C77.7737 10.031 77.8249 10.113 77.8249 10.3178C77.7908 10.7556 77.8184 11.196 77.9068 11.6261C77.9437 11.874 78.0752 12.0979 78.2738 12.2507C78.4724 12.4035 78.7225 12.4733 78.9715 12.4454C79.2171 12.472 79.464 12.4089 79.6667 12.2678C79.8695 12.1266 80.0144 11.9169 80.0747 11.6773C80.1675 11.3168 80.1826 10.9407 80.119 10.5739C80.0555 10.2071 79.9147 9.85798 79.7061 9.54971C79.3204 8.97918 78.852 8.46923 78.3163 8.0366C77.7842 7.57262 77.2911 7.06568 76.842 6.52091C76.359 5.9213 76.0287 5.21341 75.8793 4.45799C75.73 3.70258 75.7661 2.92219 75.9846 2.18381C76.2687 0.95488 77.0877 0.258484 78.3572 0.0536624C78.9001 -0.0356956 79.455 -0.0217969 79.9928 0.0946277C80.5809 0.217077 81.1139 0.52617 81.5123 0.975933C81.9107 1.4257 82.1534 1.9921 82.2042 2.59089C82.2524 2.97141 82.2789 3.35436 82.2835 3.7379C82.2835 3.94272 82.2451 4.02464 82.0404 4.02464C81.7946 4.11287 81.5313 4.14096 81.2725 4.10658L81.2623 4.10913Z" fill="white"/>
<path d="M85.3922 8.40282V2.83935C85.3922 2.30938 85.3922 2.30937 84.9034 2.30937H83.3882C83.1322 2.30937 83.0605 2.26841 83.0605 2.02262V0.506943C83.0605 0.302121 83.1015 0.250916 83.3165 0.250916H89.6589C89.8637 0.250916 89.9149 0.29188 89.9149 0.506943V2.06359C89.9149 2.26841 89.8739 2.35034 89.6589 2.35034H87.9825C87.6548 2.35034 87.6139 2.43227 87.6139 2.71646V14.0149C87.6139 14.3427 87.532 14.4655 87.2044 14.4655C86.7138 14.4246 86.2207 14.4246 85.7301 14.4655C85.4434 14.4655 85.4025 14.3836 85.4025 14.0969L85.3922 8.40282Z" fill="white"/>
<path d="M39.4861 8.36706V2.6346C39.4861 2.35041 39.4042 2.26848 39.1584 2.30945C38.6261 2.35041 38.0527 2.30945 37.5204 2.30945C37.2363 2.30945 37.1953 2.22752 37.1953 1.98173V0.547984C37.1953 0.343162 37.2337 0.26123 37.4794 0.26123H43.7834C43.9473 0.26123 44.0394 0.302195 44.0394 0.517258V2.0739C44.0394 2.27873 43.9575 2.32993 43.7834 2.32993H42.107C41.8203 2.32993 41.7384 2.41186 41.7384 2.69605V13.9945C41.7384 14.3632 41.6156 14.4451 41.2879 14.4451C40.8256 14.4042 40.3605 14.4042 39.8981 14.4451C39.6115 14.4451 39.4886 14.3632 39.4886 14.0765C39.527 12.1716 39.4861 10.2489 39.4861 8.36706Z" fill="white"/>
<path d="M93.7823 2.06358C93.73 2.20684 93.7159 2.36126 93.7414 2.51163V14.0149C93.7414 14.1378 93.8233 14.3427 93.6595 14.3836C93.4292 14.4246 93.1936 14.4246 92.9633 14.3836C92.8814 14.3836 92.9223 14.1788 92.9223 14.0969V0.670795C92.9223 0.34308 92.9633 0.220184 93.3319 0.220184C94.0997 0.261149 94.0997 0.220186 94.3941 0.957544C95.6226 4.47792 96.8921 8.03926 98.1181 11.5571L98.241 11.9258C98.3234 11.7919 98.3527 11.632 98.3229 11.4777V0.62983C98.3229 0.506936 98.241 0.302114 98.4048 0.26115C98.635 0.220096 98.8707 0.220096 99.101 0.26115C99.1829 0.26115 99.1419 0.425007 99.1419 0.517177V13.9842C99.1419 14.271 99.06 14.3939 98.7733 14.3529C98.1181 14.3119 98.1181 14.3529 97.9134 13.7384C96.6055 9.9313 95.254 6.12418 93.9461 2.31961C93.8642 2.30937 93.8233 2.18648 93.7823 2.06358Z" fill="white"/>
<path d="M74.5916 7.37865V14.0098C74.5916 14.3375 74.5506 14.4604 74.1821 14.4194C73.6907 14.3784 73.1583 14.4194 72.6285 14.4194C72.4237 14.4194 72.3418 14.3375 72.3418 14.1326V0.721935C72.3418 0.39422 72.4237 0.271326 72.7513 0.31229C73.2547 0.35327 73.7606 0.35327 74.264 0.31229C74.5199 0.31229 74.5916 0.394218 74.5916 0.640005V7.37865Z" fill="white"/>
<path d="M62.4803 7.3785V14.0506C62.4803 14.3783 62.3984 14.4602 62.0707 14.4192C61.6221 14.3783 61.1706 14.3783 60.7219 14.4192C60.3533 14.4602 60.2305 14.3373 60.2305 13.9277V0.614253C60.2305 0.286538 60.3124 0.204609 60.64 0.245573C61.116 0.286538 61.5947 0.286538 62.0707 0.245573C62.3984 0.245573 62.4803 0.327503 62.4803 0.655218V7.3785Z" fill="white"/>
<path d="M36.1306 7.34305V14.097C36.1306 14.3838 36.0896 14.4657 35.803 14.4657C35.2987 14.4247 34.792 14.4247 34.2878 14.4657C34.0036 14.4657 33.8808 14.3838 33.9217 14.097V0.670976C33.9217 0.414949 33.9627 0.343262 34.2468 0.343262C34.751 0.384245 35.2578 0.384245 35.762 0.343262C36.0896 0.343262 36.1715 0.425188 36.1715 0.752903C36.0896 2.88049 36.1306 5.13353 36.1306 7.34305Z" fill="white"/>
<path d="M100.248 7.3787V0.670784C100.248 0.343069 100.327 0.261139 100.655 0.261139C102.252 0.261139 103.846 0.302103 105.444 0.261139C105.853 0.261139 105.771 0.465963 105.771 0.711749C105.771 0.916571 105.853 1.16236 105.444 1.16236C104.133 1.12139 102.825 1.16236 101.515 1.16236C101.228 1.16236 101.187 1.24428 101.187 1.49007V6.4826C101.187 6.76935 101.228 6.85128 101.515 6.85128H104.699C105.067 6.85128 105.026 7.0561 105.026 7.26092C105.026 7.46575 105.149 7.7525 104.699 7.71154C103.634 7.67057 102.572 7.71154 101.507 7.71154C101.22 7.71154 101.18 7.79346 101.18 8.08021V13.2366C101.18 13.5234 101.22 13.6462 101.548 13.6462H105.354C105.723 13.6462 105.764 13.7691 105.764 14.0969C105.764 14.3836 105.723 14.5065 105.354 14.5065C103.757 14.4655 102.162 14.5065 100.565 14.5065C100.279 14.5065 100.199 14.4246 100.199 14.1788C100.248 11.8438 100.248 9.6343 100.248 7.3787Z" fill="white"/>
<path d="M110.64 7.79355V14.056C110.64 14.3427 110.599 14.5066 110.271 14.4247H109.903C109.739 14.4247 109.647 14.3837 109.698 14.2198V1.53113C109.698 1.20341 109.616 1.12148 109.291 1.12148C108.595 1.16245 107.858 1.12148 107.162 1.12148C106.906 1.12148 106.834 1.08052 106.834 0.793768C106.834 0.261231 106.834 0.26123 107.366 0.26123H113.146C113.596 0.26123 113.473 0.517257 113.514 0.752802C113.555 1.03955 113.473 1.16245 113.146 1.16245C112.409 1.12148 111.715 1.16245 110.978 1.16245C110.691 1.16245 110.65 1.24438 110.65 1.49016L110.64 7.79355Z" fill="white"/>
<path d="M90.1411 13.5643C90.1617 13.4148 90.1617 13.2632 90.1411 13.1137C90.0592 12.745 90.264 12.7041 90.5916 12.6631C91.0011 12.6631 91.124 12.745 91.083 13.1547C91.0625 13.4957 91.0625 13.8377 91.083 14.1788C91.083 14.3836 91.0421 14.4655 90.8271 14.4655C90.1718 14.5065 90.1718 14.5065 90.1718 13.8511C90.1443 13.7581 90.1339 13.661 90.1411 13.5643Z" fill="white"/>
<path d="M73.7292 21.4601C73.893 20.3156 74.0978 19.1686 74.2616 17.9807C74.2616 17.8578 74.2616 17.6939 74.4664 17.7247C74.6711 17.7247 74.6302 17.8885 74.6711 18.0114C74.8349 19.0765 74.9987 20.1825 75.1625 21.245C75.1553 21.2995 75.1629 21.3548 75.1845 21.4053C75.2061 21.4558 75.241 21.4995 75.2854 21.5318C75.4901 20.3464 75.654 19.1994 75.8587 18.0524V17.8885C75.8587 17.7656 75.8997 17.6837 76.0635 17.6837C76.1863 17.7247 76.1454 17.8066 76.1454 17.8885C76.0635 18.462 75.9816 19.0355 75.8587 19.609L75.4901 21.9414C75.4492 22.0643 75.4901 22.2282 75.2854 22.2282C75.0294 22.2282 75.0294 22.0643 75.0294 21.9005C74.8656 20.8354 74.7018 19.7729 74.4971 18.6259C74.3665 19.044 74.2706 19.4721 74.2104 19.906C74.0875 20.5589 74.0056 21.2553 73.8828 21.9107C73.8418 22.0336 73.8828 22.2384 73.6268 22.2384C73.3402 22.2384 73.3709 22.0746 73.3402 21.9107C73.138 20.6306 72.9332 19.3325 72.7285 18.0703C72.7285 17.9474 72.6875 17.8655 72.6875 17.7426C72.6875 17.7016 72.7694 17.6606 72.8104 17.6606C72.9742 17.6606 72.9742 17.8245 72.9742 17.9167C73.138 18.8998 73.2992 19.9239 73.463 20.9045C73.504 21.0684 73.504 21.2322 73.5449 21.3961C73.5825 21.4259 73.6075 21.4688 73.6151 21.5161C73.6227 21.5635 73.6123 21.612 73.5859 21.6521C73.6499 21.6675 73.6499 21.5446 73.7292 21.4601Z" fill="white"/>
<path d="M100.248 21.3808V17.8195C100.246 17.803 100.247 17.7862 100.252 17.7703C100.257 17.7544 100.266 17.7399 100.278 17.728C100.289 17.7161 100.304 17.707 100.32 17.7016C100.335 17.6961 100.352 17.6944 100.369 17.6966C100.385 17.694 100.402 17.6954 100.419 17.7006C100.435 17.7058 100.449 17.7148 100.461 17.7268C100.473 17.7388 100.482 17.7534 100.488 17.7695C100.493 17.7856 100.494 17.8028 100.491 17.8195V21.9159C100.491 22.0388 100.614 22.2027 100.369 22.2437C100.123 22.2846 100.113 22.1208 100.085 21.9569C99.675 20.7689 99.2655 19.6245 98.8048 18.4365C98.8048 18.5185 98.7638 18.6004 98.7638 18.7233V21.9569C98.7638 22.0798 98.8457 22.2437 98.641 22.2437C98.4362 22.2437 98.5181 22.0388 98.5181 21.9569V18.0243C98.5181 17.9014 98.4362 17.7376 98.6819 17.6966C98.8867 17.6966 98.9379 17.8195 99.0096 17.9834C99.3781 19.0484 99.7774 20.1545 100.156 21.217C100.197 21.258 100.197 21.3399 100.238 21.3808H100.248Z" fill="white"/>
<path d="M83.1011 18.475V22.2002C83.0993 22.2322 83.0858 22.2624 83.0631 22.2851C83.0404 22.3078 83.0103 22.3213 82.9783 22.3231C82.9615 22.3258 82.9444 22.3244 82.9283 22.3191C82.9122 22.3139 82.8976 22.3049 82.8856 22.2929C82.8736 22.281 82.8646 22.2663 82.8594 22.2502C82.8542 22.2341 82.8528 22.217 82.8554 22.2002V18.1883C82.8554 18.0244 82.6916 17.7787 83.0192 17.6967C83.3059 17.6558 83.3059 17.9015 83.3878 18.0654C83.7563 19.0895 84.1249 20.1546 84.4935 21.1761C84.5344 21.2171 84.5344 21.299 84.6163 21.34V17.8606C84.6163 17.7787 84.6163 17.6558 84.7392 17.6558C84.862 17.6558 84.862 17.7787 84.862 17.8606V22.0364C84.862 22.1183 84.862 22.2002 84.7392 22.2412C84.675 22.2463 84.611 22.2285 84.5586 22.191C84.5061 22.1536 84.4686 22.0988 84.4525 22.0364C84.1659 21.2171 83.8792 20.4413 83.5925 19.6221C83.4697 19.2124 83.3059 18.854 83.183 18.4341C83.1617 18.4574 83.1325 18.472 83.1011 18.475Z" fill="white"/>
<path d="M55.3192 21.4216V17.8603C55.3166 17.8436 55.318 17.8264 55.3232 17.8103C55.3285 17.7942 55.3374 17.7796 55.3494 17.7676C55.3614 17.7556 55.376 17.7466 55.3921 17.7414C55.4082 17.7361 55.4253 17.7348 55.4421 17.7374C55.5649 17.7374 55.5649 17.7784 55.5649 17.8603V21.8722C55.5649 21.9951 55.6878 22.2409 55.4421 22.2819C55.158 22.3638 55.158 22.0771 55.117 21.9132L54.0216 18.7206C53.9909 18.6362 53.9333 18.5642 53.8578 18.5157V21.7494C53.8578 21.9132 54.0216 22.2819 53.7349 22.2819C53.4482 22.2819 53.5711 21.9132 53.5711 21.7494V18.0651C53.5711 17.9422 53.4892 17.7784 53.7349 17.7374C53.9397 17.6964 54.0216 17.8193 54.0625 17.9934C54.4311 19.0585 54.7997 20.1236 55.2092 21.1861C55.2048 21.2316 55.2127 21.2775 55.2321 21.3189C55.2514 21.3603 55.2815 21.3958 55.3192 21.4216Z" fill="white"/>
<path d="M87.3581 18.8436C87.3172 17.9834 86.9896 17.7376 86.1296 17.7376H85.6791C85.3925 17.6966 85.3105 17.7785 85.3105 18.0653V19.9906C85.3105 20.4412 85.3105 20.8893 85.3515 21.3399C85.3515 22.323 85.3515 22.323 86.3343 22.2821C86.9077 22.2411 87.2353 21.9953 87.3172 21.3808C87.413 20.5384 87.4267 19.6887 87.3581 18.8436ZM87.0715 21.176C87.0736 21.3314 87.0357 21.4847 86.9613 21.6211C86.8869 21.7576 86.7786 21.8725 86.6469 21.9549C86.5152 22.0372 86.3645 22.0842 86.2093 22.0913C86.0541 22.0984 85.8997 22.0653 85.761 21.9953C85.6382 21.9543 85.6791 21.8315 85.6791 21.7086C85.6382 21.176 85.6382 20.6025 85.6382 19.9906V18.2701C85.6382 18.0141 85.7201 17.9834 85.9658 17.9834C86.8258 17.9834 87.0715 18.1882 87.0715 19.0484V21.176Z" fill="white"/>
<path d="M97.9142 20.0317V21.9955C97.9142 22.1184 97.9961 22.2822 97.7504 22.2822C97.5047 22.2822 97.5866 22.1184 97.5866 21.9955V20.4363C97.5866 20.1802 97.5047 20.1495 97.2999 20.1495C96.9339 20.1905 96.4834 19.9857 96.2377 20.2314C96.0329 20.4363 96.1968 20.8843 96.1558 21.2556V22.0748C96.1558 22.1568 96.1968 22.2797 96.0329 22.3309C95.8691 22.3309 95.8691 22.2489 95.8691 22.1261V17.9835C95.8691 17.8606 95.8691 17.7787 96.0329 17.7787C96.2377 17.7787 96.1968 17.9426 96.1968 18.0347V19.5914C96.1968 19.8474 96.2787 19.9191 96.5244 19.8781C96.8929 19.8372 97.3408 20.001 97.5482 19.7962C97.8041 19.5914 97.5891 19.1408 97.6301 18.7721V17.9528C97.6301 17.8709 97.5891 17.748 97.7529 17.6968C97.9577 17.6968 97.9167 17.8197 97.9167 17.9528L97.9142 20.0317Z" fill="white"/>
<path d="M64.0351 22.0772C63.9806 21.7112 63.9668 21.3402 63.9941 20.9712C64.0118 20.784 63.9644 20.5965 63.86 20.4403C63.7555 20.2841 63.6004 20.1686 63.4208 20.1135C63.5586 20.0531 63.6815 19.9631 63.7806 19.8498C63.8797 19.7365 63.9526 19.6027 63.9941 19.458C64.076 18.2701 64.076 17.5737 62.6017 17.6966H62.3458C62.182 17.6966 62.0898 17.7375 62.0898 17.9526V22.049C62.0898 22.1719 62.0898 22.3051 62.2537 22.3051C62.4175 22.2641 62.3765 22.1412 62.3765 22.049V20.5334C62.3765 20.413 62.3356 20.2773 62.5403 20.2492C63.3594 20.1672 63.687 20.454 63.687 21.2298V21.6394C63.6802 21.8043 63.694 21.9694 63.7279 22.131C63.7283 22.1611 63.7361 22.1907 63.7507 22.2171C63.7653 22.2435 63.7863 22.2658 63.8117 22.282C63.8371 22.2983 63.8661 22.308 63.8962 22.3102C63.9262 22.3124 63.9564 22.3072 63.9839 22.2948C64.1579 22.2411 64.0351 22.1591 64.0351 22.0772ZM62.4379 19.9906C62.356 19.9496 62.356 19.8677 62.356 19.7858V18.9665C62.3766 18.7622 62.3766 18.5563 62.356 18.352C62.3151 18.0243 62.4789 17.9424 62.7656 17.9833C63.0932 18.0243 63.4617 17.9424 63.5846 18.352C63.6793 18.5732 63.7247 18.8124 63.7176 19.0529C63.7106 19.2935 63.6512 19.5296 63.5436 19.7448C63.4208 19.9496 62.6017 20.1135 62.4379 19.9906Z" fill="white"/>
<path d="M30.9853 22.0772C30.9308 21.7112 30.917 21.3403 30.9443 20.9712C30.9674 20.7888 30.9271 20.6041 30.8301 20.448C30.7332 20.2918 30.5856 20.1737 30.412 20.1135C30.8624 19.8268 30.9443 19.6629 30.9443 19.2533C30.9643 18.9976 30.9643 18.7408 30.9443 18.4852C30.9325 18.2764 30.8409 18.0803 30.6884 17.9373C30.5359 17.7943 30.3343 17.7154 30.1253 17.7171H29.2653C29.1015 17.7171 29.0605 17.799 29.0605 17.9731V22.0696C29.0605 22.1925 29.0605 22.3256 29.2244 22.3256C29.3882 22.2846 29.3472 22.1617 29.3472 22.0696V20.5539C29.3472 20.4335 29.3063 20.2979 29.511 20.2697C30.2789 20.1878 30.6577 20.4745 30.6577 21.2503V21.8238C30.651 21.9481 30.6648 22.0726 30.6986 22.1925C30.7028 22.2202 30.7136 22.2464 30.7302 22.269C30.7469 22.2915 30.7688 22.3097 30.794 22.3218C30.8193 22.3339 30.8471 22.3397 30.8751 22.3385C30.9031 22.3374 30.9304 22.3295 30.9546 22.3153C31.0979 22.2411 30.9853 22.1592 30.9853 22.0772ZM29.3882 19.9906C29.3063 19.9497 29.3472 19.8677 29.3472 19.7858V18.9665C29.3266 18.8307 29.3266 18.6926 29.3472 18.5569C29.3882 18.352 29.1834 18.0653 29.511 18.0243C30.0024 17.9424 30.4939 18.0653 30.5758 18.393C30.6986 18.7934 30.6986 19.2215 30.5758 19.6219C30.4734 19.9087 29.5827 20.1954 29.3779 19.9906H29.3882Z" fill="white"/>
<path d="M50.6941 22.0773C50.6396 21.725 50.6258 21.3676 50.6531 21.0122C50.6773 20.819 50.6333 20.6235 50.5286 20.4594C50.4239 20.2953 50.2651 20.1729 50.0798 20.1135C50.3665 19.9497 50.5712 19.7858 50.6122 19.4991C50.735 18.3111 50.735 17.5737 49.2608 17.7069H48.9767C48.8128 17.7069 48.7207 17.7478 48.7207 17.9629V22.0593C48.7207 22.2232 48.7207 22.3154 48.8845 22.3154C49.0483 22.2744 49.0074 22.1515 49.0074 22.0593V20.5462C49.0074 20.3414 49.0893 20.2595 49.2915 20.2595C50.1515 20.2595 50.3562 20.4643 50.3562 21.2836C50.3494 21.5709 50.3631 21.8584 50.3972 22.1438C50.3972 22.3077 50.52 22.3486 50.6531 22.3077C50.8195 22.2411 50.6941 22.1592 50.6941 22.0773ZM49.1814 19.9906C49.0586 19.9497 49.0995 19.8677 49.0995 19.7858C49.0654 19.5141 49.0518 19.2403 49.0586 18.9665V18.3879C49.0176 18.0602 49.1405 17.9783 49.4655 17.9783C50.2027 18.0192 50.4074 18.1831 50.4074 18.9204V19.2072C50.4042 19.3507 50.3657 19.4912 50.2954 19.6163C50.2251 19.7415 50.1251 19.8474 50.0042 19.9248C49.8834 20.0022 49.7454 20.0487 49.6023 20.0601C49.4593 20.0716 49.3156 20.0478 49.184 19.9906H49.1814Z" fill="white"/>
<path d="M48.241 22.0362C48.1866 21.6977 48.1728 21.3538 48.2001 21.0121C48.2001 20.6024 48.0772 20.2773 47.6677 20.1134C47.9262 19.9033 48.1126 19.6175 48.2007 19.2961C48.2888 18.9748 48.2743 18.6339 48.1591 18.3212C47.9032 17.7477 47.3913 17.7887 46.8794 17.7887H46.5108C46.3061 17.7477 46.2549 17.8706 46.2549 18.0447V22.0976C46.2549 22.1795 46.2165 22.3536 46.4187 22.3536C46.6209 22.3536 46.5825 22.2308 46.5825 22.0976V20.5819C46.5825 20.4616 46.5415 20.3797 46.6644 20.2977C47.1149 20.0417 47.852 20.4206 47.8929 20.9506V21.4601C47.8929 21.6649 47.9339 21.8698 47.9339 22.0746C47.9339 22.2384 48.0158 22.3306 48.1898 22.2794C48.4048 22.241 48.241 22.1181 48.241 22.0362ZM46.6439 19.988C46.562 19.947 46.562 19.8651 46.562 19.7831C46.5961 19.5114 46.6097 19.2376 46.6029 18.9638C46.5823 18.8281 46.5823 18.69 46.6029 18.5542C46.6439 18.3494 46.3982 18.0626 46.7668 17.9807C47.381 17.8988 47.7496 18.0626 47.8725 18.4723C47.9544 18.8087 47.9544 19.1599 47.8725 19.4964C47.7906 19.8676 47.0125 20.1953 46.6439 19.9905V19.988Z" fill="white"/>
<path d="M108.43 20.0726V21.3809C108.471 21.8315 108.717 22.0772 109.086 22.0772C109.172 22.0783 109.257 22.062 109.337 22.0294C109.417 21.9968 109.49 21.9485 109.55 21.8874C109.611 21.8263 109.659 21.7536 109.692 21.6737C109.724 21.5937 109.74 21.5081 109.738 21.4218V20.8483C109.738 20.5616 109.82 20.1545 109.29 20.2774C109.209 20.2774 109.127 20.2364 109.127 20.1545C109.127 20.0726 109.168 20.0316 109.29 20.0316H109.818C109.941 20.0316 109.982 20.1135 109.982 20.2364C110.009 20.7138 109.996 21.1926 109.941 21.6676C109.909 21.8877 109.793 22.0871 109.618 22.2244C109.444 22.3617 109.223 22.4263 109.001 22.405C108.793 22.42 108.587 22.3582 108.421 22.2313C108.256 22.1044 108.142 21.9211 108.103 21.7162C107.98 21.3476 108.062 20.9789 108.062 20.5692V18.8513C108.062 18.2368 108.39 17.8682 108.881 17.7862C109.053 17.7581 109.229 17.7743 109.393 17.8333C109.557 17.8923 109.703 17.9921 109.817 18.1234C109.932 18.2546 110.011 18.4129 110.047 18.5833C110.084 18.7537 110.076 18.9305 110.025 19.0971C110.025 19.179 109.984 19.2609 109.902 19.2609C109.88 19.2629 109.858 19.26 109.837 19.2525C109.816 19.2449 109.798 19.2329 109.782 19.2173C109.766 19.2017 109.754 19.1828 109.747 19.162C109.739 19.1413 109.736 19.1191 109.738 19.0971V18.7694C109.697 18.3188 109.452 18.073 109.045 18.073C108.676 18.073 108.43 18.329 108.39 18.7694C108.39 19.1304 108.43 19.581 108.43 20.0726Z" fill="white"/>
<path d="M43.8627 19.7039V18.0653C43.8627 17.9424 43.7399 17.6966 43.9856 17.6966C44.2723 17.6966 44.1494 17.9526 44.1494 18.0653V21.1376C44.1285 21.3746 44.2021 21.6102 44.3542 21.793C44.4411 21.886 44.5536 21.9512 44.6775 21.9803C44.8014 22.0095 44.9311 22.0013 45.0504 21.9569C45.1793 21.9129 45.2916 21.8304 45.3722 21.7205C45.4527 21.6106 45.4976 21.4787 45.5008 21.3424C45.5349 20.9483 45.5485 20.5526 45.5418 20.157V17.945C45.5418 17.8221 45.4599 17.6582 45.7056 17.6582C45.9103 17.6582 45.8284 17.863 45.8284 17.945V20.9738C45.8212 21.1538 45.7938 21.3324 45.7465 21.5063C45.7125 21.7072 45.6063 21.8887 45.448 22.0169C45.2897 22.1451 45.0901 22.2112 44.8865 22.2027C44.3951 22.2027 44.0675 21.9979 43.9446 21.5473C43.7399 20.9712 43.9037 20.2774 43.8627 19.7039Z" fill="white"/>
<path d="M107.529 18.6799C107.536 18.5611 107.52 18.4419 107.48 18.3295C107.441 18.2172 107.379 18.1139 107.299 18.026C107.218 17.938 107.121 17.8672 107.013 17.8177C106.905 17.7681 106.788 17.741 106.669 17.7378C106.057 17.6968 105.645 17.9426 105.606 18.557C105.524 19.5239 105.524 20.496 105.606 21.463C105.647 22.0774 106.057 22.3642 106.669 22.3232C107.201 22.3232 107.569 21.9545 107.569 21.3401V20.0318C107.569 19.5402 107.569 19.0896 107.529 18.6799ZM107.273 21.2991C107.283 21.3967 107.271 21.4954 107.237 21.5875C107.203 21.6795 107.148 21.7625 107.076 21.8299C107.005 21.8973 106.919 21.9473 106.825 21.976C106.731 22.0048 106.632 22.0114 106.535 21.9955C106.128 21.9955 105.924 21.7087 105.883 21.2581V18.6799C105.924 18.1884 106.139 17.9426 106.535 17.9426C106.632 17.9322 106.73 17.9428 106.822 17.9737C106.915 18.0046 106.999 18.0551 107.07 18.1217C107.141 18.1883 107.197 18.2695 107.234 18.3597C107.27 18.4498 107.287 18.5468 107.283 18.6441C107.324 19.5402 107.324 20.4363 107.283 21.2991H107.273Z" fill="white"/>
<path d="M102.088 17.6968C101.473 17.6558 101.064 17.9835 101.023 18.598C100.982 19.5402 100.982 20.479 101.023 21.4143C101.064 22.0697 101.473 22.3565 102.088 22.3155C102.215 22.3105 102.34 22.2796 102.455 22.2248C102.57 22.1699 102.673 22.0923 102.757 21.9965C102.842 21.9008 102.906 21.7889 102.945 21.6677C102.985 21.5465 103 21.4185 102.989 21.2914V18.7209C102.948 18.1064 102.62 17.7378 102.088 17.6968ZM102.702 21.2172C102.661 21.7497 102.415 22.0364 102.006 22.0364C101.555 22.0364 101.31 21.7497 101.31 21.2172V18.6799C101.299 18.5908 101.307 18.5005 101.333 18.4145C101.359 18.3285 101.401 18.2486 101.459 18.1797C101.516 18.1108 101.587 18.0542 101.667 18.0134C101.747 17.9727 101.834 17.9486 101.924 17.9426C102.014 17.9241 102.107 17.9262 102.197 17.9487C102.286 17.9712 102.369 18.0135 102.44 18.0726C102.511 18.1316 102.567 18.2057 102.606 18.2896C102.644 18.3735 102.663 18.4649 102.661 18.557C102.702 19.0486 102.661 19.5402 102.702 20.0318V21.2172Z" fill="white"/>
<path d="M40.9152 18.6799C40.9228 18.5613 40.9065 18.4423 40.8672 18.3301C40.8279 18.2179 40.7664 18.1148 40.6864 18.0269C40.6063 17.939 40.5095 17.8681 40.4015 17.8184C40.2935 17.7687 40.1766 17.7413 40.0578 17.7378C39.4435 17.6968 39.034 17.9426 38.9931 18.557C38.9112 19.5239 38.9112 20.496 38.9931 21.463C39.034 22.0774 39.4435 22.3642 40.0578 22.3232C40.5876 22.3232 40.9562 21.9545 40.9562 21.3401V20.0318C40.9664 19.5402 40.9664 19.0896 40.9152 18.6799ZM40.6593 21.2991C40.6696 21.3965 40.6573 21.4949 40.6234 21.5867C40.5895 21.6786 40.5349 21.7614 40.4639 21.8287C40.3929 21.8961 40.3073 21.9461 40.2138 21.9751C40.1203 22.004 40.0214 22.011 39.9247 21.9955C39.5152 21.9955 39.3104 21.7087 39.2695 21.2581C39.2285 20.8485 39.2695 20.4414 39.2695 19.978V18.6671C39.3104 18.1756 39.5254 17.9298 39.9247 17.9298C40.0201 17.921 40.1163 17.9326 40.2068 17.964C40.2974 17.9953 40.3802 18.0456 40.4497 18.1115C40.5192 18.1775 40.5739 18.2575 40.61 18.3462C40.6462 18.435 40.663 18.5304 40.6593 18.6262C40.7105 19.5402 40.7105 20.4363 40.6695 21.2991H40.6593Z" fill="white"/>
<path d="M82.2443 21.9953C81.9576 20.6435 81.671 19.3352 81.3843 18.0243C81.3433 17.9014 81.3843 17.6966 81.0976 17.6966C80.8417 17.6966 80.8417 17.8605 80.811 18.0243C80.5243 19.3761 80.2376 20.6844 79.951 21.9953C79.91 22.0772 79.7872 22.2513 79.9919 22.282C80.1557 22.364 80.1557 22.2001 80.1967 22.0772C80.4014 21.3091 80.4014 21.3091 81.2205 21.3091H81.4764C81.7324 21.2682 81.845 21.3501 81.886 21.5959C81.9269 21.8007 81.9679 21.9646 82.0088 22.1694C82.0498 22.2923 82.0907 22.2923 82.2136 22.2923C82.2929 22.2923 82.3339 22.2513 82.2929 22.0875C82.3236 22.0772 82.2827 22.0363 82.2443 21.9953ZM81.5891 21.0121H80.4424C80.6472 20.0725 80.8519 19.1303 81.0567 18.2291H81.1386C81.3433 19.0894 81.5481 19.9906 81.7529 20.8483C81.7938 21.0121 81.7119 21.0121 81.5891 21.0121Z" fill="white"/>
<path d="M26.596 20.1545V18.7207C26.637 18.1063 26.9236 17.7376 27.4151 17.6966C27.5906 17.6809 27.7672 17.709 27.9292 17.7786C28.0911 17.8482 28.2332 17.9569 28.3426 18.0951C28.452 18.2332 28.5254 18.3965 28.556 18.5701C28.5867 18.7436 28.5737 18.9221 28.5182 19.0894C28.4772 19.1714 28.4772 19.2123 28.3544 19.2123C28.2725 19.2123 28.2315 19.1714 28.2315 19.0485C28.2379 18.8837 28.225 18.7187 28.1931 18.5569C28.1937 18.4779 28.1779 18.3996 28.1467 18.3271C28.1155 18.2545 28.0696 18.1892 28.0118 18.1353C27.9541 18.0814 27.8858 18.04 27.8113 18.0139C27.7368 17.9878 27.6576 17.9774 27.5789 17.9834C27.4108 17.9684 27.2435 18.0201 27.1133 18.1274C26.983 18.2347 26.9002 18.389 26.8827 18.5569C26.8008 19.5375 26.8008 20.5232 26.8827 21.5038C26.8865 21.585 26.9067 21.6646 26.942 21.7379C26.9774 21.8111 27.0271 21.8764 27.0883 21.93C27.1495 21.9835 27.2208 22.0242 27.2981 22.0495C27.3753 22.0748 27.4569 22.0842 27.5379 22.0773C27.6189 22.0842 27.7005 22.0748 27.7777 22.0495C27.855 22.0242 27.9264 21.9835 27.9875 21.93C28.0487 21.8764 28.0985 21.8111 28.1338 21.7379C28.1691 21.6646 28.1893 21.585 28.1931 21.5038C28.2315 21.2989 28.1931 21.0941 28.2315 20.8893C28.2315 20.8074 28.2725 20.6845 28.3953 20.7254C28.5182 20.7254 28.5182 20.8074 28.5182 20.9303C28.5316 21.2059 28.504 21.482 28.4363 21.7496C28.3912 21.9491 28.2753 22.1255 28.1101 22.246C27.9449 22.3665 27.7416 22.423 27.5379 22.405C27.3329 22.4289 27.1264 22.3748 26.9594 22.2533C26.7925 22.1319 26.6774 21.952 26.637 21.7496C26.5141 21.1351 26.6344 20.5616 26.596 20.1545Z" fill="white"/>
<path d="M41.4069 20.1545C41.4069 19.581 41.3659 19.1304 41.4069 18.7208C41.4478 17.9834 41.8573 17.6148 42.5535 17.7376C43.0859 17.8196 43.5773 18.6798 43.3214 19.1714C43.2804 19.2533 43.2395 19.2533 43.1601 19.2533C43.1434 19.2559 43.1263 19.2546 43.1102 19.2493C43.0941 19.2441 43.0794 19.2351 43.0675 19.2231C43.0555 19.2111 43.0465 19.1965 43.0413 19.1804C43.036 19.1643 43.0346 19.1472 43.0373 19.1304V18.644C43.0387 18.5575 43.0226 18.4717 42.9902 18.3915C42.9578 18.3114 42.9096 18.2386 42.8484 18.1774C42.7873 18.1163 42.7145 18.0681 42.6344 18.0356C42.5543 18.0032 42.4685 17.9872 42.382 17.9885C42.2957 17.9819 42.209 17.9927 42.1269 18.0202C42.0448 18.0477 41.9691 18.0914 41.9042 18.1487C41.8393 18.206 41.7865 18.2757 41.749 18.3537C41.7115 18.4318 41.6901 18.5165 41.6859 18.603C41.6449 19.5452 41.6449 20.5283 41.6859 21.468C41.6919 21.6362 41.7641 21.7952 41.8869 21.9103C42.0096 22.0254 42.1729 22.0873 42.3411 22.0824C42.4273 22.0911 42.5144 22.0815 42.5966 22.054C42.6787 22.0265 42.7541 21.9819 42.8178 21.9231C42.8814 21.8642 42.9319 21.7926 42.9657 21.7128C42.9996 21.633 43.0161 21.5469 43.0142 21.4603C43.0552 21.2555 43.0142 21.0506 43.0552 20.8458C43.0552 20.7639 43.0552 20.682 43.178 20.682C43.3009 20.682 43.3393 20.7229 43.3393 20.8458C43.3527 21.1621 43.3252 21.4788 43.2574 21.788C43.0961 22.1976 42.8095 22.3615 42.3181 22.3615C42.1206 22.3706 41.9262 22.3099 41.769 22.1901C41.6118 22.0702 41.5017 21.8989 41.4581 21.7061C41.325 21.0942 41.4478 20.5616 41.4069 20.1545Z" fill="white"/>
<path d="M56.3836 19.9907V21.34C56.4245 21.7906 56.6702 22.0364 57.0798 22.0364C57.4483 22.0364 57.694 21.7804 57.735 21.34V20.8484C57.735 20.7665 57.735 20.6436 57.8578 20.6436C57.8798 20.6416 57.902 20.6445 57.9228 20.6521C57.9435 20.6596 57.9624 20.6716 57.978 20.6872C57.9936 20.7029 58.0056 20.7217 58.0132 20.7425C58.0207 20.7633 58.0236 20.7854 58.0216 20.8075C58.035 21.0966 58.0074 21.3863 57.9397 21.6677C57.887 21.8688 57.7614 22.0432 57.5873 22.1567C57.4132 22.2703 57.2031 22.315 56.9978 22.2822C56.795 22.2946 56.5941 22.2359 56.4297 22.1163C56.2653 21.9967 56.1476 21.8236 56.0969 21.6267C56.0292 21.3592 56.0016 21.0831 56.015 20.8075V18.7208C56.015 18.0244 56.3836 17.6558 56.9569 17.6558C57.123 17.6619 57.2855 17.7054 57.4324 17.7832C57.5792 17.8609 57.7066 17.9709 57.8051 18.1048C57.9035 18.2387 57.9705 18.3932 58.0009 18.5566C58.0313 18.72 58.0244 18.8882 57.9807 19.0486C57.9397 19.1305 57.8988 19.1714 57.8578 19.1714C57.7759 19.1714 57.694 19.1305 57.694 19.0486V18.557C57.6954 18.4705 57.6794 18.3847 57.647 18.3045C57.6145 18.2244 57.5663 18.1516 57.5052 18.0904C57.4441 18.0293 57.3713 17.9811 57.2912 17.9486C57.211 17.9162 57.1252 17.9002 57.0388 17.9015C56.954 17.8922 56.8681 17.9014 56.7872 17.9284C56.7062 17.9554 56.6321 17.9996 56.5698 18.058C56.5076 18.1163 56.4587 18.1875 56.4265 18.2666C56.3944 18.3456 56.3797 18.4307 56.3836 18.516C56.3426 19.0486 56.3836 19.5401 56.3836 19.9907Z" fill="white"/>
<path d="M93.5361 20.1543V18.7206C93.5771 18.0242 93.9456 17.6555 94.5983 17.6964C95.251 17.7374 95.704 18.5567 95.4583 19.1302C95.4173 19.2121 95.3764 19.2121 95.2945 19.2121C95.2126 19.2121 95.1716 19.1302 95.1716 19.0483C95.1784 18.8833 95.1646 18.7182 95.1307 18.5567C95.1312 18.4777 95.1154 18.3994 95.0842 18.3269C95.053 18.2543 95.0071 18.189 94.9494 18.1351C94.8916 18.0812 94.8233 18.0398 94.7488 18.0137C94.6743 17.9876 94.5951 17.9772 94.5164 17.9832C94.3487 17.9689 94.1821 18.0209 94.0524 18.1282C93.9227 18.2354 93.8403 18.3893 93.8228 18.5567C93.7409 19.5373 93.7409 20.523 93.8228 21.5036C93.8266 21.5846 93.8467 21.664 93.8819 21.737C93.9171 21.8101 93.9666 21.8753 94.0275 21.9288C94.0884 21.9823 94.1594 22.023 94.2364 22.0485C94.3133 22.074 94.3946 22.0837 94.4754 22.0771C94.6375 22.0843 94.796 22.0287 94.9181 21.9219C95.0402 21.815 95.1163 21.6652 95.1307 21.5036C95.1647 21.3006 95.1784 21.0948 95.1716 20.8891C95.1716 20.7662 95.1716 20.6843 95.3354 20.6843C95.4583 20.6843 95.4583 20.7662 95.4583 20.8891C95.4717 21.1647 95.4441 21.4409 95.3764 21.7084C95.3308 21.9081 95.2144 22.0846 95.0487 22.2051C94.8831 22.3256 94.6794 22.382 94.4754 22.3638C94.2707 22.3877 94.0645 22.3335 93.898 22.212C93.7315 22.0905 93.6169 21.9107 93.5771 21.7084C93.5042 21.1936 93.4904 20.6722 93.5361 20.1543Z" fill="white"/>
<path d="M34.4911 17.6966C34.2351 17.7375 34.166 17.7785 34.166 18.0243V20.0315C34.166 20.7254 34.166 21.3808 34.207 22.0362C34.207 22.1591 34.207 22.2923 34.3682 22.2923C34.532 22.2513 34.4911 22.1284 34.4911 22.0362C34.5116 21.6405 34.5116 21.244 34.4911 20.8483C34.4501 20.4412 34.573 20.3593 34.9415 20.3593C35.8015 20.4002 36.0882 20.1032 36.0882 19.2532C36.0882 17.8604 35.8834 17.6556 34.4911 17.6966ZM35.8015 19.2123C35.8015 19.9803 35.392 20.3183 34.6139 20.1544C34.4501 20.1135 34.4501 20.0315 34.4501 19.8984V19.0382C34.4706 18.8202 34.4706 18.6007 34.4501 18.3827C34.4092 18.014 34.573 17.9321 34.9006 17.9731C35.5968 18.014 35.7606 18.1779 35.8015 18.8743V19.2123Z" fill="white"/>
<path d="M68.0039 21.7497C68.2905 20.5207 68.5362 19.2944 68.8229 18.0654C68.8176 18.0077 68.8321 17.95 68.8639 17.9016C68.8639 17.7787 68.9458 17.6967 69.0686 17.7377C69.2324 17.7787 69.1505 17.9016 69.1505 17.9937C68.8946 19.0998 68.7001 20.1648 68.4543 21.2683C68.4134 21.5243 68.3315 21.7599 68.2905 22.0364C68.2496 22.2003 68.2086 22.3232 68.0039 22.3232C67.7991 22.3232 67.7479 22.2003 67.7172 22.0671C67.4306 20.7153 67.1464 19.366 66.8598 18.0552C66.8188 17.9732 66.7369 17.7992 66.9417 17.7684C67.1055 17.7684 67.1055 17.8913 67.1464 18.0245C67.4305 19.3046 67.6763 20.5617 67.9629 21.8316C67.9629 21.7497 67.9629 21.7497 68.0039 21.7497Z" fill="white"/>
<path d="M77.5371 22.323C77.3855 22.3248 77.2354 22.2919 77.0984 22.227C76.9613 22.1621 76.8408 22.0668 76.7461 21.9483C76.6513 21.8299 76.5848 21.6914 76.5516 21.5433C76.5184 21.3953 76.5193 21.2417 76.5543 21.0941C76.5953 21.0121 76.5953 20.9712 76.7181 20.9712C76.841 20.9712 76.841 21.0531 76.841 21.135C76.8323 21.2864 76.8461 21.4383 76.8819 21.5856C76.9181 21.7227 76.9973 21.8444 77.1079 21.9329C77.2185 22.0214 77.3546 22.072 77.4962 22.0772C77.6419 22.097 77.7897 22.0619 77.9108 21.9786C78.032 21.8952 78.1178 21.7698 78.1514 21.6266C78.2408 21.4174 78.2527 21.1833 78.1852 20.9661C78.1177 20.7489 77.975 20.5628 77.7829 20.4412C77.5269 20.2364 77.2505 20.0316 77.015 19.7858C76.8391 19.6281 76.7085 19.4263 76.6365 19.2013C76.5645 18.9763 76.5538 18.7362 76.6055 18.5056C76.7283 17.9321 77.056 17.6864 77.6702 17.7376C78.1617 17.7785 78.4381 18.1062 78.4893 18.6388C78.4893 18.7617 78.5712 18.9255 78.3664 18.9255C78.1617 18.9255 78.2436 18.7617 78.2026 18.6695C78.1207 18.1779 77.875 17.9321 77.4655 17.9731C76.9741 18.0141 76.7283 18.6285 76.9331 19.1611C77.0359 19.3851 77.1903 19.5816 77.3836 19.7346C77.6395 19.9394 77.875 20.1032 78.0798 20.3081C78.272 20.4949 78.4026 20.736 78.4538 20.9992C78.5051 21.2624 78.4746 21.5349 78.3664 21.7802C78.3068 21.9491 78.1934 22.0938 78.0435 22.1919C77.8937 22.2899 77.7157 22.336 77.5371 22.323Z" fill="white"/>
<path d="M91.2461 19.9906V18.0653C91.2461 17.8093 91.3254 17.7376 91.5712 17.7376H92.7997C92.8816 17.7376 93.0557 17.6966 93.0557 17.8605C93.0557 18.0243 92.9328 17.9834 92.7997 17.9834H91.8578C91.6019 17.9834 91.5302 18.0243 91.5302 18.2701C91.5711 18.7207 91.5302 19.1713 91.5302 19.6219C91.5302 19.7858 91.5712 19.878 91.735 19.878H92.554C92.6359 19.878 92.7588 19.878 92.7588 20.0009C92.7588 20.1238 92.6769 20.1238 92.554 20.1238H91.8169C91.6121 20.1238 91.4892 20.1647 91.5302 20.4105V21.8007C91.5302 22.0056 91.6121 22.0875 91.8169 22.0568H92.7997C92.8816 22.0568 93.0557 22.0158 93.0557 22.1797C93.0557 22.3435 92.9328 22.3025 92.8509 22.3025H91.5404C91.2845 22.3025 91.2563 22.2206 91.2563 22.0158L91.2461 19.9906Z" fill="white"/>
<path d="M51.2695 19.9907V18.0654C51.2695 17.8094 51.3105 17.6967 51.5971 17.7377C52.0067 17.7787 52.4546 17.7377 52.8769 17.7377C52.9588 17.7377 53.1328 17.7377 53.0816 17.9016C53.0816 18.0245 52.9588 18.0245 52.8769 18.0245H51.8531C51.6893 18.0245 51.5971 18.0654 51.5971 18.2805V19.6682C51.5971 19.873 51.679 19.9242 51.8531 19.9242H52.5877C52.6696 19.9242 52.8436 19.8832 52.8436 20.0471C52.8436 20.2519 52.6798 20.2109 52.5877 20.2109H51.894C51.6893 20.2109 51.6074 20.2519 51.6074 20.467V21.8572C51.6074 22.1132 51.6893 22.1439 51.894 22.1439H52.8743C52.9972 22.1439 53.0791 22.1439 53.0791 22.3078C53.0791 22.4307 52.9562 22.4307 52.8743 22.4307H51.5664C51.3617 22.4307 51.2798 22.3897 51.2798 22.1439L51.2695 19.9907Z" fill="white"/>
<path d="M70.4177 19.9904V18.0242C70.4177 17.7681 70.4996 17.6964 70.7453 17.6964H72.0251C72.107 17.6964 72.281 17.6555 72.2298 17.8193C72.2298 17.9422 72.107 17.9422 72.0251 17.9422H71.0422C70.8375 17.9422 70.7146 17.9832 70.7556 18.229V19.5808C70.7556 19.7856 70.7965 19.8368 71.0115 19.8368H71.8305C71.9124 19.8368 71.9943 19.8368 71.9943 19.9597C71.9963 19.9817 71.9934 20.0039 71.9859 20.0247C71.9783 20.0454 71.9663 20.0643 71.9507 20.0799C71.9351 20.0956 71.9162 20.1076 71.8955 20.1151C71.8747 20.1227 71.8525 20.1255 71.8305 20.1236H71.0627C70.8579 20.1236 70.776 20.1645 70.776 20.3796V21.8108C70.776 22.0156 70.8579 22.0668 71.032 22.0668H72.0558C72.1786 22.0668 72.2605 22.0668 72.2605 22.2307C72.2605 22.3536 72.1377 22.3536 72.0558 22.3536H70.6583C70.4535 22.3536 70.4023 22.2717 70.4023 22.0668L70.4177 19.9904Z" fill="white"/>
<path d="M65.4658 17.7375H66.0801C66.162 17.7375 66.336 17.6965 66.336 17.8604C66.336 18.0242 66.1722 17.9832 66.0801 17.9832H65.0972C64.8925 17.9832 64.8106 18.0652 64.8413 18.27V19.6218C64.8413 19.8266 64.9232 19.8779 65.1279 19.8779H65.8651C65.947 19.8779 66.121 19.8369 66.0698 20.0007C66.0698 20.1236 65.947 20.1236 65.8651 20.1236H65.0972C64.8925 20.1236 64.8413 20.1646 64.8413 20.3797V21.8109C64.8413 22.0157 64.9232 22.0669 65.0972 22.0669H66.0801C66.2029 22.0669 66.336 22.0259 66.336 22.2307C66.336 22.3946 66.1722 22.3536 66.0801 22.3536H64.7696C64.5649 22.3536 64.5137 22.2717 64.5137 22.0669V18.0652C64.5137 17.8091 64.5956 17.7375 64.8413 17.7375H65.4658Z" fill="white"/>
<path d="M32.5704 20.1137C32.8571 19.3456 33.1028 18.639 33.3383 17.9836C33.3792 17.8607 33.3792 17.6968 33.5942 17.7275C33.799 17.8095 33.6352 17.9324 33.5942 18.0552C33.4962 18.3918 33.373 18.7204 33.2256 19.0384C32.806 19.9466 32.6229 20.9463 32.6933 21.9443C32.6933 22.0672 32.8161 22.272 32.5295 22.272C32.2735 22.272 32.3657 22.0672 32.3657 21.9443C32.5704 20.5925 31.9561 19.448 31.5466 18.2191C31.5057 18.1372 31.4647 18.0143 31.4238 17.9324C31.3828 17.8504 31.3419 17.7685 31.4647 17.7275C31.4859 17.7159 31.5097 17.71 31.5339 17.7105C31.5581 17.7109 31.5817 17.7177 31.6024 17.7302C31.6231 17.7426 31.6402 17.7602 31.652 17.7813C31.6637 17.8024 31.6698 17.8263 31.6695 17.8504C31.7514 18.1065 31.8333 18.301 31.9254 18.5468C32.1899 19.0474 32.4059 19.572 32.5704 20.1137Z" fill="white"/>
<path d="M111.499 20.1135C111.755 19.4171 111.991 18.7617 112.195 18.1472C112.236 18.0653 112.277 17.9424 112.316 17.8605C112.354 17.7785 112.397 17.6966 112.52 17.7376C112.643 17.7785 112.602 17.9014 112.561 17.9936C112.438 18.3213 112.305 18.69 112.195 19.0177C111.752 19.9477 111.569 20.9798 111.663 22.0056C111.663 22.1284 111.745 22.3333 111.499 22.3333C111.253 22.3333 111.335 22.1284 111.335 22.0465C111.54 20.7357 110.967 19.5503 110.567 18.3623C110.529 18.2988 110.502 18.2297 110.486 18.1575C110.486 18.0346 110.281 17.8707 110.486 17.7888C110.69 17.7069 110.69 17.9117 110.741 18.0755C110.967 18.6798 111.212 19.3352 111.499 20.1135Z" fill="white"/>
<path d="M59.4527 20.1135C59.7394 19.3454 59.9851 18.6797 60.2206 17.9833C60.2615 17.8604 60.2615 17.6966 60.4765 17.7273C60.6813 17.8092 60.5175 17.9321 60.5175 18.055C60.4195 18.3915 60.2963 18.7202 60.1489 19.0382C59.7293 19.9464 59.5462 20.946 59.6165 21.9441C59.6165 22.067 59.7394 22.2718 59.4527 22.2718C59.1968 22.2718 59.2889 22.067 59.2889 21.9441C59.4937 20.6332 58.9203 19.4478 58.4699 18.2598C58.4289 18.1779 58.388 18.055 58.347 17.9731C58.3061 17.8912 58.2267 17.7683 58.388 17.7171C58.5492 17.6659 58.5927 17.758 58.6439 17.8809C58.7216 18.1333 58.8174 18.3797 58.9306 18.6183C59.1364 19.105 59.3108 19.6044 59.4527 20.1135Z" fill="white"/>
<path d="M37.3144 20.1133V18.3518C37.3144 18.0241 37.1941 17.9422 36.9074 17.9832C36.7436 17.9832 36.416 18.1061 36.416 17.8603C36.416 17.6554 36.7027 17.7374 36.8665 17.7374H38.2972C38.3791 17.7374 38.5532 17.7374 38.502 17.9012C38.502 18.0241 38.3791 18.0241 38.2972 18.0241C38.0925 18.0241 37.8058 17.9422 37.642 18.0651C37.4782 18.2289 37.6011 18.5567 37.6011 18.8024V22.0361C37.6011 22.159 37.683 22.3228 37.4782 22.3638C37.2351 22.3638 37.3144 22.1999 37.3144 22.077V20.1133Z" fill="white"/>
<path d="M89.649 20.1135V18.3879C89.649 18.0602 89.5671 17.9373 89.2395 17.9782C89.0757 17.9782 88.748 18.1421 88.748 17.8553C88.748 17.6505 89.0347 17.7734 89.1985 17.7325H90.5909C90.6728 17.7325 90.8468 17.6915 90.8468 17.8553C90.8468 18.0192 90.724 17.9782 90.6421 17.9782C89.9459 18.0602 89.9459 18.0602 89.9459 18.7463V21.9799C89.9459 22.1028 90.0278 22.2667 89.823 22.2667C89.5671 22.2667 89.6592 22.0619 89.6592 21.939L89.649 20.1135Z" fill="white"/>
<path d="M103.478 19.9906V18.0243C103.478 17.9014 103.437 17.7376 103.642 17.7376C103.847 17.7376 103.806 17.9014 103.806 18.0243C103.806 19.2123 103.847 20.4003 103.806 21.5857C103.806 21.9543 103.928 22.0363 104.256 21.9953C104.488 21.9748 104.721 21.9748 104.952 21.9953C105.075 21.9953 105.208 21.9543 105.239 22.1182C105.239 22.323 105.075 22.2411 104.983 22.2411H103.795C103.539 22.2411 103.509 22.1592 103.509 21.9543C103.478 21.3399 103.478 20.6435 103.478 19.9906Z" fill="white"/>
<path d="M69.6342 20.0318V18.0245C69.6342 17.9016 69.5523 17.7378 69.798 17.7378C70.0437 17.7378 69.9618 17.9016 69.9618 18.0245V22.0365C69.9618 22.1184 70.0437 22.2925 69.839 22.2925C69.6342 22.2925 69.6751 22.1287 69.6751 22.0058C69.6342 21.3401 69.6342 20.6923 69.6342 20.0318Z" fill="white"/>
<path d="M73.7285 21.4602C73.7448 21.5238 73.7459 21.5903 73.7317 21.6543C73.7174 21.7184 73.6883 21.7782 73.6466 21.8289C73.5952 21.7278 73.5807 21.6118 73.6057 21.5012C73.649 21.4961 73.6908 21.4822 73.7285 21.4602Z" fill="white"/>
<path d="M16.1628 12.5402C17.5117 13.3083 17.7984 14.3324 17.4298 15.6125C17.0203 17.0873 16.04 17.863 14.5657 17.945C14.0175 17.9873 13.466 17.9459 12.9302 17.8221C12.6026 17.7401 12.4388 17.7811 12.3978 18.1498C12.3159 18.6823 12.1419 19.1739 12.0293 19.7064C11.9883 19.9624 11.9064 20.0341 11.6197 19.9624C11.2921 19.8396 10.8007 19.9215 10.6369 19.6347C10.4731 19.3787 10.7598 18.9793 10.8007 18.6106C10.8826 18.2829 10.9645 17.9552 11.0567 17.6684C11.0976 17.4662 11.0567 17.3842 10.8519 17.3433C10.0354 17.0873 10.0354 17.0873 9.8281 17.9142C9.70836 18.3352 9.61264 18.7626 9.54143 19.1944C9.50047 19.3992 9.41857 19.4504 9.25476 19.3582H9.21382C8.84525 19.2763 8.35383 19.2763 8.19002 19.0305C7.98526 18.8257 8.27193 18.3751 8.35383 18.0064C8.41466 17.7004 8.50026 17.3999 8.60978 17.1077C8.69169 16.8517 8.60979 16.78 8.40503 16.7391C7.66789 16.5752 6.93332 16.3704 6.19618 16.2065C5.99142 16.1656 5.94023 16.0836 6.03237 15.8788L6.52379 14.7728C6.60569 14.568 6.72855 14.568 6.89236 14.6089C7.1428 14.6867 7.39981 14.7416 7.66021 14.7728C7.72757 14.7946 7.79899 14.801 7.86915 14.7914C7.93931 14.7818 8.00641 14.7564 8.06544 14.7173C8.12447 14.6782 8.17392 14.6263 8.21011 14.5654C8.24631 14.5045 8.26831 14.4362 8.27449 14.3657C8.76591 12.3584 9.29828 10.3537 9.78971 8.34904C9.81671 8.26029 9.82529 8.16695 9.81493 8.07475C9.80458 7.98255 9.77552 7.89344 9.7295 7.81289C9.68348 7.73234 9.6215 7.66204 9.54735 7.6063C9.4732 7.55057 9.38844 7.51058 9.29829 7.48879C9.02909 7.40608 8.75569 7.33771 8.47925 7.28397C8.2233 7.24301 8.19259 7.12012 8.27449 6.91529C8.39735 6.54661 8.35639 6.01408 8.6021 5.80925C8.84781 5.60443 9.33923 5.93215 9.7078 6.01408C10.1583 6.096 10.5652 6.2189 11.0157 6.34179C11.2716 6.38276 11.3433 6.38276 11.4252 6.08576C11.5481 5.51482 11.7119 4.94132 11.8347 4.36782C11.8757 4.163 11.9576 4.11179 12.1624 4.163C12.5309 4.28589 13.0223 4.24493 13.2245 4.49071C13.3883 4.74674 13.1042 5.18711 13.0223 5.51482C12.9559 5.81943 12.8704 6.11957 12.7664 6.41348C12.7254 6.57734 12.7664 6.6183 12.9302 6.70023C13.7876 6.98698 13.7876 6.98698 13.9924 6.12673C14.0743 5.71709 14.1971 5.35865 14.279 4.94132C14.32 4.7365 14.4019 4.68529 14.5657 4.77746C14.9343 4.90036 15.4257 4.85939 15.6305 5.10518C15.8352 5.35096 15.5076 5.79901 15.4667 6.12929C15.3848 6.49797 15.139 6.94858 15.2107 7.27629C15.2926 7.56304 15.8659 7.60401 16.1936 7.76786C16.3958 7.89076 16.6005 7.97269 16.7643 8.09558C17.6243 8.66652 18.0441 9.44484 17.911 10.469C17.7881 11.4521 17.2967 12.1869 16.3138 12.5172C16.2624 12.5079 16.2092 12.516 16.1628 12.5402Z" fill="#FEFEFE"/>
<path d="M12.8493 15.9375C12.1131 15.8805 11.3853 15.7431 10.6789 15.5279C10.5151 15.4869 10.4229 15.405 10.5151 15.2411C10.7198 14.3834 10.9246 13.5232 11.1703 12.7039C11.2113 12.581 11.2113 12.4478 11.4262 12.499C12.2862 12.7039 13.1872 12.9087 13.9627 13.4003C14.4132 13.687 14.7817 14.0967 14.7305 14.6676C14.7222 14.989 14.597 15.2963 14.3784 15.532C14.1597 15.7676 13.8627 15.9154 13.5429 15.9477L12.8493 15.9375Z" fill="#0099FD"/>
<path d="M13.6251 11.3958C12.9989 11.3771 12.3789 11.2667 11.7848 11.0681C11.58 11.0271 11.5801 10.9452 11.621 10.7404C11.8258 9.97229 11.9896 9.22469 12.1943 8.44893C12.2353 8.32603 12.2762 8.24411 12.4503 8.28507C13.2181 8.48989 14.0448 8.61023 14.7001 9.14276C14.8765 9.27125 15.0126 9.44743 15.0924 9.65061C15.1722 9.85379 15.1924 10.0755 15.1505 10.2898C15.1228 10.5027 15.0362 10.7037 14.9006 10.8701C14.765 11.0365 14.5856 11.1619 14.3827 11.2319C14.1598 11.3801 13.8892 11.4386 13.6251 11.3958Z" fill="#0099FD"/>
</g>
<defs>
<clipPath id="clip0_1_1100">
<rect width="113.514" height="24" fill="white"/>
</clipPath>
</defs>
</svg>
