<svg width="100" height="24" viewBox="0 0 100 24" fill="none" xmlns="http://www.w3.org/2000/svg">
<g clip-path="url(#clip0_1_1095)">
<path d="M14.4918 17.4635L10.3254 19.3212V19.1354C9.52202 19.3463 8.63209 19.4679 7.78918 19.507C3.8709 19.4679 0.760821 17.3648 0.724627 14.8622V13.9332C2.01157 15.8524 4.63134 17.1383 7.78918 17.0919C8.85746 17.1383 9.95037 16.9649 10.8687 16.7203L11.231 15.7912C10.1418 16.1245 8.95299 16.3564 7.78918 16.3486C3.8709 16.3564 0.760821 14.2533 0.724627 11.7043V10.961C2.01157 12.7351 4.62575 14.0214 7.78918 13.9335C9.21231 14.0214 10.6041 13.7145 11.7743 13.1903L11.9556 12.2613C10.8123 12.8799 9.3306 13.2391 7.78918 13.1903C3.8709 13.2391 0.760821 11.136 0.724627 8.54593V7.80271C2.01157 9.61819 4.63134 10.9041 7.78918 10.961C9.58396 10.9041 11.2854 10.4175 12.6802 9.66039L12.8616 8.54555C11.5955 9.50787 9.74739 10.128 7.78918 10.2178C3.8709 10.128 0.761194 8.02452 0.724627 5.38761C0.760821 2.87961 3.8709 0.776516 7.78918 0.743226C10.125 0.776516 12.2944 1.61652 13.5862 2.97252L13.7119 3.18735L14.6254 3.19123L14.4918 2.97252C13.2071 1.18181 10.6377 0 7.78918 0C3.45373 0 0 2.45071 0 5.38761V15.048C0.152239 17.9148 3.52724 20.2498 7.78918 20.2498C10.6041 20.2498 13.134 19.1145 14.4918 17.4635Z" fill="white"/>
<path d="M12.7968 24L14.2595 17.6249L10.0546 19.5L12.6143 8.43754H7.67773L8.95759 2.99999H24.68L23.4001 8.43754H18.2815L17.1845 11.4375L22.8516 8.99999L12.7968 24ZM15.3565 16.3122L14.6251 20.0624L20.658 10.6877L15.7218 12.9379L17.9158 7.68773H22.8516L23.7658 3.75018H9.50609L8.59191 7.68773H13.5281L11.1512 18.1877L15.3565 16.313V16.3122ZM35.5113 6.59109C35.468 7.21276 35.2468 7.70205 34.8475 8.05973C34.4483 8.41702 33.9221 8.59547 33.2692 8.59547C32.5553 8.59547 31.993 8.34618 31.5841 7.84722C31.1748 7.34864 30.9699 6.66386 30.9699 5.79328V5.43986C30.9699 4.88438 31.0643 4.3947 31.2531 3.97122C31.4419 3.54812 31.7117 3.22296 32.0621 2.99689C32.4128 2.77044 32.8203 2.65741 33.2848 2.65741C33.9274 2.65741 34.4453 2.83625 34.8382 3.19354C35.2307 3.55044 35.4576 4.05212 35.5192 4.6978H34.3714C34.3434 4.32464 34.243 4.05405 34.071 3.88605C33.8986 3.71805 33.6367 3.63405 33.2848 3.63405C32.902 3.63405 32.6158 3.77612 32.4259 4.06064C32.2356 4.34515 32.1382 4.78644 32.133 5.38451V5.82115C32.133 6.44554 32.2244 6.90193 32.4065 7.19031C32.5893 7.4787 32.8766 7.62309 33.2695 7.62309C33.624 7.62309 33.8886 7.53909 34.0632 7.37109C34.2382 7.20309 34.3382 6.94296 34.3636 6.59109H35.5113ZM41.4382 5.75767C41.4382 6.3267 41.3412 6.82528 41.1471 7.2538C40.9535 7.6827 40.6762 8.01328 40.315 8.24631C39.9542 8.47896 39.5404 8.59547 39.0736 8.59547C38.6121 8.59547 38.2001 8.48051 37.8378 8.25018C37.4759 8.01986 37.1949 7.69122 36.996 7.26386C36.7971 6.83651 36.6964 6.34489 36.6938 5.78902V5.50335C36.6938 4.93431 36.7927 4.4338 36.9904 4.00141C37.1882 3.56864 37.4673 3.23651 37.8285 3.00464C38.1893 2.77315 38.602 2.65741 39.0662 2.65741C39.5303 2.65741 39.943 2.77354 40.3039 3.00464C40.6647 3.23651 40.9442 3.56864 41.1415 4.00102C41.3393 4.4338 41.4382 4.93315 41.4382 5.49947V5.75767ZM40.2751 5.4956C40.2751 4.88941 40.1706 4.42915 39.9617 4.11405C39.7524 3.79935 39.4539 3.6418 39.0662 3.6418C38.6807 3.6418 38.3837 3.79741 38.1744 4.10825C37.9654 4.41909 37.8595 4.8747 37.8572 5.47586V5.75767C37.8572 6.3476 37.9617 6.80554 38.1706 7.1307C38.3796 7.45625 38.6807 7.61922 39.0736 7.61922C39.4587 7.61922 39.7546 7.46244 39.9617 7.14889C40.168 6.83535 40.2725 6.37818 40.2751 5.77741V5.4956ZM44.0893 8.51612H42.9415V2.73676H44.0893V8.51612ZM50.2803 8.51612H49.1322L46.8979 4.71367V8.51612H45.7501V2.73676H46.8979L49.1363 6.54734V2.73676H50.2803V8.51612ZM55.9624 3.70141H54.2561V8.51612H53.1083V3.70141H51.4248V2.73676H55.9624V3.70141ZM60.5654 6.0116H58.3617V7.5596H60.9479V8.51612H57.2136V2.73676H60.9404V3.70141H58.3617V5.0787H60.5654V6.0116ZM63.3662 7.5596H65.8035V8.51612H62.2184V2.73676H63.3662V7.55999V7.5596ZM70.4102 6.01122H68.2065V7.5596H70.7927V8.51612H67.0587V2.73676H70.7852V3.70141H68.2065V5.0787H70.4102V6.01122ZM76.471 7.78567C76.2643 8.04231 75.9721 8.24167 75.5945 8.38296C75.2173 8.52464 74.799 8.59586 74.3397 8.59586C73.8576 8.59586 73.4348 8.48631 73.0714 8.26799C72.708 8.04967 72.4274 7.73302 72.2296 7.31728C72.0318 6.90193 71.9307 6.4138 71.9255 5.85289V5.4596C71.9255 4.88283 72.0192 4.38347 72.2068 3.96154C72.3942 3.5396 72.6647 3.21638 73.0177 2.99302C73.371 2.76928 73.7848 2.65741 74.2595 2.65741C74.9199 2.65741 75.4367 2.82076 75.8091 3.14786C76.1815 3.47457 76.402 3.95031 76.471 4.5747H75.3535C75.3027 4.24373 75.1897 4.0018 75.0151 3.84812C74.8404 3.69483 74.5998 3.61818 74.2938 3.61818C73.9035 3.61818 73.6065 3.77031 73.402 4.07457C73.1983 4.37883 73.0949 4.83135 73.0923 5.43212V5.80102C73.0923 6.40722 73.2035 6.86476 73.4251 7.17444C73.6471 7.48412 73.9725 7.63896 74.4009 7.63896C74.8318 7.63896 75.1397 7.54373 75.3229 7.35328V6.35689H74.2785V5.47973H76.471V7.78567ZM80.0598 6.40064H79.1456V8.51612H77.9975V2.73676H80.0677C80.7255 2.73676 81.2333 2.88889 81.5901 3.19354C81.9475 3.4978 82.1259 3.92747 82.1259 4.48335C82.1259 4.8778 82.0438 5.20644 81.8792 5.46967C81.7147 5.73289 81.4651 5.9427 81.1311 6.0987L82.3363 8.46038V8.51612H81.1042L80.0598 6.40064ZM79.1456 5.43599H80.071C80.3595 5.43599 80.5826 5.35973 80.7408 5.2076C80.899 5.05547 80.9781 4.84605 80.9781 4.57857C80.9781 4.30605 80.9035 4.0916 80.7542 3.9356C80.605 3.7796 80.3762 3.70141 80.0677 3.70141H79.1453L79.1456 5.43599ZM86.7404 7.32502H84.7277L84.3453 8.51612H83.1247L85.1986 2.73676H86.2621L88.3471 8.51612H87.127L86.7404 7.32502ZM85.0378 6.36115H86.4304L85.7303 4.19728L85.0378 6.36115ZM90.6124 6.47999V8.51612H89.4647V2.73676H91.6378C92.0561 2.73676 92.424 2.81612 92.7415 2.97522C93.0595 3.13393 93.3035 3.35922 93.4744 3.65186C93.6453 3.94412 93.7307 4.27702 93.7307 4.65018C93.7307 5.21651 93.5442 5.66283 93.1703 5.98954C92.7964 6.31664 92.2792 6.47999 91.6188 6.47999H90.6124ZM90.6124 5.51535H91.6378C91.9415 5.51535 92.1729 5.44141 92.3322 5.29315C92.4919 5.14489 92.5714 4.93315 92.5714 4.65831C92.5714 4.37496 92.4912 4.1458 92.3304 3.97122C92.1699 3.79702 91.9479 3.70683 91.6647 3.70141H90.6124V5.51535ZM99.6498 8.51612H98.502V6.03947H96.2639V8.51612H95.1158V2.73676H96.2639V5.0787H98.502V2.73676H99.6498V8.51612Z" fill="#FABF2C"/>
<path d="M34.1274 13.8697H32.8864V17.4193H32.2006V13.8697H30.9707V13.2913H34.1274V13.8697ZM35.4632 14.6864C35.68 14.4255 35.9543 14.2951 36.286 14.2951C36.9166 14.2951 37.236 14.6682 37.245 15.4149V17.4193H36.5812V15.4405C36.5812 15.2288 36.5371 15.0789 36.4487 14.9911C36.3603 14.9032 36.2304 14.8595 36.0591 14.8595C35.7931 14.8595 35.5946 14.9822 35.4632 15.2276V17.4193H34.7991V13.0645H35.4632V14.6864ZM39.4423 17.4759C39.0215 17.4759 38.6804 17.3384 38.4188 17.0636C38.1576 16.7888 38.0267 16.4222 38.0267 15.965V15.8799C38.0267 15.5737 38.0838 15.3 38.1976 15.0592C38.3028 14.8283 38.4691 14.6331 38.677 14.4964C38.8833 14.362 39.1224 14.2922 39.3659 14.2951C39.7685 14.2951 40.0797 14.4282 40.2991 14.6946C40.5185 14.9613 40.6285 15.3383 40.6285 15.826V16.104H38.6961C38.7162 16.3571 38.7979 16.5573 38.9409 16.7048C39.0838 16.8522 39.2636 16.9262 39.4804 16.9262C39.7849 16.9262 40.0326 16.7984 40.2241 16.5429L40.5823 16.8975C40.4636 17.0812 40.2997 17.2286 40.1076 17.3245C39.9099 17.4251 39.6882 17.4759 39.4423 17.4759ZM39.3632 14.8475C39.1808 14.8475 39.0338 14.914 38.9218 15.0464C38.8099 15.1784 38.7382 15.3627 38.7073 15.5992H39.9722V15.5481C39.958 15.3174 39.8987 15.1432 39.795 15.0251C39.6909 14.9071 39.5472 14.8475 39.3632 14.8475ZM43.2188 17.4193V14.8622H42.7677V14.3516H43.2188V14.0709C43.2188 13.7307 43.3099 13.4679 43.492 13.2828C43.6744 13.0974 43.9293 13.0049 44.2573 13.0049C44.3741 13.0049 44.4979 13.0219 44.6289 13.056L44.6125 13.5948C44.5287 13.5786 44.4436 13.571 44.3584 13.572C44.0412 13.572 43.883 13.7411 43.883 14.0795V14.3516H44.4838V14.8622H43.883V17.4193H43.2188ZM46.9845 17.1189C46.7897 17.357 46.5125 17.4759 46.1535 17.4759C45.833 17.4759 45.5901 17.3787 45.4256 17.184C45.2606 16.9893 45.1782 16.7079 45.1782 16.3389V14.3516H45.8423V16.3304C45.8423 16.7199 45.9979 16.9149 46.3095 16.9149C46.6319 16.9149 46.8498 16.7949 46.9625 16.5549V14.3516H47.6267V17.4193H47.0009L46.9845 17.1189ZM49.3591 13.606V14.3516H49.8815V14.8622H49.3591V16.5743C49.3591 16.6916 49.3815 16.7764 49.4263 16.8282C49.4711 16.8801 49.5506 16.906 49.6651 16.906C49.742 16.906 49.8192 16.8968 49.8976 16.8778V17.4108C49.7553 17.4529 49.6082 17.4748 49.4603 17.4759C48.9502 17.4759 48.6953 17.184 48.6953 16.5999V14.8618H48.2088V14.3516H48.695V13.6064H49.3591V13.606ZM52.4035 17.1189C52.2084 17.357 51.9315 17.4759 51.5726 17.4759C51.2517 17.4759 51.0091 17.3787 50.8442 17.184C50.6793 16.9893 50.5968 16.7079 50.5968 16.3389V14.3516H51.261V16.3304C51.261 16.7199 51.417 16.9149 51.7285 16.9149C52.0509 16.9149 52.2685 16.7949 52.3815 16.5549V14.3516H53.0457V17.4193H52.42L52.4035 17.1189ZM55.4942 14.981C55.4048 14.9658 55.3143 14.9583 55.2237 14.9586C54.9192 14.9586 54.7144 15.0793 54.6088 15.3213V17.4193H53.9446V14.3516H54.5789L54.595 14.6946C54.7554 14.4282 54.9778 14.2951 55.2617 14.2951C55.3565 14.2951 55.4349 14.3082 55.4968 14.3346L55.4942 14.981ZM57.3879 17.4759C56.967 17.4759 56.6259 17.3384 56.3644 17.0636C56.1032 16.7888 55.9722 16.4222 55.9722 15.965V15.8799C55.9722 15.5737 56.0293 15.3 56.1431 15.0592C56.2483 14.8283 56.4146 14.6331 56.6226 14.4964C56.8288 14.362 57.0679 14.2922 57.3114 14.2951C57.714 14.2951 58.0252 14.4282 58.2446 14.6946C58.464 14.9613 58.5741 15.3383 58.5741 15.826V16.104H56.6416C56.6617 16.3571 56.7435 16.5573 56.8864 16.7048C57.0293 16.8522 57.2091 16.9262 57.4259 16.9262C57.7304 16.9262 57.9782 16.7984 58.1696 16.5429L58.5278 16.8975C58.4091 17.0812 58.2452 17.2286 58.0532 17.3245C57.8554 17.4251 57.6338 17.4759 57.3879 17.4759ZM57.3088 14.8475C57.1263 14.8475 56.9793 14.914 56.8673 15.0464C56.7554 15.1784 56.6838 15.3627 56.6528 15.5992H57.9177V15.5481C57.9035 15.3174 57.8442 15.1432 57.7405 15.0251C57.6364 14.9071 57.4927 14.8475 57.3088 14.8475ZM60.8062 15.857C60.8062 15.5566 60.8636 15.286 60.9785 15.0449C61.0839 14.8145 61.252 14.6213 61.4621 14.489C61.67 14.3597 61.9084 14.2951 62.1785 14.2951C62.577 14.2951 62.9009 14.4282 63.1498 14.6946C63.3983 14.9613 63.533 15.3147 63.5528 15.7552L63.5558 15.9166C63.5558 16.2189 63.4998 16.4895 63.3879 16.7276C63.2834 16.957 63.1159 17.1493 62.9065 17.2804C62.6979 17.4108 62.4569 17.4759 62.1838 17.4759C61.7666 17.4759 61.4326 17.3319 61.1819 17.0439C60.9319 16.7555 60.8062 16.3711 60.8062 15.8911V15.857ZM61.4703 15.9166C61.4703 16.2325 61.5334 16.4795 61.6591 16.6579C61.7845 16.8368 61.9595 16.9262 62.1838 16.9262C62.4076 16.9262 62.5823 16.8352 62.7069 16.6537C62.8319 16.4725 62.8942 16.2069 62.8942 15.857C62.8942 15.5473 62.83 15.3015 62.7017 15.12C62.5729 14.9384 62.3987 14.8478 62.1782 14.8478C61.9617 14.8478 61.7894 14.9369 61.6617 15.1157C61.5341 15.2946 61.4703 15.5609 61.4703 15.9166ZM64.5752 17.4193V14.8622H64.1241V14.3516H64.5752V14.0709C64.5752 13.7307 64.6662 13.4679 64.8483 13.2828C65.0308 13.0974 65.2856 13.0049 65.6136 13.0049C65.7304 13.0049 65.8543 13.0219 65.9853 13.056L65.9688 13.5948C65.8852 13.5787 65.8002 13.571 65.7151 13.572C65.3979 13.572 65.2394 13.7411 65.2394 14.0795V14.3516H65.8405V14.8622H65.2394V17.4193H64.5752ZM68.7916 14.3516L68.8106 14.6721C69.0185 14.4205 69.3028 14.2951 69.6632 14.2951C70.0588 14.2951 70.3293 14.4519 70.4752 14.7658C70.6901 14.4519 70.9923 14.2951 71.3823 14.2951C71.7084 14.2951 71.9513 14.3884 72.1106 14.5757C72.27 14.7627 72.3517 15.0387 72.3554 15.4033V17.4193H71.6912V15.4235C71.6912 15.2288 71.6502 15.0859 71.5681 14.9953C71.486 14.9044 71.3506 14.8591 71.1614 14.8591C71.0099 14.8591 70.8864 14.9013 70.7909 14.9853C70.6935 15.072 70.6234 15.187 70.5897 15.3155L70.5927 17.4193H69.9285V15.4006C69.9192 15.0399 69.742 14.8591 69.3957 14.8591C69.1297 14.8591 68.9408 14.9713 68.83 15.1966V17.4193H68.1659V14.3516H68.7916ZM73.1367 15.8574C73.1367 15.5566 73.1942 15.286 73.3088 15.0449C73.4142 14.8145 73.5825 14.6212 73.7927 14.489C74.0002 14.3597 74.239 14.2951 74.5088 14.2951C74.9076 14.2951 75.2315 14.4282 75.48 14.6946C75.7289 14.9613 75.8632 15.3147 75.883 15.7552L75.886 15.9166C75.886 16.2189 75.83 16.4895 75.7181 16.7276C75.6136 16.957 75.4461 17.1493 75.2367 17.2804C75.0282 17.4108 74.7875 17.4759 74.514 17.4759C74.0968 17.4759 73.7629 17.3319 73.5125 17.0439C73.2621 16.7555 73.1367 16.3711 73.1367 15.8911V15.8574ZM73.8009 15.9166C73.8009 16.2325 73.8636 16.4795 73.9894 16.6579C74.1151 16.8368 74.2901 16.9262 74.514 16.9262C74.7379 16.9262 74.9125 16.8352 75.0375 16.6537C75.1621 16.4725 75.2248 16.2069 75.2248 15.857C75.2248 15.5473 75.1603 15.3015 75.0319 15.12C74.9035 14.9384 74.7289 14.8478 74.5088 14.8478C74.292 14.8478 74.1196 14.9369 73.992 15.1157C73.8647 15.2946 73.8009 15.5609 73.8009 15.9166ZM77.2879 14.3516L77.3069 14.7062C77.5256 14.4321 77.8125 14.2951 78.1677 14.2951C78.7834 14.2951 79.0968 14.6609 79.108 15.3921V17.4193H78.4438V15.432C78.4438 15.2373 78.4032 15.0929 78.3222 14.9996C78.2412 14.9059 78.1088 14.8591 77.9244 14.8591C77.6569 14.8591 77.4573 14.9849 77.3259 15.2361V17.4193H76.6617V14.3516H77.2879ZM81.3103 17.4759C80.8897 17.4759 80.5483 17.3384 80.2871 17.0636C80.0256 16.7888 79.895 16.4222 79.895 15.965V15.8799C79.895 15.5737 79.9517 15.3 80.0655 15.0592C80.1708 14.8282 80.3372 14.633 80.5453 14.4964C80.7514 14.3621 80.9904 14.2922 81.2338 14.2951C81.6367 14.2951 81.9476 14.4282 82.1673 14.6946C82.3867 14.9613 82.4964 15.3383 82.4964 15.826V16.104H80.5644C80.5845 16.3571 80.6658 16.5573 80.8088 16.7048C80.952 16.8522 81.1319 16.9262 81.3487 16.9262C81.6528 16.9262 81.9009 16.7984 82.092 16.5429L82.4502 16.8975C82.3316 17.0811 82.1679 17.2286 81.9759 17.3245C81.7782 17.4251 81.5565 17.4759 81.3103 17.4759ZM81.2311 14.8475C81.0491 14.8475 80.902 14.914 80.7897 15.0464C80.6778 15.1784 80.6062 15.3627 80.5752 15.5992H81.8405V15.5481C81.8259 15.3174 81.767 15.1432 81.6629 15.0251C81.5591 14.9071 81.4151 14.8475 81.2311 14.8475ZM84.2345 16.4326L84.8356 14.3516H85.5435L84.3681 17.8842C84.1879 18.4002 83.8819 18.6584 83.4502 18.6584C83.3418 18.6566 83.2342 18.6394 83.1304 18.6073V18.0743L83.2561 18.0828C83.4237 18.0828 83.5498 18.0511 83.6345 17.988C83.7192 17.9245 83.7864 17.818 83.8353 17.669L83.9312 17.405L82.8927 14.3516H83.6088L84.2345 16.4326Z" fill="white"/>
</g>
<defs>
<clipPath id="clip0_1_1095">
<rect width="100" height="24" fill="white"/>
</clipPath>
</defs>
</svg>
