<svg width="32" height="32" viewBox="0 0 32 32" fill="none" xmlns="http://www.w3.org/2000/svg">
<g clip-path="url(#clip0_1_944)">
<path fill-rule="evenodd" clip-rule="evenodd" d="M5.84547 2.16332L-0.000145046 14.429C-0.0123272 14.4803 -0.00995559 14.534 0.00670256 14.584C0.0233607 14.634 0.0536434 14.6784 0.094139 14.7121L15.8396 29.9027C15.8826 29.9276 15.9313 29.9407 15.981 29.9407C16.0307 29.9407 16.0794 29.9276 16.1224 29.9027L31.9621 14.7121C31.987 14.6691 32 14.6203 32 14.5706C32 14.5209 31.987 14.4721 31.9621 14.429L26.1165 2.16332C26.0682 2.10873 26.0006 2.07493 25.928 2.06897L6.03403 2.06897C5.96138 2.07493 5.89382 2.10873 5.84547 2.16332Z" fill="#50AF95"/>
<path fill-rule="evenodd" clip-rule="evenodd" d="M18.0092 15.7502C16.6593 15.8381 15.305 15.8381 13.955 15.7502C9.99509 15.5615 6.978 14.901 6.978 14.0519C6.978 13.2027 9.99509 12.4479 13.955 12.3535V14.9954C15.3049 15.0863 16.6594 15.0863 18.0092 14.9954V12.3535C22.0634 12.4479 24.9862 13.2027 24.9862 14.0519C24.9862 14.901 22.0634 15.5615 18.0092 15.7502ZM18.0092 12.0705V9.61733H23.572V5.84326H8.39226V9.61733H13.955V12.0705C9.42938 12.2592 6.03516 13.1083 6.03516 14.2406C6.03516 15.3728 9.42938 16.222 13.955 16.4107V24.2419H18.0092V16.4107C22.5349 16.222 25.9291 15.2784 25.9291 14.2406C25.9291 13.2027 22.5349 12.2592 18.0092 12.0705Z" fill="white"/>
</g>
<defs>
<clipPath id="clip0_1_944">
<rect width="32" height="32" fill="white"/>
</clipPath>
</defs>
</svg>
