<svg width="19" height="16" viewBox="0 0 19 16" fill="none" xmlns="http://www.w3.org/2000/svg">
<path d="M15.622 4.03175C15.5712 4.08889 15.5077 4.13333 15.4379 4.15873C15.368 4.19048 15.2919 4.20317 15.2157 4.20317H0.834716C0.32678 4.20317 0.0664622 3.56825 0.422018 3.1873L2.78392 0.679365C2.83472 0.622222 2.89821 0.577778 2.9744 0.546032C3.04424 0.514286 3.12043 0.501587 3.19662 0.501587H17.6347C18.149 0.501587 18.403 1.14286 18.0411 1.52381L15.622 4.03175ZM15.622 15.2444C15.5141 15.3524 15.368 15.4159 15.2157 15.4159H0.834716C0.32678 15.4159 0.0664622 14.7937 0.422018 14.4254L2.78392 11.9746C2.83472 11.9175 2.90456 11.873 2.9744 11.8476C3.04424 11.8159 3.12043 11.8032 3.19662 11.8032H17.6347C18.149 11.8032 18.403 12.4317 18.0411 12.8L15.622 15.2444ZM15.622 6.32381C15.5141 6.21587 15.368 6.15238 15.2157 6.15238H0.834716C0.32678 6.15238 0.0664622 6.7746 0.422018 7.14286L2.78392 9.59365C2.83472 9.65079 2.90456 9.69524 2.9744 9.72064C3.04424 9.75238 3.12043 9.76508 3.19662 9.76508H17.6347C18.149 9.76508 18.403 9.13651 18.0411 8.76826L15.622 6.32381Z" fill="url(#paint0_linear_1_1092)"/>
<defs>
<linearGradient id="paint0_linear_1_1092" x1="1.35561" y1="15.602" x2="17.0658" y2="0.306888" gradientUnits="userSpaceOnUse">
<stop stop-color="#CF41E8"/>
<stop offset="1" stop-color="#10F2B0"/>
</linearGradient>
</defs>
</svg>
