<svg width="32" height="32" viewBox="0 0 32 32" fill="none" xmlns="http://www.w3.org/2000/svg">
<g clip-path="url(#clip0_1_932)">
<path d="M31.521 19.8724C31.0125 21.9105 30.1076 23.8286 28.8578 25.517C27.6081 27.2055 26.0379 28.6313 24.2371 29.713C22.4363 30.7947 20.44 31.5111 18.3622 31.8214C16.2845 32.1317 14.166 32.0297 12.1276 31.5213C10.0893 31.013 8.17103 30.1081 6.48242 28.8585C4.7938 27.6088 3.36788 26.0389 2.28607 24.2382C1.20426 22.4375 0.487747 20.4414 0.177436 18.3639C-0.132876 16.2864 -0.0309053 14.168 0.477524 12.1299C1.50434 8.01368 4.12443 4.47392 7.76139 2.28932C11.3983 0.104715 15.7543 -0.545776 19.8709 0.480944C23.9875 1.50766 27.5276 4.12749 29.7124 7.76409C31.8972 11.4007 32.5478 15.7562 31.521 19.8724Z" fill="#F7931A"/>
<path d="M23.0585 13.7175C23.3714 11.5903 21.7524 10.4484 19.5389 9.68201L20.2585 6.79617L18.4986 6.35821L17.8025 9.16585L16.3946 8.83738L17.0986 6.0141L15.3466 5.57614L14.627 8.45416L13.5007 8.19608L13.5085 8.18826L11.0839 7.57824L10.6146 9.45521C10.6146 9.45521 11.9208 9.7524 11.8895 9.77586C12.6012 9.94792 12.7342 10.4172 12.7107 10.7926L11.8895 14.0773L12.0772 14.1398L11.8895 14.0929L10.7397 18.6915C10.6537 18.9105 10.4347 19.2389 9.93411 19.1138C9.94975 19.1373 8.65921 18.7931 8.65921 18.7931L7.7832 20.8031L10.0749 21.374L11.3263 21.6946L10.5989 24.6118L12.3509 25.0497L13.0705 22.1639L14.4706 22.5314L13.751 25.4016L15.5108 25.8396L16.2382 22.9225C19.226 23.4934 21.4786 23.2666 22.425 20.5528C23.1915 18.3786 22.3937 17.1195 20.8138 16.2983C21.9635 16.0324 22.8239 15.2816 23.0585 13.7175ZM19.0461 19.3484C18.4986 21.5226 14.8304 20.3495 13.6415 20.0523L14.6035 16.1888C15.7924 16.486 19.6093 17.0726 19.0461 19.3484ZM19.5858 13.6862C19.0931 15.6727 16.0349 14.6638 15.0494 14.4214L15.9175 10.9099C16.9109 11.1601 20.102 11.6216 19.5858 13.6862Z" fill="white"/>
</g>
<defs>
<clipPath id="clip0_1_932">
<rect width="32" height="32" fill="white"/>
</clipPath>
</defs>
</svg>
