<svg width="32" height="32" viewBox="0 0 32 32" fill="none" xmlns="http://www.w3.org/2000/svg">
<g clip-path="url(#clip0_1_951)">
<path d="M16 32C24.8366 32 32 24.8366 32 16C32 7.16344 24.8366 0 16 0C7.16344 0 0 7.16344 0 16C0 24.8366 7.16344 32 16 32Z" fill="#988430"/>
<path d="M15.9997 31.4882C24.5535 31.4882 31.4877 24.554 31.4877 16.0002C31.4877 7.44642 24.5535 0.512207 15.9997 0.512207C7.44593 0.512207 0.511719 7.44642 0.511719 16.0002C0.511719 24.554 7.44593 31.4882 15.9997 31.4882Z" fill="#7A6A2A"/>
<path d="M15.9999 31.1619C24.3737 31.1619 31.1619 24.3737 31.1619 15.9999C31.1619 7.62616 24.3737 0.837891 15.9999 0.837891C7.62616 0.837891 0.837891 7.62616 0.837891 15.9999C0.837891 24.3737 7.62616 31.1619 15.9999 31.1619Z" fill="#BA9F33"/>
<path fill-rule="evenodd" clip-rule="evenodd" d="M6.99844 14.2849L6.72537 14.0459L6.45231 13.7899L6.17924 13.5339L6.04271 13.4145L5.90617 13.295L4.84804 12.271L5.92324 13.2779L6.05977 13.3974L6.19631 13.5339L6.45231 13.7729C6.64183 13.9354 6.82405 14.1062 6.99844 14.2849ZM2.25391 14.2337C3.69808 14.4775 5.14944 14.6767 6.60591 14.831L2.25391 14.2337ZM2.25391 14.2337L3.34617 14.3531L3.89231 14.4043L4.16537 14.4385L4.43844 14.4726L5.53071 14.6433L6.05977 14.7457L6.60591 14.831L6.05977 14.7627L5.53071 14.6945L4.43844 14.5238L4.16537 14.4897L3.89231 14.4555L3.34617 14.3873C2.98777 14.3361 2.61231 14.3019 2.25391 14.2337ZM6.48644 15.1723L4.62617 15.6502L2.76591 16.2134L6.48644 15.1723Z" fill="#CFB66C"/>
<path fill-rule="evenodd" clip-rule="evenodd" d="M6.48472 15.1723L5.56312 15.4283L4.62445 15.6843L3.70285 15.9403L3.24205 16.0768L2.78125 16.1963L3.24205 16.0597L3.70285 15.9061L4.62445 15.6331L5.56312 15.3941L6.48472 15.1723ZM2.96898 17.0667L5.29005 15.9915C5.49485 15.8891 6.09218 15.6843 6.09218 15.6843L2.96898 17.0667Z" fill="#CFB66C"/>
<path fill-rule="evenodd" clip-rule="evenodd" d="M2.9707 17.0665L3.36324 16.8958L3.7387 16.7081L4.5067 16.3326L5.2747 15.9742L5.6843 15.8206L5.8891 15.7524L6.0939 15.7012L5.30884 16.0425C5.05284 16.179 4.79684 16.2814 4.52377 16.3838L3.7387 16.7252L2.9707 17.0665ZM3.14137 17.7833L5.2747 16.5374L6.5035 15.923L3.14137 17.7833Z" fill="#CFB66C"/>
<path fill-rule="evenodd" clip-rule="evenodd" d="M3.14062 17.7835L3.95983 17.2715L4.36943 17.0325L4.77903 16.7765L5.18863 16.5376C5.25968 16.4975 5.33388 16.4632 5.41049 16.4352L5.63236 16.3157C5.92249 16.1792 6.19556 16.0427 6.50276 15.9232C6.22969 16.0939 5.93956 16.2304 5.66649 16.384L5.23983 16.6229L4.83022 16.8448L4.40356 17.0837L3.99396 17.3227L3.14062 17.7835ZM6.48569 16.128L5.17156 17.1349L3.90863 18.0565L6.48569 16.128Z" fill="#CFB66C"/>
<path fill-rule="evenodd" clip-rule="evenodd" d="M12.1688 22.272L11.6738 21.2992L11.964 20.1045L14.0632 19.2853L13.1757 17.4592L13.6194 15.5989L14.4386 13.9264L17.0157 13.5339L18.893 11.7248L22.972 12.032L23.7741 16.4011L22.2381 21.8795L21.3506 24.7296L17.8008 24.8491L16.1453 23.7056L14.2168 22.9035L12.1688 22.272Z" fill="#E2CC85"/>
<path fill-rule="evenodd" clip-rule="evenodd" d="M18.4148 22.2381C18.4148 22.2381 17.9198 22.46 17.0836 22.4088C16.8446 22.0845 15.138 21.9309 15.138 21.9309C15.138 21.9309 14.9332 21.8626 14.5577 22.0162C14.1652 22.1698 13.8068 22.1528 13.4825 22.2381C13.1582 22.3234 12.8169 21.8797 12.5609 21.7944C12.3049 21.692 11.9636 21.4701 11.9636 21.4701L11.2468 21.4018L9.81316 20.7874L7.52623 18.5176L6.89476 19.4904L6.70703 20.685L7.40676 22.1186L9.26703 23.8082L12.8852 24.7298L15.0356 24.0984L17.7321 22.9549L18.4148 22.2381Z" fill="#F1D789"/>
<path fill-rule="evenodd" clip-rule="evenodd" d="M5.51177 14.1824L5.97257 12.7829L6.5187 11.8784L8.29363 11.7419L7.76457 13.2949L6.27977 15.9232L6.89417 18.2613L5.81897 18.8075L5.47763 18.2955L5.20457 17.1179L5.1875 15.8037L5.51177 14.1824Z" fill="#F4ECB4"/>
<path fill-rule="evenodd" clip-rule="evenodd" d="M7.4921 22.1355L7.16784 21.6576C7.16784 21.6576 7.06544 21.4357 7.11664 21.248C7.16784 21.0432 7.16784 21.0261 7.1337 20.9579C7.09957 20.8896 6.89477 20.6165 6.91184 20.3947C6.9289 20.1728 6.89477 20.1045 7.06544 19.9168C7.2361 19.7461 7.1849 19.4389 7.1849 19.4389L7.40677 19.5925L7.45797 19.5072C7.45797 19.5072 7.5433 19.5755 7.5433 19.6779C7.56037 19.5413 7.47504 18.8928 7.6457 18.7392C7.81637 18.5856 8.12357 19.4389 8.12357 19.4389L7.93584 18.2101L7.45797 16.9643L6.60464 15.8208L6.55344 14.5749V14.4555C6.55344 14.4555 6.1609 15.0699 6.0585 15.5307C5.97317 15.872 6.1609 16.2645 6.12677 16.7253C6.09264 17.1861 6.0585 17.152 6.17797 17.3397C6.29744 17.5275 6.5705 17.9029 6.45104 18.176C6.3657 18.4149 6.02437 18.2443 6.02437 18.2443C6.02437 18.2443 5.97317 18.4491 5.87077 18.5173C5.8537 18.3979 5.81957 18.3296 5.7513 18.2613L5.73424 18.3637L5.61477 17.9541C5.5465 17.664 5.46117 17.2544 5.3929 17.0496L5.27344 17.5445L5.32464 18.1077L5.52944 18.8928L5.73424 19.4048L5.93904 20.0363L6.1097 20.4459L6.24624 20.7701L6.3657 21.4869L6.96304 22.1184L7.27024 22.2549L7.4921 22.1355Z" fill="#F3E19D"/>
<path fill-rule="evenodd" clip-rule="evenodd" d="M5.81946 13.0391C5.81946 13.0391 5.40986 13.7559 5.27333 14.4898C5.1368 15.2236 5.05146 15.9746 5.11973 16.9474C5.20506 17.9372 5.35866 18.5516 5.47813 18.9954C5.68293 19.7122 6.212 20.7191 6.212 20.7191L6.22906 20.6679C6.13674 20.4998 6.06237 20.3225 6.0072 20.1388C5.93893 19.8658 5.92186 19.5415 5.8536 19.405C5.8024 19.2514 5.7 19.1148 5.6488 18.9442C5.61466 18.7735 5.5976 18.5004 5.46106 18.2956C5.40986 18.2103 5.3416 17.9884 5.32453 17.7666C5.2904 17.4423 5.32453 17.0839 5.30746 16.7767C5.2392 16.2818 5.20506 15.9404 5.25626 15.6844C5.30746 15.4284 5.58053 14.6775 5.7512 14.0802C5.8536 13.7047 5.78533 13.3804 5.99013 13.0562C6.19493 12.7319 6.3144 12.4418 6.34853 12.254C6.39973 12.0663 5.81946 13.0391 5.81946 13.0391Z" fill="#F2E8B0"/>
<path fill-rule="evenodd" clip-rule="evenodd" d="M7.83409 12.7488C7.83409 12.7488 7.61222 12.8171 7.50982 12.9365C7.40742 13.0389 7.35622 13.1413 7.21969 13.312C7.08315 13.4827 7.06609 13.6533 6.96369 13.8752C6.84422 14.1141 6.58822 14.4384 6.55409 14.5749C6.51995 14.7115 6.48582 15.2576 6.41755 15.5307C6.34929 15.8037 6.48582 16.128 6.48582 16.128L6.62235 16.0939C6.62235 16.0939 6.62235 16.2816 6.77595 16.4181C6.91249 16.5547 6.94662 15.9915 6.94662 15.9915L7.49275 14.1312L8.32902 13.568L8.41435 13.1072L7.83409 12.7488Z" fill="#F5EEC0"/>
<path fill-rule="evenodd" clip-rule="evenodd" d="M8.22652 13.6022C8.22652 13.6022 7.83398 13.6193 7.64625 13.7729L7.45852 13.9436C7.30492 14.063 7.15132 14.1825 7.06598 14.3532C6.99772 14.5068 6.89532 14.7628 6.84412 15.2406L6.79292 15.7868C6.77585 16.0086 6.72465 16.1793 6.74172 16.2988C6.77585 16.5377 7.03185 16.6742 7.04892 16.9473L7.59505 16.6913L8.08998 14.7116L9.14812 14.046L8.55078 13.3804L8.22652 13.6022Z" fill="#E6DB9D"/>
<path fill-rule="evenodd" clip-rule="evenodd" d="M5.42578 26.8631L5.44285 26.8119C5.51111 26.1463 5.52818 25.6343 5.57938 25.3271C5.66471 24.8833 5.71591 24.7127 5.71591 24.542C5.69885 24.2689 5.66471 24.0812 5.69885 23.8764C5.73298 23.5863 6.00605 23.262 5.98898 23.0401C5.98898 22.8695 5.90365 22.75 5.81831 22.6305L5.68178 22.4428C5.68178 22.4428 6.21085 22.0673 6.21085 20.5996C6.22297 20.6037 6.23446 20.6094 6.24498 20.6167L6.50098 21.3676L6.68871 21.5724L7.37138 22.8524L8.24178 23.7057L9.55591 24.5932L10.3751 25.4807L10.4604 27.8529L9.38525 29.2353L9.21458 29.5596C7.82086 28.8603 6.54299 27.9509 5.42578 26.8631Z" fill="#E5CB7A"/>
<path fill-rule="evenodd" clip-rule="evenodd" d="M8.70508 29.1327C8.70508 29.1327 8.72214 28.8426 8.96108 28.6549C8.99521 28.7231 9.02934 28.7743 9.01228 28.8255C9.06348 28.7402 9.37068 28.2453 10.0704 28.1258C10.7531 27.9893 10.9237 27.4943 10.9237 27.4943L12.4085 26.1461L14.0981 24.593L16.1461 23.8591L17.1189 23.6373C17.1189 23.6373 17.136 23.7055 17.1019 23.8591C17.2725 23.8421 17.6651 23.7567 18.0747 23.6031C18.2453 23.5349 18.3989 23.5178 18.4843 23.6031C18.6037 23.7226 18.6208 23.9786 18.6379 24.1493C18.8256 24.0981 19.0645 23.9103 19.2523 23.9274C19.5424 23.9615 19.7984 24.3029 20.1056 24.3029C20.4981 24.3029 20.6859 24.0639 20.9589 23.8762C21.1296 23.7567 21.3685 23.6202 21.488 23.5178C21.8123 23.2789 25.2085 22.2378 25.2085 22.2378L26.4032 22.3231L26.5909 23.6031L26.4885 26.9482L26.4544 26.9823L21.0443 29.8154L13.5349 30.9589C11.8542 30.6823 10.2326 30.1226 8.73921 29.3034L8.70508 29.1327Z" fill="#D8C173"/>
<path fill-rule="evenodd" clip-rule="evenodd" d="M5.88672 27.2894L6.10859 26.8115L6.19392 27.5625L5.88672 27.2894Z" fill="#F1D789"/>
<path fill-rule="evenodd" clip-rule="evenodd" d="M11.3652 30.4468L12.338 30.1737L12.4234 30.1908C12.4234 30.1908 12.4575 30.2249 12.4575 30.3103C12.594 30.242 12.6964 30.2591 12.7647 30.2079C12.7988 30.2932 12.85 30.5663 13.0207 30.6004C13.1914 30.6345 13.3791 30.5151 13.5839 30.3785C13.7716 30.2249 13.9935 30.0201 14.1471 29.9519C14.211 30.062 14.268 30.176 14.3178 30.2932C14.5226 30.1225 14.9151 29.4228 15.4442 29.4228C15.6007 29.0544 15.8618 28.7399 16.1951 28.5183C16.69 28.194 17.0143 28.1599 17.4068 28.194C17.5612 27.9899 17.7522 27.8163 17.97 27.682C18.0212 27.7161 18.209 27.8185 18.4308 27.7161C18.6527 27.6137 18.9087 27.2212 19.25 27.1529C19.4294 27.1327 19.6102 27.1749 19.762 27.2724C19.762 27.2724 20.7348 26.2996 21.4004 25.9753C21.3834 25.9071 21.3322 25.6169 22.1172 24.9684C22.1514 25.0025 22.1343 25.1049 22.1514 25.122C22.1684 25.122 22.3562 25.0367 22.6122 24.8489C22.9023 24.6271 23.2607 24.3881 23.4826 24.3199C23.8922 24.2004 24.3188 24.4564 24.3188 24.4564C24.3594 24.4249 24.4058 24.4017 24.4554 24.3881C24.5578 24.3711 24.626 24.3711 24.6772 24.3369C24.6772 24.4735 24.7626 24.7124 24.6772 24.9001C24.7578 24.9494 24.8437 24.9895 24.9332 25.0196C24.8991 25.1049 24.7967 25.3609 24.6431 25.4633C24.7796 25.5316 24.7967 25.6169 24.9844 25.6681L24.7284 26.0777L24.37 26.8969C24.2676 27.1017 24.1482 27.4431 24.0799 27.5113C24.0116 27.5796 23.7898 27.8868 23.6191 28.0404C23.7727 27.9721 24.4042 27.7844 24.6772 27.7161L23.8068 28.9961C21.9554 30.1086 19.888 30.8135 17.7425 31.0637C15.5971 31.3138 13.423 31.1035 11.3652 30.4468Z" fill="#E0CD81"/>
<path fill-rule="evenodd" clip-rule="evenodd" d="M8.29503 13.5339C8.29503 13.5339 8.07317 13.5339 8.02197 13.568C7.97077 13.6021 8.24383 13.6533 8.32917 13.6875C8.4145 13.7216 8.60223 13.8581 8.63637 13.9776C8.68757 14.08 10.2577 14.7115 10.2577 14.7115L11.367 14.6603L11.7596 14.1312L11.0257 13.4997L11.5377 11.9808L10.855 12.0832L9.2337 13.056L8.4145 13.3803L8.29503 13.5339Z" fill="#DFC57C"/>
<path fill-rule="evenodd" clip-rule="evenodd" d="M10.7344 14.0288C10.7498 14.0556 10.7723 14.0777 10.7993 14.0927C10.8264 14.1078 10.857 14.1152 10.888 14.1141C11.1269 14.1141 11.3317 14.1653 11.417 14.2848L11.9802 15.0699L12.953 15.4283L13.0213 14.2677L11.9461 13.5168L10.7344 13.9776V14.0288Z" fill="#E5CC7C"/>
<path fill-rule="evenodd" clip-rule="evenodd" d="M10.5466 14.4553C10.5466 14.4553 10.7172 14.4724 10.9562 14.3871C11.1951 14.3017 11.5535 14.1311 11.7071 14.1993C11.929 14.2847 11.8778 14.5919 12.1338 14.8649C12.2703 15.0185 12.5434 15.0185 12.697 15.2063C12.8506 15.394 13.3796 15.2916 13.3796 15.2916L13.5674 16.3668L12.7823 17.3908L12.5092 18.6708H11.434L10.4442 18.2783L9.94922 17.1007L10.2052 15.906L10.5466 14.4553Z" fill="#D2C281"/>
<path fill-rule="evenodd" clip-rule="evenodd" d="M12.6474 14.5067C12.6694 14.5151 12.6923 14.5208 12.7157 14.5237C12.6986 14.5408 12.6303 14.6091 12.6474 14.7456C12.6645 14.8821 12.7669 15.0869 12.6986 15.2064C12.7525 15.2654 12.7932 15.3352 12.8181 15.4112C12.8522 15.5477 12.8693 15.6501 13.1594 15.6672C13.1153 15.6959 13.0751 15.7304 13.0399 15.7696C13.0399 15.7696 13.2447 15.9403 13.3471 16.0939C13.4495 16.0939 13.7226 16.0085 13.7226 16.0085L13.7738 16.0427L13.8933 15.9915C13.8933 15.9915 13.7909 15.9573 13.8762 15.6672C13.9445 15.4283 14.0127 15.4453 14.0298 15.4283L14.081 15.0528L14.1493 14.5067L14.0639 13.6021L13.6031 13.312L13.2277 12.9536L12.8693 13.6192L12.6303 13.8581L12.6133 14.4384L12.6474 14.5067Z" fill="#E2C270"/>
<path fill-rule="evenodd" clip-rule="evenodd" d="M13.7559 13.7559C13.7559 13.7559 13.8412 13.9948 13.8753 14.1655C13.8855 14.1323 13.8913 14.0978 13.8924 14.0631L13.9777 14.558L14.0289 14.5751C14.0289 14.5922 14.0972 14.8994 14.0801 15.053C14.1868 14.8792 14.333 14.733 14.5068 14.6263C14.6092 14.558 14.7457 14.4898 14.8652 14.4727C15.07 14.4727 15.2065 14.6092 15.4455 14.6092C16.0257 14.6092 16.5377 14.1826 16.9303 14.046C17.2033 13.9607 17.4593 13.8924 17.63 13.7388C17.6983 13.6706 17.8519 13.4999 17.9884 13.278C18.1591 12.9708 18.3468 12.6978 18.5345 12.6636C18.4501 12.6788 18.3642 12.6845 18.2785 12.6807L18.4321 12.5442C18.5175 12.4588 18.654 12.3735 18.8076 12.3735C19.1148 12.3735 19.2513 12.4247 19.422 12.4247C19.5927 12.4247 19.678 12.3735 19.678 12.3735C19.678 12.3735 19.8657 12.493 20.2412 12.493L21.1116 12.5612C21.3164 12.5783 21.9991 12.493 22.1868 12.51C22.3164 12.5127 22.4442 12.5417 22.5623 12.5954L21.9308 10.7522L19.6439 8.75537L18.2956 9.72817L16.2135 11.8103L14.1825 12.5612L13.7729 13.0391V13.7559H13.7559Z" fill="#CCB360"/>
<path fill-rule="evenodd" clip-rule="evenodd" d="M18.2953 12.6976L18.4489 12.5611C18.5513 12.4757 18.6537 12.3904 18.8243 12.3904L19.4387 12.4245C19.5923 12.4245 19.6947 12.3904 19.6947 12.3904C19.6947 12.3904 19.8654 12.5099 20.2579 12.5099C20.6505 12.5099 20.9065 12.544 21.1113 12.5611C21.3161 12.5781 21.9987 12.5099 22.2035 12.5099C22.3344 12.5179 22.4622 12.5527 22.579 12.6123L22.2889 11.776L21.9475 11.1445L20.9918 10.1035L19.8483 9.42079L19.4558 9.31839L18.4147 9.93279L17.4761 12.3733L17.459 12.8853L18.0563 13.1755C18.2099 12.9195 18.3806 12.7147 18.5342 12.6805L18.2953 12.6976Z" fill="#D5B457"/>
<path fill-rule="evenodd" clip-rule="evenodd" d="M18.2775 12.8682C18.1922 12.8682 18.1068 12.8511 18.0898 12.7999C18.0215 12.578 17.9532 12.5439 17.885 12.5439C17.8167 12.5439 17.7314 12.6804 17.6802 12.6975C17.629 12.7146 17.5607 12.5439 17.5607 12.5439L17.5095 12.5098C17.5095 12.5098 17.1682 12.7316 16.9463 12.9876C16.7244 13.2436 16.3148 13.6703 16.1442 13.7556C15.9735 13.841 15.3762 13.858 15.1714 13.8922C14.9666 13.9263 14.7447 14.097 14.7106 14.1311C14.6764 14.1652 14.7959 14.1994 14.83 14.2335C14.8471 14.2676 14.6252 14.2506 14.6082 14.2847C14.5911 14.3018 14.6594 14.4554 14.6935 14.5236C14.7474 14.5006 14.8055 14.489 14.8642 14.4895C15.069 14.4724 15.2055 14.609 15.4444 14.609C16.0247 14.609 16.5367 14.1823 16.9292 14.0628C17.2023 13.9604 17.4583 13.8922 17.629 13.7386C17.6972 13.6703 17.8508 13.5167 17.9874 13.2778C18.0898 13.1242 18.1751 12.9706 18.2775 12.8682Z" fill="#D2B257"/>
<path fill-rule="evenodd" clip-rule="evenodd" d="M10.0357 25.6853C10.0357 25.6853 9.98448 25.4976 9.50662 25.0027L9.19942 24.6613C8.97755 24.4395 8.84102 24.3883 8.68742 24.2688C8.32902 24.0128 7.95355 24.0128 7.64635 23.6885C7.33915 23.3643 7.01488 22.7499 6.77595 22.1184L6.46875 21.2821C6.46875 21.2651 6.53702 21.1456 6.62235 21.1627C6.70768 21.1797 6.70768 21.3333 6.72475 21.3675C6.76448 21.4341 6.81018 21.4969 6.86128 21.5552C6.98075 21.6917 7.16848 21.8624 7.25382 22.1184C7.23675 21.8965 7.15142 21.6576 7.15142 21.6576C7.15142 21.6576 7.61222 21.9477 8.00475 22.2549C8.39728 22.5451 8.55088 22.6475 8.67035 22.8523C8.78982 23.0571 9.04582 23.5349 9.18235 23.6885C9.31888 23.8421 11.0767 24.3883 11.0767 24.3883L11.913 25.0197L12.3397 25.9413L11.9983 26.4533L11.3839 26.5728L10.3599 26.1291L10.0357 25.6853Z" fill="#D2B159"/>
<path fill-rule="evenodd" clip-rule="evenodd" d="M7.78187 22.528C7.78187 22.528 7.98667 22.8693 8.49867 23.1936C9.41258 23.6958 10.4272 23.9873 11.4683 24.0469C12.3728 24.064 13.0043 23.808 13.7893 23.7227C14.1989 23.6715 14.728 23.6373 15.2571 23.5179C15.9568 23.3472 16.3664 23.1595 16.9125 22.9035C17.3221 22.7157 17.6976 22.5792 17.9877 22.3915C18.4144 22.1525 18.7216 21.8624 19.08 21.7941C19.0288 21.9136 18.9947 22.1184 18.6363 22.3573L19.08 22.3403C19.08 22.3403 18.824 22.4768 18.3973 22.8181C18.1243 23.0229 17.7659 23.3643 17.4075 23.5861C17.1685 23.7397 16.9125 23.8421 16.7419 23.9445C16.3323 24.1664 16.1616 24.2688 15.9056 24.5589H16.008C16.008 24.5589 15.6667 24.5931 15.4277 24.7296C15.3765 24.7296 15.2741 24.7125 15.1205 24.7467C15.0011 24.7979 14.8475 24.8832 14.6768 24.9173C14.4379 25.0027 14.3696 24.9685 14.3696 24.9685L14.4037 25.0368L13.9941 25.0539H14.0112C13.9933 25.0565 13.9759 25.0623 13.96 25.0709C13.9075 25.1035 13.8498 25.1266 13.7893 25.1392L13.704 25.1563L13.8576 25.4635L13.2432 25.9413C13.2575 25.9685 13.2689 25.9971 13.2773 26.0267L13.3285 26.1973C13.3627 26.2827 13.3968 26.2997 13.3968 26.2997L13.2091 26.3339L12.7995 26.4363C12.7429 26.445 12.6859 26.4507 12.6288 26.4533C12.6459 26.5045 12.7653 26.7264 12.5605 26.9653C12.3557 27.2043 12.2875 27.2555 12.2192 27.4261C12.1871 27.4004 12.1529 27.3776 12.1168 27.3579C12.0485 27.3237 11.9461 27.2725 11.912 27.2213C11.8953 27.3026 11.8724 27.3824 11.8437 27.4603C11.7755 27.6309 11.6731 27.8016 11.656 27.9381C11.5877 27.8528 11.4683 27.6992 11.2805 27.7333C11.0928 27.7675 10.9563 28.0064 10.9221 28.0747C10.9221 28.0405 10.9051 28.0064 10.888 28.0576C10.888 28.1088 10.7856 28.7061 10.2395 29.184L10.2224 28.7061C10.1712 28.7573 10.1029 28.8256 9.72747 28.9963C9.36907 29.1499 9.42027 29.3205 9.42027 29.3205C9.42027 29.3205 9.4032 29.0645 9.59093 28.7915C9.79573 28.5184 9.9152 28.3989 9.9152 28.3648C9.90849 28.345 9.89672 28.3274 9.88107 28.3136L9.8128 28.2453C9.84693 28.2283 10.1541 28.0747 10.1371 27.7675C10.12 27.4944 10.0005 27.3579 9.9152 27.2555C9.89813 27.2384 10.0347 27.136 10.0176 27.1189L9.8128 26.9141C9.81999 26.8732 9.83143 26.8332 9.84693 26.7947C9.864 26.7435 9.88107 26.6923 9.864 26.6581C9.864 26.5899 9.77867 26.4192 9.7616 26.4021H9.9152L9.79573 26.1632L9.7104 25.8389H9.864C9.864 25.7877 9.77867 25.7365 9.8128 25.6853C9.84693 25.6853 9.89813 25.7195 9.9664 25.7877C9.93227 25.7024 9.88107 25.5488 9.77867 25.4805C9.82987 25.4635 10.0005 25.4123 10.1541 25.4976C10.3077 25.5829 10.3589 25.7195 10.3589 25.7195L10.5808 25.8901C10.7515 26.0267 10.9563 26.1973 11.2805 26.3339C11.3488 26.368 11.5195 26.368 11.656 26.3339C11.7093 26.3241 11.761 26.3068 11.8096 26.2827C11.8308 26.2683 11.8537 26.2569 11.8779 26.2485C11.8476 26.1949 11.8134 26.1435 11.7755 26.0949H11.8779C11.8779 26.0949 11.8949 26.0267 11.7584 25.8901C11.7925 25.856 11.8267 25.8389 11.8267 25.7877C11.7925 25.7877 11.7072 25.7195 11.6901 25.6853L11.8096 25.6C11.7584 25.5659 11.6731 25.4293 11.6219 25.4293C11.6635 25.41 11.7035 25.3871 11.7413 25.3611C11.7413 25.3611 11.5195 25.3099 11.4512 25.2587L11.2293 25.088C11.1611 25.0709 11.0416 25.0539 10.9904 25.0027H11.2293C11.2293 24.9856 11.2293 24.9515 11.3317 24.9344C11.3787 24.9298 11.4247 24.9183 11.4683 24.9003C11.4683 24.9003 11.3659 24.8832 11.2635 24.7808C11.1611 24.6784 11.0587 24.5931 11.0075 24.5931C10.9392 24.576 10.8197 24.6272 10.7344 24.6272C10.632 24.6101 10.5979 24.5589 10.5979 24.5589C10.5979 24.5589 10.2565 24.5931 9.48853 24.1323C8.82293 23.7227 8.5328 23.3643 8.5328 23.3643C8.47363 23.3406 8.41654 23.3121 8.36213 23.2789C8.10613 23.1595 7.7648 22.8864 7.78187 22.528Z" fill="#C2A44D"/>
<path fill-rule="evenodd" clip-rule="evenodd" d="M17.3055 6.99734C17.3652 7.01672 17.4183 7.05215 17.4591 7.09974C17.5786 7.23627 17.6469 7.50934 17.3738 7.78241C17.4762 7.81654 17.5274 7.83361 17.6298 7.81654C17.5274 7.93601 17.3055 8.17494 17.3055 8.39681C17.2885 8.56747 17.3909 8.61867 17.3909 8.61867C17.3909 8.61867 17.2202 8.80641 17.2202 9.13067C17.2987 9.04398 17.3843 8.96405 17.4762 8.89174C17.6639 8.73814 17.937 8.56747 18.1077 8.44801C18.1045 8.49419 18.1103 8.54056 18.1247 8.58454C18.1247 8.58454 18.4661 8.31147 18.7391 8.43094C18.8757 8.49921 18.8074 8.66987 18.8074 8.66987C18.8074 8.66987 18.9781 8.60161 19.1146 8.72107C19.2511 8.84054 19.4047 9.16481 19.4901 9.28427L19.729 9.62561C19.8718 9.8581 19.9919 10.1039 20.0874 10.3595C20.0874 10.2229 20.1215 10.0181 20.5141 10.1547C20.8895 10.2912 21.3333 10.5643 21.6917 11.1275C22.0501 11.6907 22.1525 12.3051 22.3231 12.544C22.5109 12.7829 22.7157 13.1584 22.7157 13.312C22.7157 13.4656 22.6645 13.9947 23.0399 15.3941C23.1594 14.9675 23.3301 13.9947 23.3301 13.9947L23.4154 13.1413L23.5178 10.5131L20.7701 8.22614L18.6197 6.65601L17.2031 6.79254L17.3055 6.99734Z" fill="#CAA13E"/>
<path fill-rule="evenodd" clip-rule="evenodd" d="M22.4092 10.9227C22.4092 10.9227 22.3751 10.6667 21.7266 10.2229C21.078 9.79627 20.5831 9.79627 20.1052 9.43787C19.7468 9.14774 19.3714 8.48214 19.1324 8.26027C18.8935 8.05547 18.8594 7.42401 18.8594 7.42401L19.6615 6.75841L20.8391 5.05174L21.846 3.95947L22.3239 4.62507L22.9895 5.41014L23.3479 6.98027L23.4844 9.26721L22.4092 10.9227Z" fill="#B59544"/>
<path fill-rule="evenodd" clip-rule="evenodd" d="M23.2103 13.6706C23.2316 13.3249 23.1911 12.9781 23.0908 12.6466C22.9202 12.1175 22.5447 11.1618 22.374 10.8205C22.3058 10.4279 22.357 10.3938 22.4252 10.3426C22.4935 10.2914 22.7836 10.1378 22.9372 9.57459C23.0908 9.01139 23.5687 8.99433 23.5687 8.99433L23.8759 8.77246L24.3196 9.89886L24.7122 10.9058L24.8316 11.6909L24.917 12.3394L24.7122 13.7389L23.654 14.6946L23.2103 13.6706Z" fill="#C89D3A"/>
<path fill-rule="evenodd" clip-rule="evenodd" d="M8.58398 29.2183V29.2012C8.60374 29.187 8.62104 29.1698 8.63518 29.15L8.68638 29.0817C8.70345 29.0647 8.82292 29.0305 8.89118 29.0476C8.95945 29.0647 9.13012 29.1159 9.21545 29.1159C9.40318 29.1159 9.62505 28.9793 9.96638 29.0305C10.4955 29.1329 10.6149 29.4913 10.9051 29.6791C11.1099 29.8156 11.3317 29.7644 11.3659 29.7644H11.4341C11.4341 29.7644 11.5365 29.6449 11.5877 29.662C11.6901 29.662 11.7072 29.7473 11.7584 29.7473C11.912 29.7644 12.2192 29.6791 12.3557 29.7132C12.3997 29.7273 12.4397 29.7517 12.4723 29.7843C12.505 29.817 12.5294 29.857 12.5435 29.9009C12.5776 30.0033 12.5605 30.1228 12.4752 30.1911C12.3216 30.3276 12.168 30.4812 12.1339 30.6007C12.1751 30.6271 12.215 30.6556 12.2533 30.686C10.9711 30.3599 9.73736 29.8665 8.58398 29.2183Z" fill="#CEB052"/>
<path fill-rule="evenodd" clip-rule="evenodd" d="M22.375 24.0467C22.375 24.0467 22.7675 23.5176 22.9211 23.2446C23.0577 22.9715 22.4774 19.4899 22.4774 19.4899L23.6379 15.6499L23.6038 14.404C23.6038 14.404 23.6721 13.2606 23.8086 12.7486C23.9622 13.0387 24.4571 13.3971 24.5766 13.5678C24.6278 13.2264 24.7985 12.4755 24.7643 11.6904C24.8667 11.827 25.0886 13.3118 25.0886 13.3118L25.3275 14.3187L25.6347 15.3768L25.959 16.5032L26.1638 17.2712L26.2662 17.459L26.3686 17.7832L26.4539 18.1416L26.727 18.9608L26.8806 19.6435L27.0001 20.8723C27.0247 20.9675 27.0418 21.0645 27.0513 21.1624L27.0342 21.4014C27.0342 21.4355 27.0854 21.6915 27.0683 21.8963C27.0342 22.1011 27.0342 22.2547 26.8806 22.4083C26.727 22.5619 26.6075 23.4323 26.6075 23.4323L26.3345 23.2446C26.3345 23.2446 26.3857 22.9715 26.2491 22.7496C26.1126 22.5278 25.8566 22.4595 25.703 22.4936C25.5494 22.5278 25.2593 22.5619 25.1739 22.6472C25.0715 22.7326 24.8497 22.9886 24.6449 23.108C24.3889 23.2616 23.9793 23.2787 23.7574 23.3299C23.5355 23.3811 23.2795 23.5347 23.0235 23.7054C22.8179 23.8382 22.6009 23.9524 22.375 24.0467Z" fill="#CCA847"/>
<path fill-rule="evenodd" clip-rule="evenodd" d="M22.375 29.7131L22.4262 29.7301C24.2648 28.8709 25.9128 27.6523 27.2731 26.1461C27.2561 25.6171 27.239 25.088 27.2049 24.8832C27.1707 24.4565 27.2049 24.0299 27.1878 23.7909C27.1707 23.552 27.0342 22.528 26.9659 22.2549C26.8977 21.9989 26.7611 21.8795 26.7441 21.8795C26.727 21.8795 26.6075 22.3573 26.6075 22.4939L26.5905 22.9717L26.5563 22.9035L26.4881 23.1083V22.9717C26.471 22.9547 26.4369 22.9547 26.4539 22.8864C26.4563 22.8462 26.462 22.8062 26.471 22.7669C26.471 22.7669 26.3857 22.8864 26.3345 23.1765C26.2833 23.4667 26.2833 23.4667 26.2491 23.5008C26.2321 23.5349 26.1297 23.6373 26.1297 23.6715C26.1297 23.7397 26.2321 23.808 26.2321 23.8421L26.1126 24.3712C26.0785 24.5248 26.0955 24.7979 26.0614 24.9515C26.0273 25.088 26.0102 25.1563 25.9249 25.2075L26.0443 25.2416C26.0443 25.2416 26.1297 25.6341 25.9078 25.9584L25.7201 26.2315C25.5494 26.4192 25.4129 26.6411 25.3958 26.7776C25.3867 26.7326 25.381 26.6869 25.3787 26.6411C25.3787 26.6411 25.1057 26.9653 24.9862 27.136C24.8497 27.3749 24.6449 27.3579 24.5766 27.4091C24.5083 27.4603 24.5083 27.5797 24.5254 27.6651C24.4742 27.6651 24.3889 27.6821 24.3206 27.8869C24.2865 27.9893 24.2182 28.0917 24.0817 28.16C23.9451 28.2283 23.8257 28.2453 23.7403 28.2795L23.8598 28.3136C23.8257 28.3819 23.655 28.4843 23.4502 28.6037C23.2454 28.7232 23.1601 28.9109 23.1089 29.0304C23.0577 29.1328 22.9723 29.2011 22.8529 29.2181L23.0235 29.3376C22.9723 29.3547 22.8699 29.3547 22.6993 29.5083C22.5115 29.6448 22.4603 29.696 22.375 29.7131Z" fill="#C39D3C"/>
<path fill-rule="evenodd" clip-rule="evenodd" d="M18.7734 30.9077C18.8686 30.8387 18.9718 30.7814 19.0806 30.7371C19.4902 30.5835 19.9169 30.5493 20.0876 30.4981L20.5654 30.3275V30.464C19.9777 30.6483 19.3793 30.7965 18.7734 30.9077Z" fill="#D2BA6B"/>
<path fill-rule="evenodd" clip-rule="evenodd" d="M26.2137 20.2923C26.2137 20.2923 26.1283 20.736 25.9918 21.0261L25.6846 21.6917C25.6813 21.606 25.6871 21.5202 25.7017 21.4357C25.5139 21.5381 25.0702 21.7941 24.9337 21.9136C24.8142 22.0331 24.6094 22.2208 24.5582 22.3061C24.6777 21.9477 24.8142 21.6235 24.8313 21.4869C24.6435 21.6235 23.7731 22.3403 23.3294 22.8011L21.9129 23.9445C21.747 24.034 21.576 24.1138 21.4009 24.1835L20.667 24.4565C20.7182 24.3029 20.8206 24.1664 20.9401 24.0469C21.0766 23.9104 21.4862 23.4837 21.5374 23.2789C21.5886 23.0571 21.6057 22.9376 21.5374 22.7499L21.1961 22.8181C21.0937 22.8523 20.9742 22.9547 20.9742 22.9547C20.9742 22.9547 21.0595 22.4939 21.2302 22.0331L20.8718 22.0843C20.8718 22.0843 21.1961 21.5381 21.7422 21.1627C21.5729 21.1986 21.4072 21.25 21.2473 21.3163L20.3086 21.76C20.4622 21.5552 21.4862 20.0875 22.1177 18.7051C22.7321 17.3227 22.9539 16.9813 23.0905 16.2304C23.1587 15.872 23.1417 15.3259 23.1587 14.848C23.1758 14.3701 23.2441 13.9435 23.1929 13.6533C23.3635 13.8581 23.9609 14.4213 23.9779 15.6672C23.995 16.9301 23.3977 18.6197 22.7833 19.5413C22.9369 19.5755 23.3294 19.6267 23.739 18.9269C24.1486 18.2272 24.1315 18.0224 24.2851 17.7152L24.3022 17.92C24.3022 17.92 24.8995 17.2032 25.1726 16.2816C25.2409 16.6741 25.4115 17.0155 25.1385 17.7323C24.8995 18.3808 24.5923 18.5515 24.5923 18.5515C24.5923 18.5515 24.7459 18.5173 24.9678 18.3808C25.019 18.4832 25.0019 18.5856 25.0702 18.6197C25.1385 18.6539 25.2238 18.7392 25.2409 18.7904L25.4457 18.4661C25.4286 18.6709 25.4115 19.5584 25.4969 20.0192C25.7017 20.0021 25.9065 19.9851 26.043 19.6267C25.9406 19.968 25.9406 20.1899 26.0089 20.4971L26.2137 20.2923Z" fill="#C0993A"/>
<path fill-rule="evenodd" clip-rule="evenodd" d="M19.4894 6.02437C19.4894 6.02437 19.2846 6.09263 18.9433 6.09263C18.6532 6.09263 18.7385 5.99023 18.2777 5.99023C17.5609 5.99023 15.0862 6.39983 14.6596 6.38277C14.3694 6.38277 15.5982 6.5193 15.5982 6.5193L18.7556 6.55343L19.4041 6.50223L19.626 6.02437H19.4894Z" fill="#A88F33"/>
<path fill-rule="evenodd" clip-rule="evenodd" d="M11.2974 12.1856C11.2974 12.1856 10.9049 12.4928 10.7342 12.7317C10.5636 12.9707 10.4612 13.1243 10.2734 13.312C10.3196 13.3144 10.3658 13.3086 10.41 13.2949C10.41 13.2949 10.41 13.3461 10.3758 13.3632C10.4036 13.3597 10.4319 13.3625 10.4584 13.3714C10.485 13.3803 10.5093 13.395 10.5294 13.4144C10.4612 13.4485 10.3076 13.6021 10.427 13.7728C10.5294 13.9264 10.7172 13.9264 10.7172 13.9264C10.7172 13.9264 10.666 14.0629 10.8537 14.0459C11.2462 14.0288 11.69 13.8581 11.8948 13.8923C12.0996 13.9435 12.219 13.9776 12.3726 14.2165C12.5262 14.4725 12.6457 14.5067 12.6457 14.5067C12.6457 14.5067 12.7481 14.2848 12.714 13.9264C12.7932 13.7425 12.8394 13.5461 12.8505 13.3461L12.714 12.3563L12.1166 11.6224L11.3657 12.032L11.2974 12.1856Z" fill="#E3C571"/>
<path fill-rule="evenodd" clip-rule="evenodd" d="M12.0312 12.032C12.0312 12.032 12.0825 12.1685 12.3214 12.1856C12.3212 12.2595 12.3212 12.3335 12.3214 12.4075C12.347 12.3946 12.3702 12.3773 12.3897 12.3563V12.5611C12.3958 12.6022 12.4073 12.6424 12.4238 12.6805C12.4285 12.6687 12.4342 12.6573 12.4409 12.6464C12.4409 12.6464 12.492 12.8 12.6115 12.9024C12.6125 12.8841 12.6184 12.8664 12.6286 12.8512C12.6297 12.8879 12.6416 12.9235 12.6627 12.9536C12.6504 12.9501 12.6388 12.9443 12.6286 12.9365C12.6286 12.9365 12.6457 13.3461 12.7139 13.5509C12.7271 13.5351 12.7385 13.518 12.7481 13.4997L12.731 13.7045V13.9264C12.7783 13.8914 12.8299 13.8628 12.8846 13.8411C12.9528 13.8069 13.0894 13.7045 13.1576 13.4997C13.2025 13.3777 13.2367 13.2521 13.2601 13.1243C13.2852 13.1724 13.3024 13.2243 13.3112 13.2779C13.3112 13.3461 13.4478 13.312 13.4478 13.312L13.4649 13.0389L13.6185 12.3904L13.755 11.9979L14.4376 10.9397L15.6494 10.0181L16.7075 10.2571L17.6121 9.04533L16.059 8.10666L14.6083 8.26026L13.2771 10.1035L12.219 11.7589L12.0312 12.032Z" fill="#D8B65B"/>
<path fill-rule="evenodd" clip-rule="evenodd" d="M19.6787 9.38673C19.6787 9.38673 19.5763 9.4038 19.3203 9.54033C19.0643 9.67686 18.8765 9.711 18.7741 9.9158C18.6717 10.1206 18.6717 10.2742 18.6717 10.2742L18.9448 10.1718C19.0643 10.1377 19.1837 10.1547 19.1667 10.1889C19.1543 10.2199 19.1371 10.2487 19.1155 10.2742C19.1155 10.2742 19.3203 10.2742 19.3203 10.3766C19.3203 10.479 19.2861 10.5814 19.2349 10.6326C19.2008 10.6838 19.0472 10.7691 19.0301 10.8203C18.9789 10.9398 19.0472 10.9398 19.0131 11.0422C18.996 11.1446 18.9107 11.3323 18.6376 11.6566C18.3475 11.9809 18.228 12.2027 18.228 12.2027C18.228 12.2027 18.0915 11.9467 18.0061 11.7249L17.6819 11.8955L17.0504 9.67686L17.0675 9.54033C17.0675 9.54033 17.1187 9.47206 17.1357 9.33553C17.0333 9.3014 17.0163 9.28433 16.8968 9.16486C16.7773 9.0454 16.6579 8.8918 16.4531 8.7894C16.4189 8.7382 16.3848 8.65286 16.2312 8.61873L15.9752 8.56753C15.9752 8.56753 16.0605 8.5334 16.0947 8.46513C16.0093 8.4822 15.924 8.51633 15.7192 8.51633H15.3608C15.2413 8.5334 15.1048 8.5846 15.0536 8.39686C15.0024 8.36273 14.8829 8.39686 14.7805 8.55046C14.6781 8.70406 14.644 8.82353 14.4392 8.8918C14.4256 8.97598 14.3966 9.05695 14.3539 9.13073L14.0808 9.47206C13.8931 9.69393 13.9101 10.0694 13.6029 10.3425C13.2957 10.6326 13.6541 9.5574 13.6541 9.5574L14.1491 8.3798L15.5485 7.01446L17.7331 6.87793L17.9379 8.00433L18.996 8.36273L19.6787 9.38673Z" fill="#D3AE4D"/>
<path fill-rule="evenodd" clip-rule="evenodd" d="M20.0196 9.62566L19.098 8.31153L18.4666 7.8166L17.9716 6.96326L17.2548 6.87793L17.306 6.9974C17.3657 7.01677 17.4188 7.0522 17.4596 7.0998C17.5791 7.23633 17.6474 7.5094 17.3743 7.78246C17.4767 7.83366 17.5279 7.83366 17.6303 7.83366C17.5279 7.93606 17.306 8.19206 17.306 8.39686C17.289 8.56753 17.3914 8.61873 17.3914 8.61873C17.3914 8.61873 17.2207 8.82353 17.2207 9.13073C17.2992 9.04404 17.3848 8.96411 17.4767 8.8918C17.6644 8.7382 17.9375 8.56753 18.1082 8.46513C18.1071 8.50563 18.1128 8.54603 18.1252 8.5846C18.1252 8.5846 18.4666 8.31153 18.7396 8.44806C18.8762 8.49926 18.8079 8.66993 18.8079 8.66993C18.8079 8.66993 18.9786 8.61873 19.1151 8.7382C19.2516 8.85766 19.4052 9.16486 19.4906 9.28433L19.7295 9.62566C19.8724 9.85811 19.9925 10.1039 20.0879 10.3595C20.0879 10.2571 20.105 10.1206 20.2927 10.1206L20.0196 9.62566Z" fill="#CAA13E"/>
<path fill-rule="evenodd" clip-rule="evenodd" d="M6.3155 13.3805C6.3155 13.3805 6.24723 13.2098 6.3155 12.9026C6.38376 12.5954 6.48616 12.4418 6.5203 11.981C6.55443 11.5202 6.84456 10.9399 6.84456 10.9399L7.68083 10.5645L8.27816 10.7351L8.44883 11.5202L7.6979 11.9298C7.6979 11.9298 7.66376 12.1005 7.45896 12.237C7.25416 12.3735 6.94696 12.493 6.8787 12.6295C6.83893 12.7166 6.81026 12.8084 6.79336 12.9026C6.79336 12.9026 6.5715 12.8514 6.45203 13.005C6.3155 13.1415 6.3155 13.261 6.3155 13.3805Z" fill="#F4EFC8"/>
<path fill-rule="evenodd" clip-rule="evenodd" d="M7.98769 13.1585C7.98769 13.1585 7.91942 13.2097 7.86822 13.3121C7.81702 13.2439 7.69755 12.7489 7.69755 12.3052C7.69755 11.8615 7.66342 11.742 7.76582 11.5884C7.86822 11.4348 8.27782 11.2812 8.20955 11.0081C8.15835 10.7521 7.91942 10.6327 7.62929 10.718C7.42449 10.7692 7.27089 11.1959 7.04902 11.4177C6.89542 11.5884 6.70769 11.5543 6.65649 11.6396C6.58822 11.7761 6.63942 11.8956 6.62235 11.9639C6.62235 11.998 6.55409 12.1345 6.43462 12.3052C6.19569 12.6465 5.80315 13.1244 5.75195 13.5511C5.76902 13.3121 5.75195 13.2951 5.82022 13.0391L5.78609 12.9708L6.04209 12.1345L6.21275 11.4348L6.57115 10.2743L7.23675 9.09668L7.86822 8.37988L8.51675 8.43108L8.60209 9.42095L8.97755 11.2812L9.77969 12.2711L8.49969 13.1244L7.98769 13.1585Z" fill="#EBCC73"/>
<path fill-rule="evenodd" clip-rule="evenodd" d="M8.39625 13.5168C8.39625 13.5168 8.27679 13.5509 8.24265 13.5168C8.20852 13.4827 8.15732 13.4827 8.17439 13.4485L8.25972 13.3632C8.26238 13.3529 8.26261 13.3422 8.26039 13.3318C8.25817 13.3215 8.25356 13.3117 8.24694 13.3035C8.24031 13.2952 8.23185 13.2886 8.22222 13.2841C8.21259 13.2797 8.20205 13.2775 8.19145 13.2779C8.14025 13.2779 8.12319 13.312 8.12319 13.312L8.02079 13.2608C8.04921 13.2591 8.0777 13.2591 8.10612 13.2608C8.03051 13.2258 7.94989 13.2027 7.86719 13.1925C7.93545 13.1584 8.07199 13.0389 8.14025 13.0389C8.20852 13.0389 8.27679 13.0219 8.27679 12.9877C8.27679 12.9536 8.19145 12.8683 8.12319 12.8512C8.14025 12.8171 8.15732 12.7659 8.10612 12.6464C8.03785 12.5099 8.07199 12.4245 8.08905 12.4075L8.19145 12.2539L8.31092 12.1173L8.49865 12.032C8.58399 11.9979 8.66932 11.9637 8.72052 11.9979C8.77172 12.032 8.75465 12.0832 8.75465 12.0832C8.75465 12.0832 8.92532 12.032 9.07892 12.1173C9.24959 12.1856 9.64212 12.2368 9.64212 12.2368L9.77865 12.5099L8.85705 13.312L8.46452 13.4997L8.39625 13.5168Z" fill="#E5C66B"/>
<path fill-rule="evenodd" clip-rule="evenodd" d="M9.67648 12.2196C9.67648 12.2196 9.38635 12.4073 9.31808 12.4756C9.36928 12.4927 9.42048 12.5097 9.40342 12.5439C9.36928 12.5951 9.18155 12.7145 9.07915 12.8511C8.97675 12.9705 8.87435 13.1412 8.84022 13.2095C8.78902 13.2777 8.49888 13.4825 8.39648 13.5167C8.61835 13.5167 9.04502 13.2607 9.19862 13.2607C9.19862 13.3289 9.24982 13.4143 9.33515 13.4313C9.42048 13.4484 9.69355 13.4825 10.0349 13.2607C10.3933 13.0559 10.2738 12.9023 10.4274 12.7999C10.7005 12.6121 10.82 12.4415 10.9736 12.3391C11.1272 12.2367 11.2125 12.2025 11.2125 12.2025C11.2125 12.2025 11.2125 12.1343 11.2637 12.1343C11.2762 12.1371 11.2876 12.1435 11.2966 12.1525C11.3057 12.1616 11.312 12.173 11.3149 12.1855C11.3149 12.1855 11.588 11.9977 11.9293 11.9465C11.9217 11.9431 11.9156 11.937 11.9122 11.9295L11.9464 11.8953L11.9805 11.8783C11.9976 11.8783 11.9976 11.9977 12.0317 12.0319C12.0829 11.9977 12.2024 11.7588 12.2024 11.7588L12.4584 11.0079V10.3252L12.2536 10.3764L10.7176 11.0249L9.77888 11.9807L9.67648 12.2196Z" fill="#E6BD62"/>
<path fill-rule="evenodd" clip-rule="evenodd" d="M14.0978 8.8576C14.1811 8.84097 14.2616 8.81222 14.3367 8.77226C14.3026 8.8576 14.3026 8.94293 14.166 9.13066C14.0295 9.3184 14.0295 9.3696 13.9271 9.5744C13.8076 9.7792 13.8076 10.0864 13.7052 10.2229C13.7478 10.199 13.7939 10.1817 13.8418 10.1717C13.8418 10.1717 13.7394 10.2741 13.7052 10.3595C13.6711 10.4448 13.5687 10.6667 13.381 10.7861C13.1932 10.9056 12.9543 10.9739 12.6812 11.264C12.4252 11.5541 12.1522 11.9125 12.0156 12.032C12.0839 11.9125 12.1863 11.6736 12.2204 11.5029C12.2546 11.3323 12.2034 11.1616 12.2546 10.9397C12.3058 10.7179 12.2887 10.5813 12.5106 10.2059C12.7324 9.8304 13.0908 8.5504 13.0908 8.5504L13.8588 8.31146L14.0978 8.8576Z" fill="#B6933F"/>
<path fill-rule="evenodd" clip-rule="evenodd" d="M13.5345 8.39675C13.5345 8.39675 13.2955 8.73808 13.2273 9.02821C13.159 9.31835 13.2273 9.30128 13.1931 9.45488C13.17 9.54443 13.17 9.63839 13.1931 9.72795C13.2738 9.59556 13.385 9.48438 13.5174 9.40368C13.7393 9.26715 13.927 9.18181 14.0294 9.06235C14.1318 8.94288 14.2342 8.73808 14.4561 8.58448L14.2001 8.53328C14.3025 8.43088 14.5926 8.26021 14.8827 8.05541C15.1729 7.85061 15.1558 7.78235 15.6166 7.57755H15.2582C15.3094 7.45808 15.4971 7.40688 15.6678 7.23621C15.8385 7.06555 15.5654 6.79248 15.5654 6.79248L14.2001 7.61168L13.5345 8.39675Z" fill="#C49937"/>
<path fill-rule="evenodd" clip-rule="evenodd" d="M9.83008 7.78253L9.86421 7.52653L10.2567 6.89506L10.6663 5.80279V4.30093L10.6322 3.43053L10.7005 2.85026L10.7517 2.67959L10.8029 2.61133L11.1271 2.78199L11.5879 3.39639L11.6391 4.60813L11.1783 6.51959L9.91541 7.91906L9.83008 7.78253Z" fill="#DFC068"/>
<path fill-rule="evenodd" clip-rule="evenodd" d="M10.8544 2.54292C10.8544 2.54292 10.6496 2.54292 10.5984 3.39625L10.496 5.11999C10.4618 5.54665 10.3936 5.78559 10.3594 6.04159C10.3253 6.29759 10.3082 6.62185 10.1888 6.82665C10.1376 6.92905 10.0352 7.23625 9.77918 7.45812C9.48904 7.69705 9.06238 7.88479 8.99411 7.88479C8.87464 7.91892 8.29437 7.97012 8.07251 8.10665C7.98717 8.14079 7.83358 8.19199 7.67998 8.34559C7.37278 8.63572 6.94611 9.13065 6.65597 9.74505C6.19517 10.6496 5.73438 13.2096 5.73438 13.2096L5.83678 13.0389C5.83678 13.0389 5.85384 12.8171 6.07571 12.4075C6.29757 11.9979 6.22931 11.5541 6.55358 10.7861C6.67304 10.4789 6.82664 10.1035 7.01437 9.77919C7.30451 9.25012 7.66291 8.78932 8.02131 8.53332C8.61864 8.14079 9.25011 8.03839 9.25011 8.03839L9.94984 7.57759L10.24 7.08265C10.4618 6.70719 10.752 6.28052 10.8202 5.66612C10.9056 4.76159 10.6837 4.16425 10.6837 3.61812C10.6837 3.07199 10.7008 2.69652 10.8202 2.59412C10.9397 2.49172 10.8544 2.54292 10.8544 2.54292Z" fill="#A88F33"/>
<path fill-rule="evenodd" clip-rule="evenodd" d="M10.8544 6.60477C10.8544 6.60477 11.1616 5.83677 11.2981 5.17117L11.3835 4.7957C11.4517 4.16423 11.4688 3.89117 11.3835 3.54983C11.3152 3.29383 11.0763 3.07197 10.9397 2.88423C10.8203 2.6965 10.752 2.62823 10.7861 2.5941C10.8203 2.55997 10.9056 2.4917 11.008 2.4917C11.1116 2.49531 11.2134 2.51985 11.3072 2.56384C11.4011 2.60784 11.4851 2.67038 11.5541 2.7477C11.7589 2.98663 11.9125 3.7717 11.9125 3.7717L12.0832 4.7957L12.5099 6.09277L10.8544 6.60477Z" fill="#C99E3D"/>
<path fill-rule="evenodd" clip-rule="evenodd" d="M13.7394 5.81986C13.7394 5.81986 13.6711 5.83693 13.5687 5.81986C13.5701 5.85984 13.5615 5.89954 13.5436 5.93533C13.5257 5.97111 13.4991 6.00183 13.4663 6.02466C13.3639 5.99053 12.3399 6.07586 12.3399 6.07586C12.3399 6.07586 11.8791 5.99053 11.7255 5.35906C11.6231 4.94946 11.7938 4.36919 11.7426 3.99373C11.6572 3.43053 11.5207 3.32813 11.5036 3.15746L11.4866 2.83319L11.333 2.79906C11.333 2.74786 11.35 2.69666 11.2988 2.61133C11.333 2.62839 11.5378 2.64546 11.7938 2.88439C11.9986 3.07213 11.9986 3.14039 12.0156 3.19159C12.0668 3.22573 12.374 3.49879 12.5106 3.75479C12.6471 4.01079 12.9031 4.88119 12.9714 5.01773C12.9884 5.08599 13.0226 5.13719 13.125 5.27373C13.2615 5.44439 13.4834 5.76866 13.7394 5.81986Z" fill="#B58634"/>
<path fill-rule="evenodd" clip-rule="evenodd" d="M12.0488 3.2085C12.2072 3.46106 12.3497 3.72326 12.4755 3.99356C12.6291 4.3349 12.7144 4.60796 12.9192 4.8469C12.8168 4.5397 12.6291 3.95943 12.5096 3.73756C12.3902 3.5157 12.1512 3.27676 12.0488 3.2085Z" fill="#A88F33"/>
<path fill-rule="evenodd" clip-rule="evenodd" d="M10.29 7.45801C10.29 7.45801 10.034 7.52627 9.5391 7.78227C9.03919 8.04697 8.51294 8.25861 7.96897 8.41374L8.0031 8.46494C8.0031 8.46494 8.0031 8.58441 8.07137 8.65267C8.03723 8.70387 7.52523 9.04521 7.66177 10.2228L7.91777 10.1375C7.9519 10.1375 7.9519 10.2228 7.98603 10.2228C8.02017 10.2228 8.1567 10.1716 8.29323 10.0009C8.29323 10.0692 8.2079 10.786 8.6175 11.2468C8.70283 11.1615 8.90763 10.8543 8.90763 10.8543V10.7689C8.90763 10.7689 8.9247 10.4276 9.0271 10.1204C9.1295 9.81321 9.35137 9.59134 9.35137 9.59134L10.4607 8.02121L10.29 7.45801Z" fill="#E6C367"/>
<path fill-rule="evenodd" clip-rule="evenodd" d="M9.26831 9.77915C9.21621 9.81631 9.15863 9.8451 9.09765 9.86448C9.08058 9.79622 9.04645 9.57435 9.20005 9.35248C9.38778 9.09648 9.78031 8.75515 9.88271 8.48208C9.95098 8.31142 9.91685 7.88475 10.5483 7.32155L11.4016 6.57062L12.4086 6.07568L13.6544 6.55355L13.04 8.95995L12.5622 10.0864L10.6678 9.72795L9.26831 9.77915Z" fill="#DCBA5A"/>
<path fill-rule="evenodd" clip-rule="evenodd" d="M9.98438 9.13067L10.2233 8.82347V8.61867C10.2233 8.61867 10.4793 8.5504 10.7694 8.26027C11.0596 7.97013 11.435 7.424 11.7764 7.45813C12.1177 7.49227 12.1518 8.20907 12.1689 8.41387C12.186 8.61867 12.2372 9.0624 12.3054 9.30133C12.3737 9.54027 11.4521 10.4619 11.4521 10.4619L10.8377 10.9397L9.98438 9.13067Z" fill="#E9CE77"/>
<path fill-rule="evenodd" clip-rule="evenodd" d="M10.7168 11.5883C10.7168 11.5883 10.9045 11.2811 10.768 11.2128C10.8533 11.0251 11.0069 10.8374 11.0069 10.8374C11.0069 10.8374 11.1093 10.5643 11.4677 10.24C11.8261 9.91576 12.0309 9.67683 12.0821 9.45496C12.1211 9.31 12.144 9.1612 12.1504 9.01123C12.1876 9.04312 12.2276 9.07168 12.2699 9.09656C12.3211 9.1307 12.5941 9.35256 12.56 9.7963C12.5259 10.24 12.3552 10.4278 12.3552 10.4278L12.0651 10.6667C11.9456 10.752 11.9115 10.8544 11.7067 10.8544C11.7274 10.8395 11.7505 10.8279 11.7749 10.8203C11.7749 10.8203 11.5531 10.8032 11.4507 10.9056C11.3483 11.008 11.0923 11.3152 10.9728 11.4176L10.7168 11.5883Z" fill="#CDAE50"/>
<path fill-rule="evenodd" clip-rule="evenodd" d="M19.3196 6.5534C19.0128 6.44123 18.6903 6.37788 18.3639 6.36567C17.8177 6.3486 17.0327 6.36567 16.2476 6.38273C15.4113 6.38273 14.6433 6.0926 13.6023 6.0414C13.4145 5.939 12.9879 5.4782 11.6055 6.451C11.6908 6.43393 12.5953 6.22913 12.9196 6.62167C13.2439 7.03127 13.1585 7.69687 13.1073 7.86753C13.022 8.20887 12.7489 8.73793 12.6465 9.09633C12.5441 9.45473 12.5612 9.65953 12.4929 9.91553C12.4247 10.1715 12.2369 10.291 12.3393 10.5982C12.4759 10.5129 12.5441 10.5129 12.766 10.0009C12.9879 9.48887 12.9537 9.14753 13.3121 8.72087C13.6876 8.27713 14.302 7.69687 14.5239 7.54327C14.7457 7.38967 16.5889 6.451 18.5175 7.35553C18.9783 7.30433 19.3196 6.5534 19.3196 6.5534Z" fill="#D2A83E"/>
<path fill-rule="evenodd" clip-rule="evenodd" d="M12.3747 6.19531C12.3766 6.1783 12.3766 6.16113 12.3747 6.14411C12.3521 6.10555 12.3232 6.07096 12.2894 6.04171C12.2894 6.04171 11.8457 5.95638 11.6067 5.97345C11.2142 6.02465 10.8387 6.51958 10.6681 6.77558C10.4974 7.03158 10.2926 7.42412 10.0537 7.62892C10.0537 7.61045 10.0477 7.59249 10.0366 7.57772C10.0366 7.57772 10.0537 7.59478 10.0366 7.62892L10.0195 7.68012L10.0537 7.71425C10.0707 7.71425 10.4291 7.54358 10.907 7.09985C11.4361 6.62198 11.8286 6.38305 12.0334 6.29771C12.1429 6.25074 12.2574 6.21638 12.3747 6.19531Z" fill="#C29637"/>
<path fill-rule="evenodd" clip-rule="evenodd" d="M21.2149 4.24951L21.0272 4.47138C20.8053 4.71031 20.4981 4.98338 20.2421 5.27351C20.0032 5.52951 19.7301 5.75138 19.4229 6.09271L18.6549 6.94605C18.5867 7.06551 18.5184 7.25325 18.5184 7.35565L18.416 7.28738C18.4398 7.3303 18.4685 7.37038 18.5013 7.40685L18.7061 7.67991C18.7699 7.76691 18.8163 7.86543 18.8427 7.97005C18.8768 7.97005 19.0816 8.02125 19.3205 7.61164C19.5595 7.20205 19.9008 6.74125 19.9008 6.74125L20.4128 5.97325L20.7541 5.32471L21.1637 4.59085L21.2149 4.24951Z" fill="#AC8132"/>
<path fill-rule="evenodd" clip-rule="evenodd" d="M21.7425 3.72052C21.7425 3.72052 21.4353 3.97652 21.3159 4.13012L20.9062 4.69332L21.0087 4.67625L21.5377 4.21545L21.7425 3.83999V3.72052Z" fill="#A88F33"/>
<path fill-rule="evenodd" clip-rule="evenodd" d="M21.6571 24.3029C21.6571 24.3029 21.64 24.0811 21.7595 23.9616C21.879 23.8421 22.2032 23.6544 22.4934 22.9547L22.8347 22.0843C22.8347 22.0843 22.2886 22.5451 21.9643 22.6645L22.1179 22.3061C22.0838 22.272 21.896 22.2208 21.879 22.2037C21.9814 22.1013 22.0326 21.8453 22.2374 21.6747L23.3808 20.8043C23.7563 20.4971 24.5243 19.7632 24.6096 19.5413C24.6779 19.6267 24.6779 19.6779 24.6779 19.6779C24.6779 19.6779 24.3024 20.1728 24.1147 20.4971C23.944 20.7531 23.944 20.9067 23.944 20.9067L24.3024 20.7531C24.3024 20.7531 24.4048 21.1456 23.944 21.7259C24.1488 21.6405 24.2342 21.6917 24.3366 21.6235C24.1488 21.7429 23.8928 21.9136 23.6368 22.3744C23.3979 22.8181 23.0736 23.3643 22.5104 23.6885C21.9643 24.0299 21.6571 24.3029 21.6571 24.3029Z" fill="#A67A2E"/>
<path fill-rule="evenodd" clip-rule="evenodd" d="M20.2418 6.80958C20.2418 6.80958 20.037 7.25331 20.0029 7.61171L19.9858 7.85064C19.9688 8.15784 20.0029 8.49918 19.9346 8.65278L19.8664 8.53331L19.6957 9.09651C19.6786 9.01118 19.6104 8.73811 19.6274 8.39678V7.91891C19.6274 8.02131 19.5592 8.15784 19.525 8.24318L19.3885 8.00424L19.2861 8.17491L19.269 7.93598L19.252 7.59464C19.269 7.52638 19.3714 7.25331 19.6104 6.99731C19.8834 6.70718 20.1565 6.12691 20.2418 5.93918L20.6856 5.01758H20.9586L20.5661 5.92211C20.5661 5.92211 20.3272 6.39998 20.2077 6.58771L19.7128 7.47518L19.9517 7.20211L20.2418 6.80958Z" fill="#8C6228"/>
<path fill-rule="evenodd" clip-rule="evenodd" d="M21.7595 3.68652C21.7163 3.82378 21.6467 3.9513 21.5547 4.06199C21.3841 4.24972 21.0427 4.50572 20.8721 4.71052C20.7185 4.91532 20.4113 5.46146 20.5478 6.10999C20.599 5.95639 20.7014 5.68332 20.9574 5.37612C21.2134 5.06892 21.4865 4.69346 21.623 4.42039C21.7595 4.13026 21.7766 3.90839 21.7766 3.90839L21.8278 3.85719L21.7937 3.70359L21.7595 3.68652Z" fill="#CBA94C"/>
<path fill-rule="evenodd" clip-rule="evenodd" d="M26.999 20.8725C26.999 20.8725 26.8966 20.5824 26.8625 20.3264C26.8284 20.0704 26.9137 20.0192 26.8113 19.7291C26.7601 19.5413 26.6577 19.5755 26.6236 19.5413C26.5894 19.5072 26.5894 19.2512 26.5894 19.0976C26.5894 18.944 26.5894 18.7733 26.5553 18.688C26.5212 18.6539 26.487 18.6197 26.4358 18.432L26.3164 18.0907C26.2822 18.0395 26.1969 17.9883 26.1969 17.92C26.1969 17.8176 26.2993 17.7493 26.2993 17.7152C26.2822 17.6469 26.214 17.6981 26.1969 17.6811C26.1628 17.664 26.2481 17.4763 26.214 17.4421C26.214 17.4251 26.1116 17.5445 26.0945 17.5104C26.0604 17.4763 26.0433 17.1691 25.9921 16.9643L25.8897 16.5547L25.446 15.2576C25.3779 15.0503 25.321 14.8395 25.2753 14.6261C25.2582 14.5067 25.2412 14.2677 25.2241 14.2848C25.207 14.3019 25.2241 14.4384 25.19 14.4384L25.0876 13.9093C25.0705 13.8411 24.9681 13.6021 24.934 13.4315L24.8145 12.5099L24.7633 11.9979C24.7696 11.8038 24.7582 11.6096 24.7292 11.4176C24.678 11.0933 24.5756 10.7008 24.4902 10.4789C24.3196 10.0352 23.8588 8.92587 23.7734 8.6528C23.7734 8.58454 23.8588 8.61867 23.8588 8.61867C24.1017 9.24171 24.352 9.86184 24.6097 10.4789C24.6268 10.5131 24.8828 10.9397 24.9852 11.6395C25.0876 12.3392 25.1388 12.9877 25.19 13.4144C25.2241 13.6192 25.2582 13.8411 25.3265 14.0459L25.6337 14.8992C25.7702 15.2235 25.8556 15.4795 25.9068 15.7013L25.9921 16.3499L26.1798 17.0667C26.2822 17.4251 26.4529 17.8688 26.5553 18.1589C26.7772 18.7221 26.8625 19.1829 26.8966 19.4389C26.9308 19.6949 27.0161 20.5995 26.999 20.8725Z" fill="#A88F33"/>
<path fill-rule="evenodd" clip-rule="evenodd" d="M21.7587 3.66939V3.68645C21.7587 3.68645 21.7928 3.70352 21.7758 3.75472C21.7811 3.82858 21.7811 3.90273 21.7758 3.97659L21.7246 4.18139C21.7246 4.30085 21.7416 4.45445 21.571 4.79579L21.4686 5.03472L21.332 5.25659C21.4174 5.20539 21.7416 5.00059 21.9123 5.03472C21.7928 5.10299 21.6222 5.22245 21.5198 5.39312H21.827C22.1171 5.34192 22.4243 5.23952 22.7144 5.25659C23.0216 5.27365 22.9022 4.89819 22.9022 4.89819L22.5438 4.11312L21.8782 3.63525L21.7587 3.66939Z" fill="#BE9C44"/>
<path fill-rule="evenodd" clip-rule="evenodd" d="M23.5176 9.52319C23.5176 9.52319 23.2275 9.21599 23.091 8.19199C22.9715 7.15092 23.0056 5.63199 23.0056 5.63199L22.7667 5.03465C22.7667 5.03465 22.7155 4.64212 22.579 4.48852L22.084 3.97652C21.9646 3.85705 21.8451 3.68639 21.7598 3.65225C21.811 3.58399 21.9816 3.22559 22.6472 3.22559C23.3128 3.22559 23.5176 3.58399 23.5859 3.72052C23.6542 3.85705 23.9614 4.43732 24.0808 5.54665C24.2003 6.65599 24.2003 6.74132 24.1832 7.11679C24.1662 7.33865 24.0979 7.83359 23.9784 8.34559C23.859 8.78932 23.7395 9.30132 23.5176 9.52319Z" fill="#A17C34"/>
<path fill-rule="evenodd" clip-rule="evenodd" d="M22.578 10.3936C22.6776 10.4053 22.7785 10.3875 22.8681 10.3424C22.9535 10.3253 23.3119 10.3765 23.5679 10.0352C23.5849 10.1205 23.6361 10.3253 23.5167 10.513L23.6873 10.3936C23.7044 10.496 23.7897 10.7861 23.3972 11.5029C23.4996 11.4005 23.6361 11.4005 23.7385 11.3834C23.7385 11.52 23.8239 11.9808 23.6191 12.2197C23.4996 12.3904 23.2948 12.3392 23.2948 12.3392C23.2985 12.2994 23.2985 12.2594 23.2948 12.2197C23.2777 12.1514 23.2607 12.0832 23.2777 12.032C23.1761 11.9864 23.0836 11.9228 23.0047 11.8442C22.7828 11.6394 22.4927 11.281 22.4756 11.008C22.4415 10.7008 22.7145 10.6325 22.7145 10.6325C22.6942 10.6124 22.677 10.5894 22.6633 10.5642L22.578 10.3936Z" fill="#8C6228"/>
<path fill-rule="evenodd" clip-rule="evenodd" d="M20.5814 7.15093C20.5814 7.15093 20.5644 7.1168 20.4961 7.20213L20.5302 6.98027C20.5599 6.90657 20.6002 6.83758 20.6497 6.77547L20.5985 6.92907C20.5985 6.92907 20.6838 6.74133 20.8204 6.63893C20.9228 6.57067 21.0422 6.51947 21.0934 6.4512C21.1617 6.38293 21.1446 6.36587 21.1617 6.3488C21.1617 6.3488 21.2812 6.26347 21.4689 6.02453L21.5713 5.92213L21.8273 5.80267L22.1857 5.59787C22.3734 5.51253 22.5441 5.5296 22.6294 5.41013C22.6977 5.39307 22.766 5.18827 22.7489 5.03467C22.8513 5.0688 23.3462 5.376 23.5169 6.0416C23.6364 6.51947 23.4145 7.23627 23.3292 7.59467C23.2438 7.95307 23.2268 8.20907 23.0902 8.36267C22.9366 8.58453 22.4246 8.87467 22.2881 9.02827C22.1857 9.14773 21.8614 9.45493 21.8614 9.6768C21.8785 9.84747 22.0833 9.9328 22.1345 9.96693C22.1857 10.0011 22.1686 10.0352 22.254 10.0181L22.4076 9.96693L22.4588 9.984C22.4707 9.97949 22.4821 9.97377 22.4929 9.96693C22.4929 9.96693 22.4929 10.2059 21.9297 10.2741L21.8102 10.3083C21.8785 10.2741 21.9126 10.2741 21.9809 10.1717L21.6225 10.1376L21.759 9.984C21.7932 9.94987 21.742 9.9328 21.7078 9.94987C21.6423 9.99735 21.5796 10.0486 21.5201 10.1035C21.4518 10.1547 21.4006 10.24 21.2982 10.3083C21.2641 10.2059 21.2641 10.0011 21.3836 9.86453C21.3494 9.86453 21.2982 9.94987 21.247 9.9328C21.2374 9.84147 21.2431 9.74916 21.2641 9.65973C21.2812 9.54027 21.4518 9.33547 21.4518 9.33547L22.271 7.8848L22.4417 6.77547L20.5814 7.15093Z" fill="#92723A"/>
<path fill-rule="evenodd" clip-rule="evenodd" d="M20.5308 7.20236C20.5308 7.20236 20.4967 7.23649 20.582 7.28769L20.4967 7.42423L20.3943 7.54369L20.326 7.74849C20.326 7.79969 20.309 8.02156 20.2066 8.19223C20.1554 8.24343 20.1212 8.34583 20.0871 8.41409L19.9506 8.67009C19.9164 8.75543 19.8994 8.99436 19.8994 8.99436L19.9847 8.90903L19.8652 9.09676L20.1383 8.87489C20.3602 8.68716 20.6844 8.37996 21.094 8.15809L20.7868 8.20929C20.8551 8.14103 21.4354 7.45836 21.7426 7.39009C21.7588 7.3648 21.7649 7.33434 21.7596 7.30476L21.5036 7.28769L20.9746 7.40716L20.8892 6.99756L20.5308 7.20236Z" fill="#B18E3E"/>
<path fill-rule="evenodd" clip-rule="evenodd" d="M21.384 9.54026C21.384 9.54026 21.3157 9.60852 21.2474 9.77919C21.2005 9.72762 21.1604 9.67026 21.128 9.60852C21.0256 9.43786 20.872 9.23306 20.5306 9.35252V9.11359C20.5818 9.09652 20.7696 8.95999 20.9402 8.75519C21.0597 8.61866 21.1792 8.44799 21.2474 8.24319L21.5034 8.07252C21.6741 7.95306 21.8789 7.79946 21.896 7.62879C21.8277 7.66292 21.657 7.73119 21.4181 7.73119C21.5034 7.67999 21.657 7.62879 21.64 7.44106L21.7082 7.40692C21.681 7.3964 21.6521 7.39063 21.6229 7.38986C21.6058 7.37279 21.6058 7.33866 21.5546 7.35572L21.5034 7.38986C21.4864 7.38986 21.4181 7.38986 21.384 7.42399L21.1621 7.57759L21.2133 7.49226L20.9914 7.54346C20.8208 7.59466 20.633 7.69706 20.4453 7.79946L20.4794 7.74826L20.5306 7.73119L20.5136 7.66292C20.5713 7.53773 20.6398 7.41781 20.7184 7.30452C20.8208 7.18506 20.8378 7.01439 20.8378 7.01439L21.2304 6.80959L22.3397 6.55359L23.0565 6.60479L22.9712 7.09972L22.5445 7.97012L22.1861 8.77226L21.7594 9.25012L21.384 9.54026Z" fill="#543E26"/>
<path fill-rule="evenodd" clip-rule="evenodd" d="M23.1931 7.37273C23.1931 7.37273 22.7494 7.91886 22.6299 7.98713C22.7153 7.83353 23.1931 6.84366 23.3638 6.57059C23.3297 6.53646 23.2614 6.53646 23.3979 6.05859C23.2955 6.29753 23.2443 6.43406 23.159 6.48526C23.0737 6.53646 23.0737 6.53646 23.0054 6.53646C23.019 6.51644 23.025 6.49225 23.0225 6.46819C23.0225 6.46819 22.6641 6.43406 22.4081 6.43406C22.1521 6.43406 21.6742 6.55353 21.4011 6.67299C21.1793 6.75833 21.0598 6.75833 20.9745 6.80953L20.8209 6.96313C20.7867 6.98019 20.6331 7.03139 20.599 7.08259L20.5137 7.20206C20.5137 7.21913 20.5137 7.23619 20.5478 7.21913L20.7697 7.09966L21.2134 6.86073C21.5889 6.72419 21.7083 6.74126 21.879 6.70713C22.0497 6.69006 22.2886 6.60473 22.4593 6.60473L23.0054 6.62179C22.9883 6.65593 22.9542 6.67299 22.9713 6.79246L22.9201 6.92899L22.6129 7.66286L22.3057 8.24313C22.2374 8.36259 22.1009 8.70393 21.9643 8.89166L21.7083 9.21593C21.6742 9.26713 21.3499 9.47193 21.367 9.55726C21.4182 9.54019 21.7766 9.40366 22.0497 9.11353C22.3227 8.82339 22.3569 8.63566 22.5617 8.48206C22.7665 8.32846 22.9201 8.05539 23.0225 7.83353C23.1078 7.62873 23.0907 7.56046 23.1931 7.37273Z" fill="#806031"/>
<path fill-rule="evenodd" clip-rule="evenodd" d="M13.8066 11.3833C13.8066 11.3833 13.7554 11.6222 13.6188 11.7417C13.4994 11.8611 13.2775 11.9635 13.2434 12.1513C13.2092 12.339 13.4652 12.4414 13.4652 12.4414C13.4652 12.4414 13.3287 12.6633 13.3287 12.8339L13.3458 13.2265C13.3252 13.2397 13.3078 13.2571 13.2946 13.2777C13.2946 13.2777 13.3116 13.4313 13.4311 13.5507C13.5506 13.6702 13.67 13.7043 13.7383 13.6873C13.7447 13.7041 13.7504 13.7211 13.7554 13.7385L13.926 13.2947C13.9943 13.0729 14.0455 13.107 14.0626 12.8169C14.0796 12.5267 14.3698 12.0147 14.3698 12.0147L14.5746 11.5881L14.2503 11.3491L13.8066 11.3833Z" fill="#B6903C"/>
<path fill-rule="evenodd" clip-rule="evenodd" d="M14.3873 11.8101C14.325 11.8797 14.2679 11.9538 14.2167 12.0319C14.1313 12.1343 14.0631 12.2367 13.9436 12.2879C13.8241 12.3391 13.7559 12.3391 13.7559 12.4586C13.7559 12.5781 13.8753 12.6293 13.9436 12.6805C14.0119 12.7487 14.0631 12.8682 14.046 12.9877C14.0801 12.9706 14.1484 12.9365 14.2167 12.7999L14.7287 11.8101H14.3873Z" fill="#685026"/>
<path fill-rule="evenodd" clip-rule="evenodd" d="M16.1797 9.8477C16.1797 9.8477 16.2138 9.7453 16.1797 9.67704C16.1455 9.5917 15.9066 9.57464 15.7871 9.47224C15.6677 9.3869 15.5141 9.31864 15.3946 9.36984C15.4117 9.31864 15.4799 9.21624 15.4287 9.19917C15.3775 9.1821 15.1557 9.2845 15.1045 9.31864L14.8826 9.45517C14.8485 9.4893 14.8143 9.5405 14.7973 9.52344C14.7631 9.50637 14.7631 9.45517 14.7119 9.47224C14.6607 9.4893 14.4559 9.67704 14.4218 9.77944C14.3877 9.88184 14.2853 10.1037 14.0293 10.3597C13.7733 10.6157 13.6538 10.7864 13.7221 10.8717C13.7903 10.957 13.8415 10.9058 13.8586 10.9912C13.8667 11.0712 13.8609 11.152 13.8415 11.2301C13.8074 11.3666 13.7562 11.4861 13.8245 11.5202C14.0122 11.5714 14.1829 11.469 14.217 11.5032C14.3023 11.5714 14.1658 11.8274 14.3535 11.8786C14.5413 11.9298 14.729 11.8274 14.729 11.8274L15.4117 11.469L16.0602 11.1106L16.3845 10.4621L16.2138 9.8989L16.1797 9.8477Z" fill="#D4B968"/>
<path fill-rule="evenodd" clip-rule="evenodd" d="M15.5484 11.4176C15.5484 11.4176 15.4289 11.2469 15.5654 11.0933C15.702 10.9397 15.9068 10.8885 15.975 10.7861C15.9613 10.7705 15.9436 10.7587 15.9238 10.752C15.9728 10.6567 16.0504 10.5791 16.1457 10.5301C16.1116 10.496 16.0604 10.4619 16.0092 10.4619C15.8726 10.4619 15.8044 10.5472 15.6849 10.5472C15.5654 10.5472 15.5484 10.4789 15.5484 10.4789C15.5484 10.4789 15.7532 10.4619 15.7361 10.3765C15.719 10.2912 15.6849 10.2912 15.6849 10.2912C15.6849 10.2912 16.0433 10.1376 16.1116 10.0523C16.1798 9.96695 16.1628 9.88161 16.1798 9.83041C16.231 9.83041 16.487 9.71095 16.5894 9.76215C16.6918 9.81335 16.6236 9.96695 16.6236 9.96695C16.6236 9.96695 16.9308 9.74508 17.0844 9.50615C17.238 9.52321 17.2892 9.40375 17.3916 9.40375C17.5281 9.40375 17.7158 9.59148 17.767 9.94988C17.7841 10.1717 17.8353 10.2912 17.7841 10.6667C17.767 10.8715 17.7841 11.3323 17.8353 11.5541C17.8865 11.7248 17.9889 11.7077 17.9889 11.7077C17.977 11.7665 17.9472 11.8202 17.9036 11.8613C17.8353 11.9125 17.8182 12.0832 17.8353 12.1515C17.8442 12.1976 17.8556 12.2432 17.8694 12.288C17.8694 12.288 17.7841 12.3904 17.767 12.4587C17.75 12.5269 17.6646 12.5611 17.5964 12.5611H17.3233C17.2721 12.544 17.238 12.5269 17.255 12.3563C17.2721 12.1856 16.6065 11.8101 16.6065 11.8101L15.5313 11.4176H15.5484Z" fill="#CCA849"/>
<path fill-rule="evenodd" clip-rule="evenodd" d="M14.3008 13.0558C14.3008 13.0558 14.5397 13.38 15.5125 13.38C15.9733 13.38 16.1269 13.3288 16.2293 13.3118C16.3317 13.2776 16.7072 13.124 17.0997 12.6632C17.4581 12.2536 17.3728 12.083 17.3728 12.083L17.168 12.0488L16.5024 12.1342L14.5397 12.9704L14.3008 13.0558Z" fill="#585136"/>
<path fill-rule="evenodd" clip-rule="evenodd" d="M15.0199 13.1412C15.0199 13.1412 14.1836 13.329 14.1836 12.7999C14.1836 12.2708 14.7127 11.7418 14.8321 11.6394C14.9687 11.537 15.2929 11.4346 15.2929 11.4346H16.0609L16.2145 11.8271L16.1463 12.6634L15.0199 13.1412Z" fill="#252211"/>
<path fill-rule="evenodd" clip-rule="evenodd" d="M15.8023 11.5885C15.8023 11.5885 15.6316 11.4519 15.2732 11.6397C14.9148 11.8274 14.6076 12.2541 14.5906 12.6295C14.5735 12.9709 14.8636 13.2098 15.3244 13.2269C15.6658 13.2439 15.8706 13.2098 15.973 13.1757L15.8194 12.9709L15.8023 11.5885Z" fill="#C3B378"/>
<path fill-rule="evenodd" clip-rule="evenodd" d="M15.6506 11.6736C15.6506 11.6736 15.5994 11.6394 15.497 11.7077C15.3946 11.7589 15.2581 11.8954 15.1386 11.9808L14.985 12.1173C14.8314 12.305 14.6949 12.6122 14.7802 12.7658C14.8655 12.9194 15.1045 13.1072 15.753 12.9877L15.6335 11.6736H15.6506Z" fill="#E6D89C"/>
<path fill-rule="evenodd" clip-rule="evenodd" d="M15.4294 11.9978C15.4294 11.9978 15.327 12.1514 15.327 12.4074C15.327 12.6805 15.4806 13.0901 16.0267 13.1242C16.4363 13.1413 16.7094 12.5269 17.0166 12.2709C17.2555 12.0832 17.392 12.0832 17.392 12.0832C17.392 12.0832 17.1531 11.8272 16.5216 11.5029C15.9072 11.1616 15.2075 11.1274 14.832 11.6394C15.0027 11.6224 15.583 11.4688 15.583 11.4688L15.8731 11.5541L15.4294 11.9978Z" fill="#252211"/>
<path fill-rule="evenodd" clip-rule="evenodd" d="M16.2468 12.339C16.2297 12.2878 16.2126 12.2366 16.2809 12.2366C16.3492 12.2366 16.4004 12.2195 16.4174 12.2878C16.4345 12.356 16.4686 12.3902 16.4345 12.4072C16.4004 12.4243 16.298 12.4072 16.2468 12.339ZM16.1273 11.9635C16.1273 11.9635 16.0932 11.9806 16.1102 11.9464C16.1102 11.9123 16.1444 11.827 16.2297 11.844C16.315 11.8611 16.298 11.9635 16.2809 11.9806C16.2638 11.9976 16.1956 12.0488 16.1444 12.0318C16.1334 12.0247 16.1254 12.0137 16.1223 12.001C16.1191 11.9883 16.1209 11.9749 16.1273 11.9635Z" fill="#6F674D"/>
<path fill-rule="evenodd" clip-rule="evenodd" d="M9.11328 12.1346C9.11328 12.1346 9.31808 12.2882 9.55701 12.2882C9.79595 12.2711 10.0861 12.0322 10.2397 11.8786L10.4615 11.6226C10.5298 11.5543 10.581 11.5202 10.5981 11.469L10.7175 11.2983L10.4957 11.469C10.4103 11.5202 10.2397 11.6226 10.1543 11.6397L9.36928 12.0493L9.11328 12.1346Z" fill="#AC924C"/>
<path fill-rule="evenodd" clip-rule="evenodd" d="M9.41992 10.2228C9.41992 10.2228 9.53939 10.1375 9.76126 10.0863C9.96606 10.0351 10.3927 10.001 10.3927 10.001L10.7511 10.1546L10.8877 10.6836L10.6317 11.2468L10.3074 11.4516L9.93192 10.8543L9.41992 10.2228Z" fill="#9F8E57"/>
<path fill-rule="evenodd" clip-rule="evenodd" d="M8.95931 10.701L8.83984 10.7863L8.90811 10.5644C8.94224 10.3938 9.06171 9.9671 9.24944 9.7111C9.43718 9.4551 9.45424 9.48924 9.45424 9.48924C9.41919 9.48122 9.3824 9.48735 9.35184 9.5063C9.36891 9.4551 9.53958 9.2503 9.71024 9.1479C9.88091 9.0455 9.93211 9.01137 10.1028 9.0967C10.2734 9.18204 10.3246 9.21617 10.4441 9.21617C10.5636 9.21617 10.683 9.07964 10.683 9.07964C10.683 9.07964 10.7172 9.16497 10.6148 9.3527C10.5124 9.54044 10.1369 9.93297 10.1369 9.93297L9.35184 10.4791L8.95931 10.701Z" fill="#EAC970"/>
<path fill-rule="evenodd" clip-rule="evenodd" d="M9.54102 10.1548C9.54102 10.1548 10.1213 10.2402 10.2919 10.0695L10.3261 10.1036C10.325 10.1168 10.3189 10.129 10.309 10.1378C10.3257 10.1309 10.3428 10.1252 10.3602 10.1207C10.3823 10.1287 10.4052 10.1344 10.4285 10.1378C10.4512 10.1397 10.474 10.1397 10.4967 10.1378C10.4936 10.1521 10.4874 10.1657 10.4786 10.1775C10.4698 10.1893 10.4585 10.199 10.4455 10.206L10.4967 10.2231C10.4967 10.2402 10.5138 10.3084 10.4797 10.3255C10.4501 10.3307 10.4196 10.3246 10.3943 10.3084C10.3929 10.3616 10.4047 10.4144 10.4285 10.462C10.4797 10.5474 10.5991 10.6668 10.7357 10.6327C10.7357 10.6327 10.821 10.8204 10.4967 11.23L10.3431 11.4348C10.3206 11.484 10.3034 11.5355 10.2919 11.5884C10.2919 11.5884 10.8551 11.3666 11.0087 10.8887C11.1623 10.3938 11.1965 9.91589 11.1623 9.47215C11.1623 9.33562 11.1453 9.25029 11.1111 9.18202C11.0258 9.02842 10.821 9.04549 10.7186 9.14789C10.5991 9.26735 10.3943 9.59162 10.0871 9.79642C9.79702 10.0183 9.77995 10.0524 9.54102 10.1548Z" fill="#D7BC6B"/>
<path fill-rule="evenodd" clip-rule="evenodd" d="M8.85774 10.8544C8.85774 10.8544 8.75534 10.9227 8.70414 11.1616C8.63587 11.4176 8.75534 11.7078 8.80654 11.8102C8.85774 11.9126 9.01134 12.1686 9.31854 12.1856C9.38949 12.1821 9.45905 12.1647 9.52334 12.1344C9.6268 12.0899 9.72427 12.0326 9.81347 11.9638L10.0353 11.776L9.25027 11.1446L8.96014 10.8203L8.85774 10.8544Z" fill="#585136"/>
<path fill-rule="evenodd" clip-rule="evenodd" d="M9.57529 11.8784C9.57529 11.8784 9.72889 11.8784 9.81422 11.8101C9.89956 11.7419 9.28516 11.1445 9.28516 11.1445L9.33636 11.8101L9.57529 11.8784Z" fill="#453A25"/>
<path fill-rule="evenodd" clip-rule="evenodd" d="M8.90874 10.8032L8.84048 10.9909C8.82341 11.1275 8.85754 11.52 8.89168 11.6395C8.92581 11.776 9.09648 11.9808 9.31834 11.9808C9.43781 11.9808 9.62554 11.9125 9.62554 11.8784C9.62554 11.8613 9.43781 11.8272 9.38661 11.7419C9.35248 11.6907 9.33541 11.5541 9.33541 11.4347C9.33541 11.3493 9.33541 11.2469 9.36954 11.2299C9.43781 11.1445 9.43781 10.9227 9.43781 10.9227L9.69381 10.4619H9.36954L8.97701 10.7008L8.90874 10.8032Z" fill="#84754B"/>
<path fill-rule="evenodd" clip-rule="evenodd" d="M8.82422 10.9569C8.82422 10.9569 9.08022 10.6156 9.30209 10.5303C9.52395 10.4449 9.64342 10.4961 9.64342 10.4961L9.50689 10.8545L9.31915 11.0593V11.1617C9.31915 11.1617 9.30209 11.4519 9.48982 11.6567C9.67755 11.8615 9.81409 11.8444 9.89942 11.8444C9.98475 11.8444 10.2237 11.7761 10.3432 11.486C10.4626 11.2129 10.548 10.8716 10.3261 10.5303C10.1213 10.1889 9.74582 10.1719 9.66049 10.1719C9.57515 10.1719 9.02902 10.206 8.82422 10.9569Z" fill="#252211"/>
<path fill-rule="evenodd" clip-rule="evenodd" d="M15.3944 12.1003C15.292 12.0661 15.3944 11.7931 15.4798 11.7077C15.5651 11.6224 15.7016 11.5371 15.9064 11.52C15.9918 11.5029 16.06 11.5541 16.06 11.6053C16.0259 11.7077 15.9064 11.8443 15.7699 11.9296C15.6163 12.0661 15.4968 12.1515 15.3944 12.1003Z" fill="#F7F7E7"/>
<path fill-rule="evenodd" clip-rule="evenodd" d="M10.2044 10.6323C10.2897 10.6323 10.3751 10.6835 10.3921 10.7689C10.4092 10.8371 10.3409 11.0078 10.2044 11.0078C10.102 11.0078 10.0508 10.8713 10.0508 10.8371C10.0503 10.8078 10.0561 10.7787 10.0679 10.7518C10.0849 10.7347 10.0849 10.6494 10.2044 10.6323Z" fill="#F8F6DE"/>
<path fill-rule="evenodd" clip-rule="evenodd" d="M9.19748 10.7007C9.19748 10.7007 9.02681 10.786 8.94148 10.9567C8.88255 11.0847 8.86467 11.2277 8.89028 11.3663L9.00975 11.6394C9.04388 11.6906 9.11215 11.7418 9.16335 11.7418C9.21455 11.7418 9.29988 11.6052 9.29988 11.537C9.29988 11.4687 9.29988 11.1786 9.38521 11.0079C9.45348 10.8543 9.19748 10.7007 9.19748 10.7007Z" fill="#D4C38B"/>
<path fill-rule="evenodd" clip-rule="evenodd" d="M9.23181 10.6837C9.19768 10.7007 9.14648 10.7178 9.16355 10.7519C9.16355 10.7861 9.28301 10.8031 9.31715 10.8885C9.36835 10.9567 9.36835 11.0421 9.35128 11.0933C9.38358 11.0758 9.41248 11.0527 9.43661 11.025C9.50488 10.9567 9.57315 10.8714 9.62435 10.8714L9.74381 10.8885C9.79501 10.8885 9.86328 10.8714 9.86328 10.8031C9.88035 10.7349 9.76088 10.6666 9.69261 10.6666C9.69261 10.6154 9.70968 10.5471 9.65848 10.4959C9.60728 10.4447 9.41955 10.5301 9.38541 10.5642L9.23181 10.6837Z" fill="#E2D59D"/>
<path fill-rule="evenodd" clip-rule="evenodd" d="M13.3458 16.1283L13.7213 16.0088L13.8408 16.0941C13.8408 16.0941 13.909 16.2477 14.0285 16.2648C13.9944 16.3501 13.892 16.4184 13.892 16.4867C13.892 16.5549 13.9603 16.5891 13.9603 16.5891C13.9603 16.5891 13.6189 17.1523 14.2845 17.7325L13.8237 17.9373C13.892 17.9544 14.0626 17.9885 14.1309 18.0568L14.2675 18.1763C14.3357 18.2104 14.3698 18.2616 14.3528 18.2787C14.3187 18.2616 14.1651 18.1763 14.1309 18.2616C14.0968 18.3469 13.4994 18.2957 13.4994 18.2957L12.4584 18.5005C12.4584 18.5005 12.5096 18.3981 12.3901 18.2957C12.2707 18.1933 12.117 18.3128 11.9464 18.1763C11.7245 18.0056 11.7245 17.8179 11.6562 17.7496C11.7245 17.6984 11.8611 17.6472 12.2024 17.596C12.1853 17.5619 12.1512 17.4936 12.1683 17.4253C12.2024 17.3229 12.3389 17.2717 12.2877 17.1693C12.356 17.1523 12.3731 17.1523 12.5096 16.9816C12.6461 16.7939 12.7314 16.7597 12.8339 16.7427C12.9362 16.7256 13.0045 16.7427 13.1923 16.572C13.3288 16.4355 13.2947 16.3331 13.2947 16.3331C13.2947 16.3331 13.38 16.2989 13.3458 16.1283Z" fill="#CBAC5A"/>
<path fill-rule="evenodd" clip-rule="evenodd" d="M12.2207 16.1792C12.2207 16.1451 12.2378 16.1451 12.3743 16.1451L13.6372 16.0597C14.5996 16.0289 15.5596 16.1735 16.4703 16.4864C16.4703 16.5205 16.4191 16.5376 16.385 16.5376C16.3679 16.5205 15.6852 16.3157 15.4804 16.2816C15.2756 16.2475 14.5418 16.1109 14.1492 16.128C13.7738 16.128 13.6202 16.1109 13.313 16.1451C13.0058 16.1963 12.4767 16.2475 12.3231 16.2304C12.1695 16.1963 12.2036 16.1963 12.2207 16.1792Z" fill="#D6BC6F"/>
<path fill-rule="evenodd" clip-rule="evenodd" d="M14.3005 18.2104C14.3005 18.2104 14.8296 18.5005 15.0173 18.8418C15.1539 19.1149 14.932 19.2344 14.932 19.2344C14.932 19.2344 15.2392 19.2344 15.188 19.405C15.1709 19.5074 14.676 19.7805 14.3517 19.9341C14.0104 20.0877 14.0104 20.0706 13.8568 20.1048C13.6861 20.1218 13.2595 20.0536 13.1571 20.173C13.0547 20.2925 13.1059 20.4461 13.14 20.4632L13.3789 20.4973C13.3789 20.4973 13.3277 20.6338 12.884 20.6338C12.4403 20.6338 12.3549 20.685 12.3208 20.7362C12.3037 20.7704 12.4061 20.7533 12.6109 20.7874L13.0888 20.8386C13.0888 20.8386 12.9864 20.9069 12.7645 20.9752C12.4915 21.0434 12.0648 21.1117 11.9453 21.18C11.9965 21.2312 12.0989 21.2994 12.1501 21.2994C12.0307 21.3165 11.8771 21.3848 11.86 21.4018L11.9453 21.453C11.9453 21.453 11.7235 21.7261 11.604 21.7773C11.4845 21.8285 10.7507 22.1869 10.4947 22.1186C9.8632 21.965 9.79493 21.2653 9.64133 21.2141C9.4024 21.1458 9.3 21.2994 9.0952 21.197L9.33413 21.0434L8.6856 20.6509C8.62914 20.5283 8.56648 20.4087 8.49786 20.2925C8.39546 20.1218 8.24186 19.8829 8.13946 19.661C7.88346 19.2002 7.8664 18.9954 7.64453 18.7394C7.67866 18.6882 7.8152 18.6882 7.8152 18.6882L9.7096 19.3026L13.0547 19.405L13.9251 18.1592L14.3005 18.2104Z" fill="#DFC677"/>
<path fill-rule="evenodd" clip-rule="evenodd" d="M9.33594 20.1046C9.35605 20.1249 9.37905 20.1421 9.4042 20.1558C9.47247 20.207 9.57487 20.2582 9.62607 20.3264C9.6602 20.2923 9.72847 20.224 9.83087 20.3264C9.93327 20.4288 10.0869 20.3606 10.1893 20.3947L10.2746 20.4288L10.4453 20.3435L10.6842 20.2752L10.9231 20.224C10.9743 20.2752 11.1791 20.48 11.9983 20.1728C12.7834 19.8656 12.9541 19.8315 13.0906 19.8827C13.1077 19.8486 13.1077 19.7803 13.3125 19.7974C13.3125 19.712 13.1418 19.439 13.1418 19.439L12.2373 19.1147H11.7423L10.2405 19.3878L9.4042 19.8656L9.33594 20.1046Z" fill="#C4A859"/>
<path fill-rule="evenodd" clip-rule="evenodd" d="M8.83984 19.5755C8.83984 19.5755 8.85691 19.712 9.06171 19.8656C9.26651 20.0192 9.33478 20.1046 9.33478 20.1046L9.40304 20.0022C9.43718 19.9339 9.45424 19.8827 9.50544 19.8656C9.60784 19.8144 9.84678 19.8998 9.89798 19.8827C9.94918 19.8656 9.93211 19.7803 9.98331 19.7803C10.0857 19.7803 10.154 19.8486 10.2052 19.8486C10.2564 19.8486 10.3246 19.8486 10.3417 19.8315C10.3588 19.8144 10.3588 19.5926 10.5124 19.4902C10.666 19.3707 10.8708 19.4219 10.922 19.439C10.922 19.4902 10.922 19.5755 11.0244 19.5926C11.1268 19.6096 11.1438 19.5755 11.2292 19.6096C11.3145 19.6438 11.434 19.5926 11.4852 19.7462C11.5193 19.7462 11.6217 19.7291 11.6046 19.5755C11.6558 19.5414 11.707 19.5072 11.8094 19.3536L11.9118 19.2171C11.9972 19.2171 12.1166 19.2 12.2532 19.3366L12.1678 19.4048C12.2061 19.4471 12.2403 19.4928 12.2702 19.5414C12.3214 19.5926 12.3385 19.6438 12.3897 19.6608C12.4921 19.695 12.6798 19.6438 12.8846 19.6608C13.0724 19.6779 13.226 19.7462 13.2942 19.7803H13.3966C13.4649 19.7974 13.499 19.7974 13.4308 19.712C13.4649 19.7291 13.5161 19.7803 13.5502 19.7291C13.5844 19.6779 13.6185 19.6438 13.738 19.6267C13.8574 19.6096 13.8745 19.6267 13.9257 19.5243C13.9769 19.3707 13.7892 19.3707 13.7892 19.3707L13.9769 19.183C14.0964 19.0806 14.2329 18.927 14.267 18.7392C14.3353 18.415 14.011 18.3638 14.011 18.3638L12.4238 18.8587L10.4953 18.7563L8.83984 19.5755Z" fill="#927D49"/>
<path fill-rule="evenodd" clip-rule="evenodd" d="M7.42295 15.0015C7.42295 15.0015 7.37175 15.0697 7.33762 15.2233L7.28642 15.4623C7.25229 15.5647 6.94509 16.6569 7.06455 17.0324C7.18402 17.4079 7.38882 17.5273 7.52535 17.8175C7.54242 17.8857 7.57655 17.9199 7.57655 17.9881C7.62775 18.1759 7.59362 18.3124 7.64482 18.5172C7.66189 18.5684 7.71309 18.6537 7.78135 18.722C7.93495 18.8927 8.17389 19.0463 8.29335 19.1487C8.44695 19.3193 8.65175 19.6436 8.94189 19.6607C9.07842 19.6948 9.30029 19.6265 9.47095 19.5241C9.62455 19.4217 9.70989 19.2852 9.88055 19.2169C9.98295 19.1487 10.1195 19.1316 10.2219 19.1145C10.4438 19.0633 10.6486 19.0633 10.768 19.0804C10.9558 19.1316 11.3995 19.2511 11.6384 19.2511C11.8282 19.2509 12.0173 19.228 12.2016 19.1828L13.328 18.8073L13.7718 18.7049C14.0107 18.6537 14.2155 18.5684 14.335 18.4319C14.2667 18.3295 14.1643 18.1929 13.6523 18.1929C13.055 18.21 12.3894 18.5343 12.048 18.5855C11.7067 18.6367 11.5702 18.6879 11.1947 18.5513C10.8363 18.4148 10.8192 18.3295 10.8192 18.3295C10.8192 18.3295 10.4438 18.0564 10.2731 17.3737C10.1024 16.6911 10.2731 16.1961 10.6998 15.7183C10.8022 15.5988 10.768 15.4793 10.768 15.4793C10.768 15.4793 11.0411 15.1209 10.9728 14.7625C10.8875 14.4212 10.3584 14.4895 10.3584 14.4895L7.42295 15.0015Z" fill="#6E6342"/>
<path fill-rule="evenodd" clip-rule="evenodd" d="M7.8662 16.1621C7.84309 16.2039 7.83132 16.2509 7.83206 16.2986C7.83206 16.3669 7.84913 16.4693 8.071 16.657C8.24166 16.8448 8.20753 17.0496 8.20753 17.0496C8.20753 17.0496 8.29286 17.0666 8.5318 16.9472C8.7366 16.8618 8.7878 17.0154 8.7878 17.0154C8.84681 16.9873 8.91039 16.9699 8.97553 16.9642C9.02973 16.958 9.08205 16.9406 9.12913 16.913C9.12913 16.913 9.351 17.1349 9.5558 17.2544C9.72646 17.3397 9.82886 17.408 9.93126 17.3397C9.99953 17.2885 9.99953 17.169 9.99953 17.1178C9.98209 17.0699 9.95918 17.0241 9.93126 16.9813C9.863 16.896 9.77766 16.8106 9.77766 16.7253C9.7606 16.5546 9.89713 16.3328 9.88006 16.2816C9.863 16.2304 9.72646 16.2133 9.43633 16.3157C9.1462 16.4181 7.84913 16.1621 7.84913 16.1621H7.8662Z" fill="#39331F"/>
<path fill-rule="evenodd" clip-rule="evenodd" d="M8.53237 17.3228C8.53237 17.3228 8.39583 17.1863 8.44703 16.5036C8.51006 16.5022 8.57303 16.5079 8.63477 16.5207C8.63477 16.5207 8.70303 17.0498 8.53237 17.3228Z" fill="#292311"/>
<path fill-rule="evenodd" clip-rule="evenodd" d="M7.49315 14.4896C7.5117 14.474 7.52883 14.4569 7.54435 14.4384C7.49315 14.5408 7.25422 14.9162 7.44195 15.5136C7.64675 16.128 8.12462 16.5717 8.72195 16.5888C9.31929 16.6058 9.62649 16.3157 9.98489 15.889L10.4116 15.3429C10.6334 15.121 10.8041 15.0528 10.8041 14.8309C10.8041 14.3701 10.3262 14.1653 9.64355 13.9605C8.96089 13.7557 8.34649 13.7898 8.02222 13.9264C7.69795 14.08 7.57849 14.2336 7.49315 14.4896Z" fill="#252211"/>
<path fill-rule="evenodd" clip-rule="evenodd" d="M9.69336 17.5276L9.74456 17.4934C9.74456 17.4934 9.76163 17.2886 9.82989 17.3057C9.91523 17.3057 9.96643 17.4252 9.94936 17.4593C9.94936 17.4934 9.93229 17.5617 9.84696 17.5617C9.72749 17.5617 9.69336 17.5276 9.69336 17.5276Z" fill="#3F3824"/>
<path fill-rule="evenodd" clip-rule="evenodd" d="M9.45508 16.657C9.45508 16.657 9.50628 16.64 9.57454 16.6912C9.62574 16.6912 9.84761 16.6741 9.91588 16.7082C9.98414 16.7424 10.0012 16.7936 10.0012 16.7936C10.0012 16.7936 9.74521 16.8618 9.60868 16.7936C9.45508 16.7424 9.45508 16.657 9.45508 16.657Z" fill="#2D2815"/>
<path fill-rule="evenodd" clip-rule="evenodd" d="M10.6144 16.6912C10.6144 16.6741 10.4779 16.5888 10.3243 16.5546C10.2902 16.5376 10.2902 16.5717 10.2731 16.5717L10.256 16.5205L10.1707 16.5717C10.1707 16.5717 10.1536 16.5888 10.2048 16.6229C10.239 16.64 10.3072 16.6741 10.3243 16.7253L10.3414 16.7936C10.3584 16.8106 10.4438 16.7936 10.495 16.7765L10.6144 16.6912Z" fill="#82764F"/>
<path fill-rule="evenodd" clip-rule="evenodd" d="M9.30078 17.2202C9.30078 17.2202 9.33491 17.0324 9.50558 17.0324C9.67625 17.0154 9.71038 17.186 9.71038 17.186L9.60798 17.2884C9.60798 17.2884 9.53971 17.186 9.30078 17.2202Z" fill="#2D2816"/>
<path fill-rule="evenodd" clip-rule="evenodd" d="M10.428 16.4523C10.428 16.4523 10.3427 16.5547 10.1208 16.5888C10.1037 16.5547 10.0696 16.5035 10.1208 16.4181C10.172 16.3328 10.2403 16.3157 10.3085 16.3328C10.3379 16.3388 10.3649 16.3534 10.3862 16.3746C10.4074 16.3959 10.4219 16.4228 10.428 16.4523Z" fill="#574F35"/>
<path fill-rule="evenodd" clip-rule="evenodd" d="M10.8197 16.5717V16.5376C10.8367 16.5376 10.905 16.4864 10.922 16.5035V16.5547L10.905 16.6229C10.8879 16.6571 10.8367 16.6571 10.8026 16.6571C10.7684 16.6571 10.7855 16.6059 10.7855 16.6059L10.8197 16.5717ZM11.2634 16.2987L11.3317 16.2645C11.3658 16.2645 11.3658 16.2816 11.3828 16.2987L11.3999 16.3157C11.417 16.3499 11.4341 16.384 11.417 16.4011L11.3487 16.4352L11.2634 16.2987Z" fill="#82764F"/>
<path fill-rule="evenodd" clip-rule="evenodd" d="M10.377 16.6401C10.377 16.6401 10.4282 16.6401 10.5135 16.7084L10.4452 16.7425C10.4452 16.7425 10.4452 16.6913 10.377 16.6401Z" fill="#6E6342"/>
<path fill-rule="evenodd" clip-rule="evenodd" d="M10.2402 16.0595L10.3256 16.0254L10.3938 16.0595C10.428 16.0595 10.428 16.0425 10.445 16.0254H10.5133C10.5195 16.0306 10.5252 16.0363 10.5304 16.0425C10.5296 16.0332 10.5307 16.0239 10.5336 16.0151C10.5366 16.0063 10.5413 15.9982 10.5474 15.9913C10.5582 15.9866 10.5698 15.9841 10.5816 15.9841C10.5933 15.9841 10.6049 15.9866 10.6157 15.9913L10.6498 16.0766C10.6498 16.0937 10.5645 16.1107 10.5474 16.0937L10.6328 16.2131C10.6498 16.2302 10.5645 16.2473 10.5474 16.2473C10.5133 16.2473 10.2914 16.1107 10.2402 16.0595ZM10.5816 15.6329C10.5792 15.6201 10.5733 15.6083 10.5645 15.5987C10.5474 15.5987 10.4792 15.5987 10.4792 15.6329C10.4792 15.667 10.5304 15.8377 10.5986 15.923C10.6498 16.0254 10.701 16.0937 10.7522 16.1107C10.7641 16.1143 10.7767 16.1147 10.7887 16.1117C10.8008 16.1087 10.8117 16.1024 10.8205 16.0937L10.8376 15.7523L10.8034 15.3086H10.7181C10.684 15.3257 10.5986 15.5987 10.5816 15.6329Z" fill="#585136"/>
<path fill-rule="evenodd" clip-rule="evenodd" d="M10.359 16.9643C10.359 16.9643 10.2566 16.896 10.1712 16.9472C10.0859 16.9813 10.103 17.1349 10.103 17.1349C10.1202 17.14 10.1384 17.1411 10.1561 17.1381C10.1738 17.1352 10.1907 17.1282 10.2054 17.1179C10.2736 17.0837 10.3419 17.0155 10.359 16.9643Z" fill="#574F35"/>
<path fill-rule="evenodd" clip-rule="evenodd" d="M10.5317 17.1689C10.5317 17.1177 10.4805 17.1177 10.4805 17.0835C10.4842 17.0731 10.4911 17.0641 10.5004 17.0579C10.5096 17.0518 10.5206 17.0488 10.5317 17.0494C10.5658 17.0494 10.5829 17.0665 10.617 17.1006C10.6511 17.1177 10.7023 17.1518 10.7023 17.1859C10.7023 17.2201 10.6511 17.3395 10.5829 17.3395C10.5146 17.3395 10.5487 17.2201 10.5317 17.1689ZM11.0266 17.1006C11.0266 17.1006 10.9242 17.1177 10.9242 17.1006C10.9242 17.0835 10.9583 17.0494 10.9925 17.0494C11.0125 17.0358 11.0367 17.0298 11.0607 17.0323C11.0718 17.0284 11.0838 17.0284 11.0949 17.0323C11.0949 17.0323 11.1631 17.0153 11.1973 17.0323C11.2314 17.0494 11.1973 17.0494 11.2143 17.0665C11.2303 17.0866 11.2419 17.1099 11.2485 17.1347C11.2485 17.1689 11.1631 17.203 11.0949 17.203C11.0266 17.1859 11.0437 17.1006 11.0266 17.1006ZM11.6239 16.9811C11.6239 16.9811 11.6581 16.9982 11.641 17.0153C11.6239 17.0323 11.5215 17.0665 11.4533 17.0665H11.2997L11.4021 16.9641C11.4116 16.9565 11.4226 16.9511 11.4344 16.9482C11.4461 16.9452 11.4584 16.9448 11.4703 16.947L11.6581 16.9299C11.6922 16.9129 11.7093 16.9299 11.6922 16.9641L11.6239 16.9811ZM11.8117 16.179C11.8117 16.179 11.7775 16.2643 11.7263 16.2643C11.6751 16.2643 11.6751 16.2473 11.6751 16.2302L11.7263 16.1449L11.6751 16.1278C11.6751 16.0937 11.7263 16.0595 11.7605 16.0766C11.7877 16.0482 11.8239 16.0302 11.8629 16.0254C11.9141 16.0254 11.9482 16.0425 11.9482 16.0766C11.9482 16.1107 11.897 16.1619 11.8799 16.1619C11.8629 16.179 11.8287 16.1961 11.8117 16.179ZM11.2143 17.715C11.2143 17.715 11.1631 17.715 11.1631 17.7321L11.1973 17.7491C11.2094 17.7451 11.2209 17.7393 11.2314 17.7321C11.2314 17.7491 11.2314 17.7662 11.2826 17.7662C11.313 17.7604 11.342 17.7489 11.3679 17.7321C11.4021 17.7321 11.4191 17.715 11.4191 17.6809C11.4021 17.6467 11.385 17.6297 11.3509 17.6297C11.3288 17.6218 11.3047 17.6218 11.2826 17.6297C11.2826 17.6297 11.2826 17.6126 11.2314 17.6297C11.1802 17.6467 11.1973 17.6638 11.1973 17.6809C11.2314 17.6979 11.2143 17.715 11.2143 17.715ZM10.9242 17.971C10.9242 17.971 10.9925 17.9369 11.0095 17.9539L11.0778 18.0563L10.9925 18.1075L10.9242 18.0563L10.9583 18.0393L10.9242 17.971ZM10.7194 17.5955L10.7535 17.5614C10.7646 17.5575 10.7766 17.5575 10.7877 17.5614C10.7929 17.5521 10.8003 17.5442 10.8092 17.5382C10.8181 17.5323 10.8283 17.5285 10.8389 17.5273L10.8901 17.5443L10.9071 17.6467C10.9071 17.6809 10.8901 17.715 10.8389 17.7321L10.6682 17.7491C10.6511 17.7491 10.6341 17.6979 10.6511 17.6638L10.7194 17.5955Z" fill="#82764F"/>
<path fill-rule="evenodd" clip-rule="evenodd" d="M10.8024 17.6128L10.7512 17.664C10.7496 17.6753 10.7496 17.6868 10.7512 17.6981L10.8195 17.6811L10.8024 17.6128Z" fill="#6E6342"/>
<path fill-rule="evenodd" clip-rule="evenodd" d="M10.411 17.4932L10.5305 17.5102C10.5475 17.5273 10.5646 17.5444 10.5475 17.5785C10.5305 17.6126 10.4963 17.6638 10.4281 17.6468C10.3598 17.6468 10.3086 17.6126 10.3086 17.5785C10.3084 17.5627 10.3113 17.5471 10.3171 17.5324C10.323 17.5178 10.3317 17.5044 10.3427 17.4932H10.411Z" fill="#585136"/>
<path fill-rule="evenodd" clip-rule="evenodd" d="M10.3934 17.5275L10.291 17.6128L10.0862 17.8517C10.1013 17.8275 10.1184 17.8047 10.1374 17.7835C10.0896 17.8169 10.0537 17.8647 10.035 17.92C10.0009 18.0224 10.2057 18.0736 10.3422 18.1077L10.53 18.1589C10.477 18.0838 10.4313 18.0038 10.3934 17.92C10.3422 17.8005 10.3252 17.7835 10.3422 17.7323L10.4105 17.5957L10.3934 17.5275Z" fill="#574F35"/>
<path fill-rule="evenodd" clip-rule="evenodd" d="M7.44141 17.7322C7.45835 17.7351 7.47566 17.7351 7.49261 17.7322C7.52674 17.7152 7.93634 17.5786 8.36301 17.5957C8.6746 17.6157 8.98338 17.6671 9.28461 17.7493C9.83074 17.8858 10.4793 18.176 10.9059 18.3296L11.2131 18.4832C11.5374 18.6026 11.5545 18.6026 11.7422 18.6368C11.9811 18.6709 12.203 18.6026 12.4419 18.5514C12.7321 18.4832 13.2441 18.449 13.6878 18.3808C13.8322 18.3646 13.9749 18.336 14.1145 18.2954C14.1145 18.2954 13.7561 18.6368 12.9198 18.7733C12.5745 18.8219 12.2241 18.8219 11.8787 18.7733C11.6057 18.7562 11.435 18.7221 11.2985 18.6709L10.4451 18.4149L9.54061 18.2272C8.68727 18.0736 7.76567 17.9029 7.44141 17.7322Z" fill="#252211"/>
<path fill-rule="evenodd" clip-rule="evenodd" d="M6.48466 16.128L5.8532 16.6229L5.20466 17.1179L4.55613 17.6128C4.55042 17.6014 4.54473 17.59 4.53906 17.5787L5.1876 17.1008L5.81906 16.6059L6.48466 16.128ZM5.35826 17.9371L5.87026 17.4763C6.22866 17.152 6.65533 16.7253 6.80893 16.64L5.35826 17.9371Z" fill="#CFB66C"/>
<path fill-rule="evenodd" clip-rule="evenodd" d="M5.35938 17.9371C5.46178 17.8176 5.58124 17.7152 5.71778 17.6128L5.88844 17.4421L6.07618 17.2715L6.41751 16.9301C6.47121 16.8701 6.52818 16.8132 6.58818 16.7595C6.61922 16.7324 6.65364 16.7094 6.69058 16.6912C6.72471 16.6741 6.75884 16.64 6.81004 16.64L6.72471 16.7253L6.63937 16.8107L6.45164 16.9643L6.09324 17.2885L5.73484 17.6128L5.35938 17.9371ZM6.89538 16.896C6.89538 16.896 6.05911 17.7323 5.88844 17.8688L6.89538 16.896Z" fill="#CFB66C"/>
<path fill-rule="evenodd" clip-rule="evenodd" d="M6.89365 16.896C6.81953 16.9863 6.73973 17.0718 6.65472 17.152L6.39872 17.3909L6.14272 17.6469L5.88672 17.8688L6.12565 17.6299L6.39872 17.3909L6.63765 17.152L6.89365 16.896ZM6.94485 17.3568C6.86186 17.5733 6.76495 17.7843 6.65472 17.9883C6.44992 18.4149 6.12565 18.9611 5.97205 19.2341L6.94485 17.3568Z" fill="#CFB66C"/>
<path fill-rule="evenodd" clip-rule="evenodd" d="M6.94546 17.3569C6.94546 17.4423 6.91132 17.5276 6.87719 17.6129C6.8471 17.6942 6.81292 17.774 6.77479 17.8519L6.65532 18.0908L6.51879 18.3297L6.26279 18.7905L5.97266 19.2343L6.21159 18.7735C6.31399 18.6199 6.38226 18.4663 6.46759 18.2956C6.51144 18.218 6.55131 18.1383 6.58706 18.0567L6.68946 17.8177L6.79186 17.5788C6.84306 17.5105 6.87719 17.4252 6.94546 17.3569Z" fill="#CFB66C"/>
<path fill-rule="evenodd" clip-rule="evenodd" d="M7.86866 19.4731C7.86866 19.4731 7.61266 19.8145 7.62972 20.2411C7.69799 20.0193 7.78332 19.6779 7.86866 19.4731ZM8.10759 19.8145C8.10759 19.8145 8.02226 20.7361 7.93692 21.1969C8.03932 20.6678 8.07346 20.7019 8.10759 19.8145ZM9.79719 21.2481C9.79719 21.2481 9.42172 22.3745 9.40466 22.6817L9.79719 21.2481Z" fill="#DEC270"/>
<path fill-rule="evenodd" clip-rule="evenodd" d="M10.7012 19.4048C10.7012 19.4048 11.3156 20.4288 11.7764 21.2992C11.6569 20.8725 11.3668 20.0533 10.7012 19.4048Z" fill="#CBAF59"/>
<path fill-rule="evenodd" clip-rule="evenodd" d="M12.373 20.9067C12.7147 21.515 13.0224 22.1417 13.2946 22.7841C13.2264 22.3403 13.0898 21.5894 12.373 20.9067Z" fill="#E3C677"/>
<path fill-rule="evenodd" clip-rule="evenodd" d="M17.2726 22.4256C17.375 22.3573 17.5798 22.016 17.7675 21.9136C17.9382 21.8282 18.0747 21.8112 18.2283 21.6405C18.399 21.4528 18.4331 21.3333 18.7915 21.1797C19.2864 20.9749 18.9451 20.7018 18.9451 20.7018C18.9982 20.6466 19.0552 20.5953 19.1158 20.5482C19.2523 20.4629 19.3888 20.3434 19.3888 20.1386C19.3547 19.7973 19.3035 19.2853 19.0134 18.9952C19.2864 18.944 19.8155 18.9098 20.1398 18.8245C20.5152 18.7221 20.6859 18.5856 20.6859 18.5856C20.6859 18.5856 20.4811 18.2272 20.8224 17.8517C21.1638 17.4762 21.471 17.2544 21.6758 16.8277C21.4368 16.8106 21.0614 16.6741 20.1227 17.0325C20.1701 17.0579 20.2157 17.0864 20.2592 17.1178C20.2592 17.1178 19.679 17.2714 19.4742 17.4592C19.0987 17.7664 19.0475 18.0224 18.655 18.2101C18.2624 18.3978 17.8528 18.3637 17.5115 18.5173C17.1702 18.6709 17.136 18.8074 17.0166 18.8586C17.0336 18.8928 16.9995 18.944 17.0507 18.9781C17.0166 19.0293 16.8459 19.3194 16.6582 19.3194C16.6752 19.3877 16.8288 19.4389 16.8288 19.4389C16.8288 19.4389 16.7094 19.5242 16.4192 19.5413C16.5728 19.6949 16.7094 19.8656 17.1019 20.1216C17.0678 20.1728 16.9312 20.2752 16.9995 20.3946C17.0507 20.5141 17.2043 20.6848 17.7846 20.8213C17.4774 20.8384 17.136 20.9066 16.6582 20.8384C16.1803 20.7872 16.112 20.753 15.8219 20.8213C15.839 20.8554 15.9243 20.8554 16.0096 20.9237C15.9243 20.9408 15.4294 20.8725 15.2758 21.0944C15.1104 21.3412 15.0268 21.6337 15.0368 21.9306C14.9515 21.9818 14.8662 22.0501 14.9003 22.2208C14.9344 22.3914 15.1734 22.4256 15.327 22.528C15.4635 22.6474 15.4806 22.6816 15.6171 22.6474C15.7707 22.6304 15.9926 22.4768 16.112 22.4768C16.2315 22.4768 16.3339 22.5621 16.3339 22.5621C16.3339 22.5621 16.6752 22.4085 16.7094 22.4426C16.7435 22.4597 16.7094 22.6645 16.7435 22.6986C16.7776 22.7157 17.1702 22.4938 17.2726 22.4256Z" fill="#ECD592"/>
<path fill-rule="evenodd" clip-rule="evenodd" d="M24.7982 12.0661C24.3264 10.8522 23.5703 9.7691 22.5932 8.90788C21.6162 8.04667 20.4468 7.43245 19.1832 7.11679H7.76562L7.81682 11.3664H10.0867V20.8725H7.76562V25.1221H18.859C21.5384 25.1221 23.6888 22.4256 23.6888 22.4256C27.1192 17.5616 24.7982 12.0661 24.7982 12.0661ZM18.9272 19.5755C18.9272 19.5755 18.0568 20.8213 17.1011 20.8213H15.2067L15.1726 11.3835H17.596C17.596 11.3835 18.7224 11.6224 19.5075 13.8411C19.5075 13.8411 20.5486 17.0325 18.9272 19.5755Z" fill="white" fill-opacity="0.8"/>
</g>
<defs>
<clipPath id="clip0_1_951">
<rect width="32" height="32" fill="white"/>
</clipPath>
</defs>
</svg>
