<svg width="88" height="24" viewBox="0 0 88 24" fill="none" xmlns="http://www.w3.org/2000/svg">
<g clip-path="url(#clip0_1_1157)">
<path d="M0.513672 5.84247H5.6896L8.70348 13.5125L11.7565 5.84247H16.7961L9.20755 24H4.136L6.21324 19.1885L0.513672 5.84247Z" fill="#5F01D1"/>
<path d="M0.513672 5.84247H5.6896L8.70348 13.5125L11.7565 5.84247H16.7961L9.20755 24H4.136L6.21324 19.1885L0.513672 5.84247Z" fill="white"/>
<path d="M22.0466 5.53717C18.1577 5.53717 15.6992 9.00653 15.6992 12.4615C15.6992 16.3493 18.3946 19.4316 21.9728 19.4316C24.642 19.4316 25.6484 17.8139 25.6484 17.8139V19.0741H30.1629V5.84259H25.6484V7.04545C25.6484 7.04545 24.5256 5.53717 22.0466 5.53717ZM23.0068 9.78926C24.8012 9.78926 25.7272 11.2016 25.7272 12.476C25.7272 13.8483 24.7351 15.195 23.0068 15.195C21.5744 15.195 20.28 14.0306 20.28 12.5344C20.28 11.0171 21.3212 9.78926 23.0068 9.78926Z" fill="#5F01D1"/>
<path d="M22.0466 5.53717C18.1577 5.53717 15.6992 9.00653 15.6992 12.4615C15.6992 16.3493 18.3946 19.4316 21.9728 19.4316C24.642 19.4316 25.6484 17.8139 25.6484 17.8139V19.0741H30.1629V5.84259H25.6484V7.04545C25.6484 7.04545 24.5256 5.53717 22.0466 5.53717ZM23.0068 9.78926C24.8012 9.78926 25.7272 11.2016 25.7272 12.476C25.7272 13.8483 24.7351 15.195 23.0068 15.195C21.5744 15.195 20.28 14.0306 20.28 12.5344C20.28 11.0171 21.3212 9.78926 23.0068 9.78926Z" fill="white"/>
<path d="M31.7168 19.074V0H36.4386V7.09124C36.4386 7.09124 37.5601 5.53878 39.909 5.53878C42.7822 5.53878 44.4656 7.66827 44.4656 10.7112V19.074H39.7784V11.8568C39.7784 10.827 39.2853 9.83218 38.1682 9.83218C37.0312 9.83218 36.4386 10.8421 36.4386 11.8568V19.074H31.7168Z" fill="#5F01D1"/>
<path d="M31.7168 19.074V0H36.4386V7.09124C36.4386 7.09124 37.5601 5.53878 39.909 5.53878C42.7822 5.53878 44.4656 7.66827 44.4656 10.7112V19.074H39.7784V11.8568C39.7784 10.827 39.2853 9.83218 38.1682 9.83218C37.0312 9.83218 36.4386 10.8421 36.4386 11.8568V19.074H31.7168Z" fill="white"/>
<path d="M52.5156 5.5387C48.062 5.5387 45.4102 8.90732 45.4102 12.5165C45.4102 16.6238 48.621 19.4316 52.5324 19.4316C56.3236 19.4316 59.641 16.7512 59.641 12.5854C59.641 8.02725 56.1676 5.5387 52.5156 5.5387ZM52.5581 9.82815C54.1312 9.82815 55.2197 11.1315 55.2197 12.5214C55.2197 13.7069 54.2055 15.169 52.5581 15.169C51.0486 15.169 49.9158 13.9646 49.9158 12.5084C49.9158 11.1057 50.8576 9.82815 52.5581 9.82815Z" fill="#5F01D1"/>
<path d="M52.5156 5.5387C48.062 5.5387 45.4102 8.90732 45.4102 12.5165C45.4102 16.6238 48.621 19.4316 52.5324 19.4316C56.3236 19.4316 59.641 16.7512 59.641 12.5854C59.641 8.02725 56.1676 5.5387 52.5156 5.5387ZM52.5581 9.82815C54.1312 9.82815 55.2197 11.1315 55.2197 12.5214C55.2197 13.7069 54.2055 15.169 52.5581 15.169C51.0486 15.169 49.9158 13.9646 49.9158 12.5084C49.9158 11.1057 50.8576 9.82815 52.5581 9.82815Z" fill="white"/>
<path d="M67.5078 5.5387C63.0542 5.5387 60.4023 8.90732 60.4023 12.5165C60.4023 16.6238 63.6132 19.4316 67.5246 19.4316C71.3158 19.4316 74.6332 16.7512 74.6332 12.5854C74.6332 8.02725 71.1598 5.5387 67.5078 5.5387ZM67.5503 9.82815C69.1234 9.82815 70.2119 11.1315 70.2119 12.5214C70.2119 13.7069 69.1976 15.169 67.5503 15.169C66.0408 15.169 64.908 13.9646 64.908 12.5084C64.908 11.1057 65.8498 9.82815 67.5503 9.82815Z" fill="#5F01D1"/>
<path d="M67.5078 5.5387C63.0542 5.5387 60.4023 8.90732 60.4023 12.5165C60.4023 16.6238 63.6132 19.4316 67.5246 19.4316C71.3158 19.4316 74.6332 16.7512 74.6332 12.5854C74.6332 8.02725 71.1598 5.5387 67.5078 5.5387ZM67.5503 9.82815C69.1234 9.82815 70.2119 11.1315 70.2119 12.5214C70.2119 13.7069 69.1976 15.169 67.5503 15.169C66.0408 15.169 64.908 13.9646 64.908 12.5084C64.908 11.1057 65.8498 9.82815 67.5503 9.82815Z" fill="white"/>
<path d="M78.3601 19.3549C80.0917 19.3549 81.4955 17.9585 81.4955 16.236C81.4955 14.5135 80.0917 13.1171 78.3601 13.1171C76.6284 13.1171 75.2246 14.5135 75.2246 16.236C75.2246 17.9585 76.6284 19.3549 78.3601 19.3549Z" fill="#5F01D1"/>
<path d="M78.3601 19.3549C80.0917 19.3549 81.4955 17.9585 81.4955 16.236C81.4955 14.5135 80.0917 13.1171 78.3601 13.1171C76.6284 13.1171 75.2246 14.5135 75.2246 16.236C75.2246 17.9585 76.6284 19.3549 78.3601 19.3549Z" fill="white"/>
<path d="M82.5255 11.9714H76.8809L81.8906 0H87.5141L82.5255 11.9714Z" fill="#5F01D1"/>
<path d="M82.5255 11.9714H76.8809L81.8906 0H87.5141L82.5255 11.9714Z" fill="white"/>
</g>
<defs>
<clipPath id="clip0_1_1157">
<rect width="87" height="24" fill="white" transform="translate(0.513672)"/>
</clipPath>
</defs>
</svg>
